<?xml version="1.0" standalone="no"?>
<!DOCTYPE svg PUBLIC "-//W3C//DTD SVG 20010904//EN"
 "http://www.w3.org/TR/2001/REC-SVG-20010904/DTD/svg10.dtd">
<svg version="1.0" xmlns="http://www.w3.org/2000/svg"
 width="1200.000000pt" height="1200.000000pt" viewBox="0 0 1200.000000 1200.000000"
 preserveAspectRatio="xMidYMid meet">
<metadata>
Created by potrace 1.11, written by Peter Selinger 2001-2013
</metadata>
<g transform="translate(0.000000,1200.000000) scale(0.100000,-0.100000)"
fill="#000000" stroke="none">
<path d="M0 6000 l0 -6000 6000 0 6000 0 0 6000 0 6000 -6000 0 -6000 0 0
-6000z m6535 4177 c302 -37 503 -76 730 -142 717 -209 1249 -618 1520 -1170
147 -299 208 -575 208 -945 0 -223 -12 -340 -54 -520 -142 -616 -548 -1124
-1141 -1425 -508 -259 -1127 -370 -1813 -325 -220 15 -675 74 -662 86 2 2 57
15 123 28 599 122 1091 321 1443 584 115 86 284 254 373 372 89 118 191 313
237 455 86 262 113 613 67 875 -70 393 -288 729 -614 946 -449 299 -1098 397
-1807 274 -114 -20 -279 -54 -318 -66 -17 -5 -18 -136 -14 -3152 3 -2297 7
-3174 16 -3247 48 -423 156 -672 394 -913 l92 -92 -1153 0 c-633 0 -1152 1
-1152 3 0 1 35 38 78 82 267 272 372 542 402 1031 8 125 10 1092 8 3219 -4
2828 -5 3048 -21 3155 -56 371 -156 586 -381 818 l-90 93 1700 -4 c1488 -3
1715 -6 1829 -20z"/>
</g>
</svg>
