<?xml version="1.0" encoding="utf-8"?>
<!-- Generator: Adobe Illustrator 19.1.0, SVG Export Plug-In . SVG Version: 6.00 Build 0)  -->
<svg version="1.1" id="Layer_1" xmlns="http://www.w3.org/2000/svg" xmlns:xlink="http://www.w3.org/1999/xlink" x="0px" y="0px"
	 viewBox="0 0 60 60" style="enable-background:new 0 0 60 60;" xml:space="preserve">
<style type="text/css">
	.st0{fill:#005F9E;}
	.st1{fill:#3B4652;}
</style>
<g>
	<path class="st0" d="M29.4,46.2v-7.7c-2.2,0-4.3,0.3-6.2,0.8c0.3,0.9,0.7,1.7,1.1,2.4C25.7,44.3,27.5,46,29.4,46.2L29.4,46.2z
		 M29.4,37.3v-6.6h-7.6c0.1,2.7,0.4,5.2,1.1,7.5C24.9,37.6,27.1,37.4,29.4,37.3L29.4,37.3z M29.4,29.5v-6.6c-2.3,0-4.5-0.3-6.5-0.8
		c-0.7,2.2-1,4.7-1.1,7.5H29.4L29.4,29.5z M29.4,21.7v-7.7c-2,0.3-3.8,2-5.1,4.6c-0.4,0.7-0.7,1.6-1.1,2.4
		C25.1,21.4,27.2,21.6,29.4,21.7L29.4,21.7z M30.6,13.9v7.7c2.2,0,4.3-0.3,6.2-0.8c-0.3-0.9-0.7-1.7-1-2.4
		C34.4,15.9,32.6,14.2,30.6,13.9L30.6,13.9z M30.6,22.8v6.6h7.6c0-2.7-0.4-5.2-1.1-7.5C35.1,22.5,32.9,22.8,30.6,22.8L30.6,22.8z
		 M30.6,30.7v6.6c2.3,0,4.5,0.3,6.5,0.8c0.7-2.2,1-4.7,1.1-7.5H30.6L30.6,30.7z M30.6,38.5v7.7c2-0.3,3.8-2,5.1-4.6
		c0.4-0.7,0.7-1.6,1-2.4C34.9,38.8,32.8,38.5,30.6,38.5L30.6,38.5z M34.1,14.4c1,0.9,1.9,2.1,2.7,3.5c0.4,0.8,0.8,1.7,1.2,2.7
		c1.5-0.4,2.8-1,3.9-1.6c-0.1-0.1-0.3-0.3-0.4-0.4C39.5,16.6,37,15.1,34.1,14.4L34.1,14.4z M38.3,21.7c0.7,2.3,1.1,5,1.1,7.8h6.8
		c-0.1-3.6-1.4-6.9-3.6-9.6C41.4,20.6,39.9,21.3,38.3,21.7L38.3,21.7z M39.4,30.7c-0.1,2.8-0.5,5.4-1.1,7.8c1.6,0.5,3.1,1.1,4.4,1.8
		c2.1-2.6,3.4-5.9,3.6-9.6H39.4L39.4,30.7z M37.9,39.6c-0.3,1-0.7,1.9-1.2,2.7c-0.8,1.4-1.7,2.6-2.7,3.5c2.8-0.7,5.3-2.2,7.3-4.2
		c0.1-0.1,0.3-0.3,0.4-0.4C40.7,40.5,39.4,40,37.9,39.6L37.9,39.6z M25.9,45.8c-1-0.9-1.9-2.1-2.7-3.5c-0.4-0.8-0.8-1.7-1.2-2.7
		c-1.5,0.4-2.8,1-3.9,1.6c0.1,0.1,0.3,0.3,0.4,0.4C20.6,43.5,23.1,45,25.9,45.8L25.9,45.8z M21.7,38.4c-0.7-2.3-1.1-5-1.1-7.8h-6.8
		c0.1,3.6,1.4,6.9,3.6,9.6C18.6,39.5,20.1,38.9,21.7,38.4L21.7,38.4z M20.6,29.5c0.1-2.8,0.5-5.4,1.1-7.8c-1.6-0.5-3.1-1.1-4.4-1.8
		c-2.1,2.6-3.4,5.9-3.6,9.6H20.6L20.6,29.5z M22.1,20.6c0.3-1,0.7-1.9,1.2-2.7c0.8-1.4,1.7-2.6,2.7-3.5c-2.8,0.7-5.3,2.2-7.3,4.2
		c-0.1,0.1-0.3,0.3-0.4,0.4C19.3,19.6,20.6,20.2,22.1,20.6L22.1,20.6z M30,12.7c4.8,0,9.1,1.9,12.3,5.1c3.1,3.1,5.1,7.5,5.1,12.3
		c0,4.8-1.9,9.1-5.1,12.3c-3.1,3.1-7.5,5.1-12.3,5.1c-4.8,0-9.1-1.9-12.3-5.1c-3.1-3.1-5.1-7.5-5.1-12.3c0-4.8,1.9-9.1,5.1-12.3
		C20.9,14.6,25.2,12.7,30,12.7L30,12.7z"/>
	<path class="st0" d="M30,48c-4.8,0-9.3-1.9-12.7-5.3s-5.3-7.9-5.3-12.7c0-4.8,1.9-9.3,5.3-12.7c3.4-3.4,7.9-5.3,12.7-5.3
		s9.3,1.9,12.7,5.3c3.4,3.4,5.3,7.9,5.3,12.7s-1.9,9.3-5.3,12.7C39.3,46.2,34.8,48,30,48z M27.9,46.8c1.4,0.2,2.9,0.2,4.2,0l1.6-1.4
		c0.9-0.8,1.8-2,2.5-3.4c0.4-0.8,0.8-1.7,1.1-2.6l0.2-0.5l0.5,0.1c1.5,0.4,2.9,1,4,1.6l0.6,0.3l-0.5,0.5c-0.1,0.1-0.3,0.3-0.4,0.4
		c-2.1,2.1-4.7,3.6-7.6,4.4l-1.5,0.4c3.5-0.6,6.6-2.2,9.2-4.7c3.2-3.2,4.9-7.4,4.9-11.9s-1.8-8.7-4.9-11.9c-2.5-2.5-5.7-4.2-9.2-4.7
		l1.5,0.4c2.9,0.7,5.5,2.3,7.6,4.4c0.1,0.1,0.3,0.3,0.4,0.4l0.5,0.5l-0.6,0.3c-1.2,0.6-2.5,1.2-4,1.6l-0.5,0.1l-0.2-0.5
		c-0.3-0.9-0.7-1.8-1.1-2.6c-0.7-1.4-1.6-2.5-2.5-3.4l-1.6-1.4c-1.4-0.2-2.8-0.2-4.2,0l-1.6,1.4c-0.9,0.8-1.8,2-2.5,3.4
		c-0.4,0.8-0.8,1.7-1.1,2.6l-0.2,0.5l-0.5-0.1c-1.5-0.4-2.9-1-4-1.6l-0.6-0.3l0.5-0.5c0.1-0.1,0.3-0.3,0.4-0.4
		c2.1-2.1,4.7-3.6,7.6-4.4l1.5-0.4c-3.5,0.6-6.7,2.2-9.2,4.7c-3.2,3.2-4.9,7.4-4.9,11.9c0,4.5,1.8,8.7,4.9,11.9
		c2.5,2.5,5.7,4.1,9.2,4.7l-1.5-0.4c-2.9-0.8-5.5-2.3-7.6-4.4c-0.1-0.1-0.3-0.3-0.4-0.4L17.3,41l0.6-0.3c1.2-0.6,2.5-1.2,4-1.6
		l0.5-0.1l0.2,0.5c0.3,0.9,0.7,1.8,1.1,2.6c0.7,1.4,1.6,2.5,2.5,3.4L27.9,46.8z M38.3,40.2c-0.3,0.8-0.6,1.5-1,2.2
		c-0.4,0.8-0.8,1.4-1.3,2.1c1.8-0.8,3.5-1.9,5-3.3C40.1,40.9,39.2,40.5,38.3,40.2z M19.1,41.3c1.4,1.4,3.1,2.5,5,3.3
		c-0.5-0.6-0.9-1.3-1.3-2.1c-0.4-0.7-0.7-1.5-1-2.2C20.8,40.5,19.9,40.9,19.1,41.3z M19.1,18.9c0.8,0.4,1.7,0.7,2.7,1
		c0.3-0.8,0.6-1.6,1-2.3c0.4-0.8,0.8-1.4,1.3-2.1C22.2,16.4,20.5,17.5,19.1,18.9z M36,15.6c0.5,0.6,0.9,1.3,1.3,2.1
		c0.4,0.7,0.7,1.5,1,2.2c1-0.3,1.8-0.7,2.7-1C39.5,17.5,37.8,16.4,36,15.6z M30.1,46.9v-8.9l0.6,0c2.2,0,4.3,0.3,6.3,0.8l0.6,0.1
		l-0.2,0.6c-0.3,0.9-0.7,1.7-1.1,2.5c-1.5,2.8-3.5,4.5-5.5,4.9L30.1,46.9z M31.2,39.1v6.5c1.5-0.5,2.9-1.9,4.1-4.1
		c0.3-0.5,0.6-1.1,0.8-1.8C34.5,39.3,32.9,39.1,31.2,39.1z M30,46.9l-0.6-0.1c-2.1-0.3-4.1-2-5.5-4.8c-0.4-0.8-0.8-1.6-1.1-2.5
		l-0.2-0.6l0.6-0.1c2-0.5,4.1-0.7,6.3-0.8l0.6,0V46.9z M24,39.7c0.2,0.6,0.5,1.2,0.8,1.8c1.2,2.2,2.6,3.6,4.1,4.1v-6.5
		C27.2,39.1,25.5,39.3,24,39.7z M42.8,40.9l-0.4-0.2c-1.2-0.7-2.6-1.3-4.2-1.7l-0.5-0.2l0.2-0.5c0.7-2.3,1.1-5,1.1-7.6l0-0.5h7.9
		l0,0.6c-0.1,3.6-1.4,7.1-3.7,9.9L42.8,40.9z M39,38.1c1.3,0.4,2.5,0.9,3.5,1.5c1.8-2.4,2.9-5.3,3.1-8.3H40
		C39.9,33.6,39.6,35.9,39,38.1z M17.2,40.9l-0.3-0.4c-2.3-2.8-3.6-6.2-3.7-9.9l0-0.6h7.9l0,0.5c0,2.7,0.4,5.3,1.1,7.6l0.2,0.5
		L21.9,39c-1.6,0.5-3,1-4.2,1.7L17.2,40.9z M14.4,31.2c0.2,3,1.3,5.9,3.1,8.3c1.1-0.6,2.2-1.1,3.5-1.5c-0.6-2.1-0.9-4.4-1-6.8H14.4z
		 M37.5,38.8L37,38.7c-2-0.5-4.2-0.8-6.4-0.8l-0.5,0v-7.7h8.8l0,0.6c0,2.7-0.4,5.3-1.1,7.6L37.5,38.8z M31.2,36.8
		c1.9,0.1,3.8,0.3,5.6,0.7c0.5-1.9,0.8-4.1,0.9-6.2h-6.5V36.8z M22.5,38.8l-0.1-0.5c-0.7-2.3-1.1-4.9-1.1-7.6l0-0.6H30v7.7l-0.5,0
		c-2.2,0-4.4,0.3-6.4,0.8L22.5,38.8z M22.4,31.2c0.1,2.2,0.4,4.3,0.9,6.2c1.8-0.4,3.7-0.6,5.6-0.7v-5.5H22.4z M46.8,30h-7.9l0-0.5
		c0-2.7-0.4-5.3-1.1-7.6l-0.2-0.5l0.5-0.2c1.6-0.5,3-1,4.2-1.7l0.4-0.2l0.3,0.4c2.3,2.8,3.6,6.3,3.7,9.9L46.8,30z M40,28.9h5.6
		c-0.2-3-1.3-5.9-3.1-8.3c-1.1,0.6-2.2,1.1-3.5,1.5C39.5,24.2,39.9,26.6,40,28.9z M38.8,30h-8.8v-7.7l0.5,0c2.2,0,4.4-0.3,6.4-0.8
		l0.5-0.1l0.2,0.5c0.7,2.3,1.1,4.9,1.1,7.6L38.8,30z M31.2,28.9h6.5c-0.1-2.2-0.4-4.3-0.9-6.2c-1.8,0.4-3.7,0.6-5.6,0.7V28.9z
		 M30,30h-8.8l0-0.6c0.1-2.7,0.4-5.3,1.1-7.6l0.1-0.5l0.5,0.1c2,0.5,4.2,0.8,6.4,0.8l0.5,0V30z M22.4,28.9h6.5v-5.5
		c-1.9-0.1-3.8-0.3-5.6-0.7C22.7,24.6,22.4,26.8,22.4,28.9z M21.1,30h-7.9l0-0.6c0.1-3.6,1.4-7.1,3.7-9.9l0.3-0.4l0.4,0.2
		c1.2,0.7,2.7,1.3,4.2,1.7l0.5,0.2l-0.2,0.5c-0.7,2.3-1.1,5-1.1,7.6L21.1,30z M14.4,28.9h5.6c0.1-2.4,0.4-4.7,1-6.8
		c-1.3-0.4-2.5-0.9-3.5-1.5C15.7,23.1,14.6,25.9,14.4,28.9z M30,22.2l-0.6,0c-2.2,0-4.3-0.3-6.3-0.8l-0.6-0.1l0.2-0.6
		c0.3-0.9,0.7-1.7,1.1-2.5c1.5-2.8,3.5-4.5,5.5-4.9l0.6-0.1V22.2z M24,20.5c1.6,0.3,3.2,0.5,4.9,0.6v-6.5c-1.5,0.5-2.9,1.9-4.1,4.1
		C24.5,19.3,24.2,19.9,24,20.5z M30.1,22.2v-8.9l0.6,0.1c2.1,0.3,4.1,2,5.5,4.9c0.4,0.8,0.8,1.6,1.1,2.5l0.2,0.6l-0.6,0.1
		c-2,0.5-4.1,0.7-6.3,0.8L30.1,22.2z M31.2,14.6v6.5c1.7-0.1,3.3-0.3,4.9-0.6c-0.2-0.6-0.5-1.2-0.8-1.8
		C34.1,16.5,32.7,15.1,31.2,14.6z"/>
</g>
<g>
	<g>
		<path class="st1" d="M6.6,28.3l-0.8-2.4L5,23.5l1.6,0.3c1.1-5.2,3.6-9,7.4-12.4c4.3-3.8,10-6,16.2-5.9c6.2,0.1,11.8,2.5,16,6.4
			c4.2,3.9,7.1,9.4,7.6,15.5c0,0.4-0.3,0.7-0.6,0.8c-0.4,0-0.7-0.3-0.8-0.6c-0.5-5.7-3.2-10.9-7.2-14.6c-4-3.7-9.2-5.9-15.1-6
			c-5.8-0.1-11.2,2-15.2,5.6C11.4,15.6,9,19.2,8,24l1.6,0.2l-1.5,2L6.6,28.3L6.6,28.3z"/>
		<path class="st1" d="M6.4,29.5l-2.2-6.6l2,0.3c1.1-4.8,3.5-8.7,7.5-12.1c4.6-4,10.5-6.1,16.5-6.1c6.1,0.1,11.9,2.4,16.4,6.6
			c4.5,4.2,7.2,9.8,7.8,15.8c0.1,0.7-0.5,1.3-1.1,1.4c-0.7,0.1-1.3-0.5-1.4-1.1c-0.5-5.4-3-10.5-7-14.2c-4-3.7-9.2-5.8-14.7-5.9
			c-5.5-0.1-10.7,1.9-14.9,5.5c-3.5,3.1-5.6,6.5-6.7,10.7l1.9,0.3L6.4,29.5z M29.8,6.3c0.1,0,0.2,0,0.3,0c5.7,0.1,11.2,2.3,15.4,6.2
			c4.2,3.9,6.8,9.2,7.3,14.9c0,0.1,0.1,0.1,0.2,0.1c0.1,0,0.1-0.1,0.1-0.2c-0.5-5.8-3.2-11.1-7.4-15.1C41.5,8.4,36,6.1,30.2,6
			c-5.8-0.1-11.4,2-15.8,5.8c-3.9,3.4-6.2,7.3-7.3,12.1L7,24.4l-1.2-0.2l0.9,2.9l1.8-2.4l-1.2-0.2l0.1-0.6c1-4.7,3.3-8.5,7.2-11.8
			C18.8,8.3,24.2,6.3,29.8,6.3z"/>
	</g>
</g>
<g>
	<g>
		<path class="st1" d="M53.4,31.7l0.8,2.4l0.8,2.4l-1.6-0.3c-1.1,5.2-3.6,9-7.4,12.4c-4.3,3.8-10,6-16.2,5.9
			c-6.2-0.1-11.8-2.5-16-6.4c-4.2-3.9-7.1-9.4-7.6-15.5c0-0.4,0.3-0.7,0.6-0.8c0.4,0,0.7,0.3,0.8,0.6c0.5,5.7,3.2,10.9,7.2,14.6
			c4,3.7,9.2,5.9,15.1,6c5.8,0.1,11.2-2,15.2-5.6c3.6-3.1,5.9-6.7,7-11.5l-1.6-0.2l1.5-2L53.4,31.7L53.4,31.7z"/>
		<path class="st1" d="M30.2,55.1c-0.1,0-0.2,0-0.4,0c-6.1-0.1-11.9-2.4-16.4-6.6C9,44.4,6.2,38.7,5.7,32.7
			c-0.1-0.7,0.5-1.3,1.1-1.4c0.7-0.1,1.3,0.5,1.4,1.1c0.5,5.4,3,10.5,7,14.2c4,3.7,9.2,5.8,14.7,5.9c5.4,0.1,10.7-1.9,14.9-5.5
			c3.5-3.1,5.6-6.5,6.7-10.7l-1.9-0.3l4.1-5.6l2.2,6.6l-2-0.3c-1.1,4.8-3.5,8.7-7.5,12.2C41.8,52.9,36.1,55.1,30.2,55.1z M6.9,32.4
			C6.9,32.4,6.9,32.4,6.9,32.4c-0.1,0-0.1,0.1-0.1,0.2c0.5,5.8,3.2,11.2,7.4,15.1c4.3,3.9,9.8,6.2,15.6,6.3c5.8,0.1,11.4-2,15.8-5.8
			c3.9-3.4,6.2-7.3,7.3-12.1l0.1-0.5l1.2,0.2l-0.9-2.9l-1.8,2.4l1.2,0.2l-0.1,0.6c-1,4.7-3.3,8.5-7.2,11.8
			c-4.3,3.8-9.9,5.8-15.6,5.7c-5.7-0.1-11.2-2.3-15.4-6.2c-4.2-3.9-6.8-9.2-7.3-14.9C7,32.5,7,32.4,6.9,32.4z"/>
	</g>
</g>
</svg>
