<?xml version="1.0" encoding="utf-8"?>
<!-- Generator: Adobe Illustrator 21.1.0, SVG Export Plug-In . SVG Version: 6.00 Build 0)  -->
<svg version="1.1" id="Layer_1" xmlns="http://www.w3.org/2000/svg" xmlns:xlink="http://www.w3.org/1999/xlink" x="0px" y="0px"
	 viewBox="0 0 163 100" style="enable-background:new 0 0 163 100;" xml:space="preserve">
<style type="text/css">
	.st0{fill:#0074AE;}
	.st1{fill:#4B5865;}
</style>
<path class="st0" d="M123.4,40.1C121.8,21.4,106.6,6,87.9,4.3c-16.1-1.5-31.2,6.9-38.5,21.3L37.1,51.7c-0.9,1.9-0.8,4,0.3,5.8
	c1.1,1.8,3,2.8,5.1,2.8h2.6v16.3c0,4.7,3.8,8.5,8.5,8.5h12v7.5c0,1.7,1.4,3.1,3.1,3.1s3.1-1.4,3.1-3.1V82c0-1.7-1.4-3.1-3.1-3.1
	H53.6c-1.2,0-2.2-1-2.2-2.2V57.2c0-1.7-1.4-3.1-3.1-3.1H43l12-25.7c6.1-12,18.8-19,32.3-17.8c15.7,1.4,28.5,14.3,29.8,30.1
	c1,11.8-5.5,23.9-16.6,30.8C99.6,72,99,73,99,74.1v18.7c0,1.7,1.4,3.1,3.1,3.1s3.1-1.4,3.1-3.1v-17
	C117.4,67.5,124.5,53.5,123.4,40.1z"/>
<path class="st1" d="M93.4,36.4c-5.7,0-10.4,4.7-10.4,10.4c0,1.2,1,2.2,2.2,2.2c1.2,0,2.2-1,2.2-2.2c0-3.3,2.7-6,6-6s6,2.7,6,6
	c0,2.5-1.5,4-3.5,6c-1.6,1.7-3.5,3.6-4.3,6.2c-0.3,1-1.1,1.5-2,1.3c-0.9-0.2-1.4-1.1-1.2-2c0.1-0.2,0.2-0.4,0.3-0.6
	c0.7-0.9,0.6-2.3-0.4-3.1c-0.9-0.7-2.3-0.6-3.1,0.4c-0.5,0.7-0.9,1.5-1.1,2.3c-0.4,1.6-0.1,3.2,0.7,4.5c0.8,1.4,2.2,2.3,3.7,2.7
	c0.5,0.1,0.9,0.2,1.4,0.2c2.7,0,5.1-1.8,5.8-4.5c0.5-1.6,1.7-2.9,3.2-4.4c2.2-2.3,4.7-4.8,4.7-9.1C103.8,41.1,99.1,36.4,93.4,36.4z"
	/>
</svg>
