<?xml version="1.0" encoding="utf-8"?>
<!-- Generator: Adobe Illustrator 21.1.0, SVG Export Plug-In . SVG Version: 6.00 Build 0)  -->
<svg version="1.1" id="Layer_1" xmlns="http://www.w3.org/2000/svg" xmlns:xlink="http://www.w3.org/1999/xlink" x="0px" y="0px"
	 viewBox="0 0 163 100" style="enable-background:new 0 0 163 100;" xml:space="preserve">
<style type="text/css">
	.st0{fill:#4B5865;}
	.st1{fill:#0074AE;}
</style>
<path class="st0" d="M80,85.9c-23.9,0-45.7-12.1-58.4-32.4l-1.2-1.9c-0.6-1-0.6-2.2,0-3.2l1.2-1.9C34.3,26.2,56.1,14.1,80,14.1
	c23.9,0,45.7,12.1,58.4,32.4l1.2,1.9c0.6,1,0.6,2.2,0,3.2l-1.2,1.9C125.7,73.8,103.9,85.9,80,85.9z M26.5,50l0.2,0.3
	C38.3,68.9,58.2,79.9,80,79.9c21.8,0,41.7-11.1,53.3-29.6l0.2-0.3l-0.2-0.3C121.7,31.1,101.8,20.1,80,20.1
	c-21.8,0-41.7,11.1-53.3,29.6L26.5,50z"/>
<path class="st1" d="M80,25c-13.8,0-25,11.2-25,25c0,13.8,11.2,25,25,25c13.8,0,25-11.2,25-25C105,36.2,93.8,25,80,25z M80,70
	c-11,0-20-9-20-20c0-11,9-20,20-20c11,0,20,9,20,20C100,61,91,70,80,70z M81,36.5c-8,0-14.5,6.5-14.5,14.5c0,1.5,1.2,2.7,2.7,2.7
	c1.5,0,2.7-1.2,2.7-2.7c0-2.5,1-4.7,2.6-6.4C76.3,43,78.5,42,81,42c1.5,0,2.7-1.2,2.7-2.7C83.7,37.8,82.5,36.5,81,36.5z"/>
</svg>
