<?xml version="1.0" encoding="utf-8"?>
<!-- Generator: Adobe Illustrator 21.1.0, SVG Export Plug-In . SVG Version: 6.00 Build 0)  -->
<svg version="1.1" id="Layer_1" xmlns="http://www.w3.org/2000/svg" xmlns:xlink="http://www.w3.org/1999/xlink" x="0px" y="0px"
	 viewBox="0 0 163 100" style="enable-background:new 0 0 163 100;" xml:space="preserve">
<style type="text/css">
	.st0{fill:#0074AE;}
	.st1{fill:#4B5865;}
</style>
<path class="st0" d="M113.2,13c-0.5-0.6-1.3-1-2.1-1c-0.8,0-1.6,0.2-2.2,0.8c-1.4,1.2-11.4,11.6-14,15.8c-1.8,2.9-2.5,6-2.9,8.6
	c-0.2,1.6-1.3,2.9-2.6,3.3c-1,0.3-2.7,0.3-4.5-0.6c-2.5-1.3-4.5-4.2-5.7-8.3c-1.3-4.4,0.9-6.2,6.4-8.6c1.2-0.5,2.3-1,3.1-1.6
	c0.1-0.1,0.2-0.1,0.3-0.2l0.8-0.8c2.5-2.4,10.3-9.5,11.4-10.5c0.6-0.6,1-1.3,1-2.1c0-0.8-0.2-1.6-0.8-2.2c-1.1-1.3-3.1-1.4-4.4-0.2
	c-0.8,0.7-5,4.6-11.9,11l-0.1,0.1c-0.4,0.2-1.1,0.6-1.8,0.8C79.1,19,70,23,73.2,33.4c2.2,7.2,5.9,10.5,8.7,11.9c1.9,1,4,1.5,6.1,1.5
	c1.1,0,2.2-0.2,3.1-0.5c3.6-1.1,6.3-4.4,6.9-8.3c0.3-2,0.8-4.4,2-6.3l0,0c2.2-3.5,11.7-13.4,12.9-14.5c0.6-0.5,1-1.3,1-2.1
	C114,14.4,113.8,13.6,113.2,13z M86.3,56.6c-4.3-2.9-10.6-4.4-15-1.5c-2.7,1.8-5.6,5.8-3.9,14.5c0.2,1.3,0.7,2.5,1.2,4.2
	c1.2,3.6,2.9,9.1,4.2,18.9c0.2,1.5,1.5,2.7,3.1,2.7c0.1,0,0.3,0,0.4,0c0.8-0.1,1.5-0.5,2.1-1.2c0.5-0.7,0.7-1.5,0.6-2.3
	c-1.3-10.4-3.2-16.2-4.4-20.1c-0.5-1.4-0.8-2.5-1-3.4c-0.8-4.2-0.4-7.2,1.3-8.2c1.7-1.2,5.2-0.6,8.2,1.4c2.3,1.6,4.6,4.2,4.1,6.9
	c-0.2,1.1-0.4,2.2-0.6,3.2l0,0.2c-1.3,6-2.1,10-1.5,20.6c0.1,1.7,1.5,3,3.2,2.9c1.7-0.1,3-1.5,2.9-3.2c-0.5-9.8,0.2-13.2,1.4-19
	l0-0.1c0.2-1,0.4-2.1,0.7-3.3C93.9,65,91.4,60,86.3,56.6z"/>
<g>
	<g>
		<path class="st1" d="M89,49.2c-3.6-0.6-6.8-2.1-9.2-3.4c-5.6-3-5.5-8.2-10.5-8.2c-3.8,0-4.9,8.1-4.1,11.3c0.5,1.9,2.3,2.7,4.1,2.5
			c2.5-0.3,5.3-1.8,11.3,0.2c2.2,0.7,10.5,4.3,12.2,3.6C94.6,54.6,94.3,50.1,89,49.2z M113.6,29.8c-0.8-1.4-2.7-1.9-4.1-1.1
			c-1.4,0.8-1.9,2.7-1.1,4.1c2.8,4.8,4.2,10.3,4.1,15.8c-0.2,10.8-6,20.5-15.4,25.9c-1.4,0.8-1.9,2.7-1.1,4.1c0.6,1,1.6,1.5,2.6,1.5
			c0.5,0,1-0.1,1.5-0.4c11.1-6.3,18.1-18.2,18.4-30.9C118.6,42.1,116.9,35.5,113.6,29.8z M62.6,74.3c-9.5-5.6-15.3-15.9-15.1-26.9
			c0.3-14.4,10.8-26.8,25-29.4c1.6-0.3,2.7-1.9,2.4-3.5c-0.3-1.6-1.9-2.7-3.5-2.4c-17,3.1-29.6,17.9-29.9,35.2
			c-0.3,13.2,6.7,25.6,18.1,32.2c0.5,0.3,1,0.4,1.5,0.4c1,0,2-0.5,2.6-1.5C64.6,77,64.1,75.1,62.6,74.3z"/>
	</g>
</g>
</svg>
