<?xml version="1.0" encoding="utf-8"?>
<!-- Generator: Adobe Illustrator 21.1.0, SVG Export Plug-In . SVG Version: 6.00 Build 0)  -->
<svg version="1.1" id="Layer_1" xmlns="http://www.w3.org/2000/svg" xmlns:xlink="http://www.w3.org/1999/xlink" x="0px" y="0px"
	 viewBox="0 0 163 100" style="enable-background:new 0 0 163 100;" xml:space="preserve">
<style type="text/css">
	.st0{fill:#0074AE;}
	.st1{fill:#4B5865;}
</style>
<path class="st0" d="M93.3,8c-4.8,0-7.5,1.4-9.5,2.5c-2.2,1.2-2.4,1.2-4.6,0c-2-1.1-4.7-2.5-9.5-2.5c-8.1,0-13.9,6.5-13.9,15.5
	c0,5.5,1.9,9.6,3.6,12.4l2.5,4.3c0.3,0.5,0.4,1,0.4,1.2c0,2.8-0.2,4.3-0.5,5.8c-0.4,2.2-0.8,4.4-0.4,9.5c0.8,10.5,5.7,15.3,9.9,15.3
	c0.6,0,1.1-0.1,1.7-0.3c4.7-1.5,4.9-7,4.7-14.5c0-1.4,0.4-2.6,1.2-3.4c0.7-0.7,1.6-1.1,2.7-1.1c1.1,0,2,0.4,2.7,1.1
	c0.8,0.8,1.2,2,1.2,3.4c-0.2,7.6,0,13,4.7,14.5c0.5,0.2,1.1,0.3,1.7,0.3c4.2,0,9-4.8,9.9-15.3c0.4-5.2,0-7.4-0.4-9.6
	c-0.3-1.5-0.5-3-0.5-5.8c0-0.3,0.1-0.7,0.4-1.2l2.5-4.4l0,0c1.7-2.9,3.6-6.9,3.6-12.4C107.2,14.5,101.4,8,93.3,8z M88.3,50
	c-1.8-1.8-4.2-2.8-6.8-2.8s-5.1,1-6.8,2.8c-1.9,1.9-2.9,4.6-2.8,7.6c0.2,7.9-0.5,8.8-0.6,8.8c-0.7,0-3.5-2.6-4.1-10
	c-0.3-4.4-0.1-6.2,0.3-8.1c0.3-1.6,0.6-3.5,0.6-6.8c0-2.1-1-4-2-5.6c-0.2-0.4-0.4-0.7-0.7-1.1c-1.8-2.9-3.9-6.3-3.9-11.3
	c0-5.8,3.3-9.8,8.2-9.8c3.4,0,5.1,0.9,6.8,1.8c1.4,0.8,2.9,1.6,5,1.6c2,0,3.5-0.8,5-1.6c1.7-0.9,3.4-1.8,6.8-1.8
	c4.9,0,8.2,3.9,8.2,9.8c0,5-2,8.3-3.9,11.3c-0.2,0.4-0.4,0.7-0.7,1.1c-1,1.6-2,3.5-2,5.6c0,3.3,0.3,5.1,0.6,6.8
	c0.3,2,0.6,3.7,0.3,8.1c-0.6,7.4-3.4,10-4,10c-0.2-0.1-0.9-1-0.7-8.9C91.2,54.6,90.2,51.9,88.3,50z"/>
<path class="st1" d="M114.6,38.7L114.6,38.7c-0.1,0-2.4-1.2-6.8-2.4l-0.4-0.1l-0.2,0.4c-0.2,0.4-0.4,0.8-0.6,1.2l-2.2,3.7l0.6,0.2
	c2.4,0.6,4.2,1.2,5.4,1.6v31.5h-58V43.2c1.1-0.4,2.9-1,5.4-1.6l0.6-0.2l-2.2-3.7c-0.2-0.4-0.4-0.8-0.6-1.2l-0.2-0.3l-0.4,0.1
	c-1.1,0.3-2.1,0.6-2.9,0.9c-3.8,1.2-5.6,1.9-5.5,4.2v47.7c0,1.6,1.3,2.9,2.9,2.9h63.8c1.6,0,2.9-1.3,2.9-2.9V41.3
	C116.3,40.2,115.6,39.2,114.6,38.7z M110.5,80.5v5.7h-58v-5.7H110.5z"/>
</svg>
