<?xml version="1.0" encoding="utf-8"?>
<!-- Generator: Adobe Illustrator 22.1.0, SVG Export Plug-In . SVG Version: 6.00 Build 0)  -->
<svg version="1.1" id="Layer_1" xmlns="http://www.w3.org/2000/svg" xmlns:xlink="http://www.w3.org/1999/xlink" x="0px" y="0px"
	 viewBox="0 0 100 100" style="enable-background:new 0 0 100 100;" xml:space="preserve">
<style type="text/css">
	.st0{fill:#FFFFFF;}
	.st1{display:none;fill:#FFFFFF;}
</style>
<path class="st0" d="M48.4,16.7l13,15.3H51.1c-0.8,0-1.4-0.3-2-0.8c-0.5-0.5-0.8-1.2-0.8-2V16.7z M62.3,56.9v25c0,0.8-0.3,1.4-0.8,2
	c-0.5,0.5-1.2,0.8-2,0.8H17.8c-0.8,0-1.4-0.3-2-0.8c-0.5-0.5-0.8-1.2-0.8-2V18.1c0-0.8,0.3-1.4,0.8-2c0.5-0.5,1.2-0.8,2-0.8h27.8
	v13.9c0,1.6,0.5,2.9,1.6,3.9c1.1,1.1,2.4,1.6,3.9,1.6h11.1L34.5,62.5l-2.8,13.9l13.9-2.8L62.3,56.9z M65,31.9L48.4,12.5H17.8
	c-1.5,0-2.8,0.5-3.9,1.6c-1.1,1.1-1.6,2.4-1.6,3.9v63.9c0,1.5,0.5,2.8,1.6,3.9c1.1,1.1,2.4,1.6,3.9,1.6h41.7c1.6,0,2.9-0.5,3.9-1.6
	c1.1-1.1,1.6-2.4,1.6-3.9V54.2l21.1-21.1c1-1,1.6-2.3,1.6-3.9c0-1.5-0.5-2.9-1.6-3.9L82.8,22c-1.1-1.1-2.4-1.6-3.9-1.6
	c-1.5,0-2.8,0.5-3.9,1.6L65,31.9z M37,64.2l6.9,6.9l-8.8,1.7L37,64.2z M79.4,35.9l-7.2-7.2l4.8-4.8c0.5-0.6,1.2-0.9,2-0.9
	s1.4,0.3,2,0.9l3.3,3.2c0.5,0.6,0.8,1.2,0.8,2c0,0.8-0.3,1.4-0.8,2L79.4,35.9z M77.4,37.9L46,69.3l-7.2-7.2l31.3-31.3L77.4,37.9z"/>
<path class="st1" d="M129.4,51.4c-1.5,0-2.8,0.5-3.9,1.6c-1.1,1.1-1.6,2.4-1.6,3.9v27.4c0,1.5,0.5,2.8,1.6,3.9
	c1.1,1.1,2.4,1.6,3.9,1.6h41.1c1.5,0,2.8-0.5,3.9-1.6c1.1-1.1,1.6-2.4,1.6-3.9V56.9c0-1.5-0.5-2.8-1.6-3.9c-1.1-1.1-2.4-1.6-3.9-1.6
	H129.4z M145.9,71.9c-0.9-0.6-1.5-1.4-2-2.4c-0.5-0.9-0.7-2-0.7-3.1c0-1.9,0.7-3.5,2-4.8c1.3-1.3,3-2,4.8-2s3.5,0.7,4.8,2
	c1.3,1.3,2,3,2,4.8c0,1.1-0.2,2.2-0.7,3.1c-0.5,0.9-1.2,1.7-2,2.4v5.5c0,1.1-0.4,2.1-1.2,2.9c-0.8,0.8-1.8,1.2-2.9,1.2
	s-2.1-0.4-2.9-1.2c-0.8-0.8-1.2-1.8-1.2-2.9V71.9z M148.6,77.4c0,0.4,0.1,0.7,0.4,1c0.3,0.3,0.6,0.4,0.9,0.4c0.4,0,0.7-0.1,1-0.4
	c0.3-0.3,0.4-0.6,0.4-1v-7.1c0.8-0.3,1.5-0.8,2-1.5s0.8-1.5,0.8-2.4c0-1.1-0.4-2.1-1.2-2.9c-0.8-0.8-1.8-1.2-2.9-1.2
	s-2.1,0.4-2.9,1.2c-0.8,0.8-1.2,1.8-1.2,2.9c0,0.9,0.3,1.7,0.8,2.4s1.2,1.2,2,1.5V77.4z M167.8,28.1c0-2.5-0.5-4.8-1.4-6.9
	c-1-2.2-2.3-4.1-3.9-5.7c-1.6-1.6-3.5-2.9-5.7-3.9c-2.2-0.9-4.5-1.4-6.9-1.4s-4.8,0.5-6.9,1.4c-2.2,1-4.1,2.3-5.7,3.9
	c-1.6,1.6-2.9,3.5-3.9,5.7c-0.9,2.2-1.4,4.5-1.4,6.9v19.2c0,0.2,0,0.5,0,0.7s0,0.5,0.1,0.7h2.7V28.1c0-4.2,1.5-7.7,4.4-10.7
	S145.8,13,150,13s7.7,1.5,10.7,4.4c2.9,2.9,4.4,6.5,4.4,10.7v11c0,0.4,0.1,0.7,0.4,1c0.3,0.3,0.6,0.4,0.9,0.4c0.4,0,0.7-0.1,1-0.4
	c0.3-0.3,0.4-0.6,0.4-1V28.1z M170.6,30.8V39c0,1.1-0.4,2.1-1.2,2.9c-0.8,0.8-1.8,1.2-2.9,1.2c-1.1,0-2.1-0.4-2.9-1.2
	c-0.8-0.8-1.2-1.8-1.2-2.9v-11c0-3.4-1.2-6.3-3.6-8.7c-2.4-2.4-5.3-3.6-8.7-3.6s-6.3,1.2-8.7,3.6c-2.4,2.4-3.6,5.3-3.6,8.7v19.2
	c0,0.2,0,0.5,0,0.7s0,0.5,0.1,0.7h32.8c2.3,0,4.2,0.8,5.8,2.4c1.6,1.6,2.4,3.5,2.4,5.8v27.4c0,2.3-0.8,4.2-2.4,5.8s-3.5,2.4-5.8,2.4
	h-41.1c-2.3,0-4.2-0.8-5.8-2.4s-2.4-3.5-2.4-5.8V56.9c0-2.3,0.8-4.2,2.4-5.8c1.6-1.6,3.5-2.4,5.8-2.4V28.1c0-2.9,0.5-5.5,1.6-8
	c1.1-2.5,2.6-4.7,4.4-6.6c1.9-1.9,4-3.3,6.6-4.4c2.5-1.1,5.1-1.6,8-1.6s5.5,0.5,8,1.6c2.5,1.1,4.7,2.6,6.6,4.4
	c1.9,1.9,3.3,4,4.4,6.6c1.1,2.5,1.6,5.1,1.6,8V30.8z"/>
<path class="st1" d="M268.1,70.8v2.8h-22.2v-2.8H268.1z M234.7,70.8v2.8h2.8v-2.8H234.7z M231.9,68.1h8.3v8.3h-8.3V68.1z
	 M268.1,56.9v2.8h-22.2v-2.8H268.1z M234.7,56.9v2.8h2.8v-2.8H234.7z M231.9,54.2h8.3v8.3h-8.3V54.2z M234.7,43.1v2.8h2.8v-2.8
	H234.7z M231.9,40.3h8.3v8.3h-8.3V40.3z M268.1,43.1v2.8h-22.2v-2.8H268.1z M259.7,16.7v12.5c0,0.8,0.3,1.4,0.8,2
	c0.5,0.5,1.2,0.8,2,0.8h10.2L259.7,16.7z M256.9,15.3h-27.8c-0.8,0-1.4,0.3-2,0.8c-0.5,0.5-0.8,1.2-0.8,2v63.9c0,0.8,0.3,1.4,0.8,2
	c0.5,0.5,1.2,0.8,2,0.8h41.7c0.8,0,1.4-0.3,2-0.8c0.5-0.5,0.8-1.2,0.8-2V34.7h-11.1c-1.6,0-2.9-0.5-3.9-1.6
	c-1.1-1.1-1.6-2.4-1.6-3.9V15.3z M258.3,12.5h1.4l16.7,19.4v50c0,1.6-0.5,2.9-1.6,3.9c-1.1,1.1-2.4,1.6-3.9,1.6h-41.7
	c-1.6,0-2.9-0.5-3.9-1.6c-1.1-1.1-1.6-2.4-1.6-3.9V18.1c0-1.5,0.5-2.8,1.6-3.9c1.1-1.1,2.4-1.6,3.9-1.6H258.3z"/>
<path class="st1" d="M319.2,36.6v8h61.6v-8H319.2z M343.3,63.4c-0.7,0-1.4,0.3-1.9,0.8c-0.5,0.5-0.8,1.2-0.8,1.9
	c0,0.7,0.3,1.4,0.8,1.9c0.5,0.5,1.2,0.8,1.9,0.8h13.4c0.7,0,1.4-0.3,1.9-0.8c0.5-0.5,0.8-1.2,0.8-1.9c0-0.7-0.3-1.4-0.8-1.9
	c-0.5-0.5-1.2-0.8-1.9-0.8H343.3z M343.3,60.7h13.4c1.5,0,2.8,0.5,3.8,1.5c1,1,1.5,2.3,1.5,3.8s-0.5,2.8-1.5,3.8
	c-1,1-2.3,1.5-3.8,1.5h-13.4c-1.5,0-2.8-0.5-3.8-1.5c-1-1-1.5-2.3-1.5-3.8s0.5-2.8,1.5-3.8C340.5,61.2,341.8,60.7,343.3,60.7z
	 M319.2,47.3v37.5h61.6V47.3H319.2z M319.8,33.9h60.4l-11.7-18.7h-37L319.8,33.9z M316.5,35.3v-1.3l13.4-21.4h40.2l13.4,21.4v53.6
	h-67V35.3z"/>
</svg>
