<?xml version="1.0" encoding="utf-8"?>
<!-- Generator: Adobe Illustrator 22.1.0, SVG Export Plug-In . SVG Version: 6.00 Build 0)  -->
<svg version="1.1" id="Layer_1" xmlns="http://www.w3.org/2000/svg" xmlns:xlink="http://www.w3.org/1999/xlink" x="0px" y="0px"
	 viewBox="0 0 100 100" style="enable-background:new 0 0 100 100;" xml:space="preserve">
<style type="text/css">
	.st0{display:none;fill:#FFFFFF;}
	.st1{fill:#CC0000;}
	.st2{display:none;fill:#005F9E;}
</style>
<path class="st0" d="M129.4,51.4c-1.5,0-2.8,0.5-3.9,1.6s-1.6,2.4-1.6,3.9v27.4c0,1.5,0.5,2.8,1.6,3.9s2.4,1.6,3.9,1.6h41.1
	c1.5,0,2.8-0.5,3.9-1.6c1.1-1.1,1.6-2.4,1.6-3.9V56.9c0-1.5-0.5-2.8-1.6-3.9c-1.1-1.1-2.4-1.6-3.9-1.6H129.4z M145.9,71.9
	c-0.9-0.6-1.5-1.4-2-2.4c-0.5-0.9-0.7-2-0.7-3.1c0-1.9,0.7-3.5,2-4.8s3-2,4.8-2s3.5,0.7,4.8,2s2,3,2,4.8c0,1.1-0.2,2.2-0.7,3.1
	s-1.2,1.7-2,2.4v5.5c0,1.1-0.4,2.1-1.2,2.9s-1.8,1.2-2.9,1.2s-2.1-0.4-2.9-1.2c-0.8-0.8-1.2-1.8-1.2-2.9L145.9,71.9L145.9,71.9z
	 M148.6,77.4c0,0.4,0.1,0.7,0.4,1c0.3,0.3,0.6,0.4,0.9,0.4c0.4,0,0.7-0.1,1-0.4s0.4-0.6,0.4-1v-7.1c0.8-0.3,1.5-0.8,2-1.5
	s0.8-1.5,0.8-2.4c0-1.1-0.4-2.1-1.2-2.9c-0.8-0.8-1.8-1.2-2.9-1.2s-2.1,0.4-2.9,1.2c-0.8,0.8-1.2,1.8-1.2,2.9c0,0.9,0.3,1.7,0.8,2.4
	s1.2,1.2,2,1.5v7.1H148.6z M167.8,28.1c0-2.5-0.5-4.8-1.4-6.9c-1-2.2-2.3-4.1-3.9-5.7c-1.6-1.6-3.5-2.9-5.7-3.9
	c-2.2-0.9-4.5-1.4-6.9-1.4s-4.8,0.5-6.9,1.4c-2.2,1-4.1,2.3-5.7,3.9c-1.6,1.6-2.9,3.5-3.9,5.7c-0.9,2.2-1.4,4.5-1.4,6.9v19.2
	c0,0.2,0,0.5,0,0.7s0,0.5,0.1,0.7h2.7V28.1c0-4.2,1.5-7.7,4.4-10.7S145.8,13,150,13s7.7,1.5,10.7,4.4c2.9,2.9,4.4,6.5,4.4,10.7v11
	c0,0.4,0.1,0.7,0.4,1c0.3,0.3,0.6,0.4,0.9,0.4c0.4,0,0.7-0.1,1-0.4c0.3-0.3,0.4-0.6,0.4-1L167.8,28.1L167.8,28.1z M170.6,30.8V39
	c0,1.1-0.4,2.1-1.2,2.9c-0.8,0.8-1.8,1.2-2.9,1.2c-1.1,0-2.1-0.4-2.9-1.2c-0.8-0.8-1.2-1.8-1.2-2.9V28c0-3.4-1.2-6.3-3.6-8.7
	c-2.4-2.4-5.3-3.6-8.7-3.6s-6.3,1.2-8.7,3.6s-3.6,5.3-3.6,8.7v19.2c0,0.2,0,0.5,0,0.7s0,0.5,0.1,0.7h32.8c2.3,0,4.2,0.8,5.8,2.4
	c1.6,1.6,2.4,3.5,2.4,5.8v27.4c0,2.3-0.8,4.2-2.4,5.8s-3.5,2.4-5.8,2.4h-41.1c-2.3,0-4.2-0.8-5.8-2.4s-2.4-3.5-2.4-5.8V56.9
	c0-2.3,0.8-4.2,2.4-5.8s3.5-2.4,5.8-2.4V28.1c0-2.9,0.5-5.5,1.6-8s2.6-4.7,4.4-6.6c1.9-1.9,4-3.3,6.6-4.4c2.5-1.1,5.1-1.6,8-1.6
	s5.5,0.5,8,1.6s4.7,2.6,6.6,4.4c1.9,1.9,3.3,4,4.4,6.6c1.1,2.5,1.6,5.1,1.6,8v2.7H170.6z"/>
<path class="st0" d="M268.1,70.8v2.8h-22.2v-2.8H268.1z M234.7,70.8v2.8h2.8v-2.8H234.7z M231.9,68.1h8.3v8.3h-8.3V68.1z
	 M268.1,56.9v2.8h-22.2v-2.8H268.1z M234.7,56.9v2.8h2.8v-2.8H234.7z M231.9,54.2h8.3v8.3h-8.3V54.2z M234.7,43.1v2.8h2.8v-2.8
	H234.7z M231.9,40.3h8.3v8.3h-8.3V40.3z M268.1,43.1v2.8h-22.2v-2.8H268.1z M259.7,16.7v12.5c0,0.8,0.3,1.4,0.8,2
	c0.5,0.5,1.2,0.8,2,0.8h10.2L259.7,16.7z M256.9,15.3h-27.8c-0.8,0-1.4,0.3-2,0.8c-0.5,0.5-0.8,1.2-0.8,2V82c0,0.8,0.3,1.4,0.8,2
	c0.5,0.5,1.2,0.8,2,0.8h41.7c0.8,0,1.4-0.3,2-0.8c0.5-0.5,0.8-1.2,0.8-2V34.7h-11.1c-1.6,0-2.9-0.5-3.9-1.6
	c-1.1-1.1-1.6-2.4-1.6-3.9L256.9,15.3L256.9,15.3z M258.3,12.5h1.4l16.7,19.4v50c0,1.6-0.5,2.9-1.6,3.9c-1.1,1.1-2.4,1.6-3.9,1.6
	h-41.7c-1.6,0-2.9-0.5-3.9-1.6c-1.1-1.1-1.6-2.4-1.6-3.9V18.1c0-1.5,0.5-2.8,1.6-3.9s2.4-1.6,3.9-1.6h29.1V12.5z"/>
<path class="st0" d="M319.2,36.6v8h61.6v-8H319.2z M343.3,63.4c-0.7,0-1.4,0.3-1.9,0.8c-0.5,0.5-0.8,1.2-0.8,1.9
	c0,0.7,0.3,1.4,0.8,1.9s1.2,0.8,1.9,0.8h13.4c0.7,0,1.4-0.3,1.9-0.8s0.8-1.2,0.8-1.9c0-0.7-0.3-1.4-0.8-1.9s-1.2-0.8-1.9-0.8
	C356.7,63.4,343.3,63.4,343.3,63.4z M343.3,60.7h13.4c1.5,0,2.8,0.5,3.8,1.5s1.5,2.3,1.5,3.8s-0.5,2.8-1.5,3.8s-2.3,1.5-3.8,1.5
	h-13.4c-1.5,0-2.8-0.5-3.8-1.5S338,67.5,338,66s0.5-2.8,1.5-3.8S341.8,60.7,343.3,60.7z M319.2,47.3v37.5h61.6V47.3H319.2z
	 M319.8,33.9h60.4l-11.7-18.7h-37L319.8,33.9z M316.5,35.3V34l13.4-21.4h40.2L383.5,34v53.6h-67V35.3z"/>
<path class="st1" d="M50,85.5c-19.6,0-35.5-15.9-35.5-35.5c0-19.6,15.9-35.5,35.5-35.5c19.6,0,35.5,15.9,35.5,35.5
	C85.5,69.6,69.6,85.5,50,85.5z M50,17.5c-17.9,0-32.5,14.6-32.5,32.5c0,17.9,14.6,32.5,32.5,32.5c17.9,0,32.5-14.6,32.5-32.5
	C82.5,32.1,67.9,17.5,50,17.5z"/>
<path class="st1" d="M64.1,65.6c-0.4,0-0.8-0.1-1.1-0.4L34.8,36.9c-0.6-0.6-0.6-1.5,0-2.1c0.6-0.6,1.5-0.6,2.1,0l28.3,28.3
	c0.6,0.6,0.6,1.5,0,2.1C64.9,65.5,64.5,65.6,64.1,65.6z"/>
<path class="st1" d="M35.9,65.6c-0.4,0-0.8-0.1-1.1-0.4c-0.6-0.6-0.6-1.5,0-2.1l28.3-28.3c0.6-0.6,1.5-0.6,2.1,0
	c0.6,0.6,0.6,1.5,0,2.1L36.9,65.2C36.6,65.5,36.2,65.6,35.9,65.6z"/>
<path class="st2" d="M59.1,18.9l12.2,14.3h-9.6c-0.7,0-1.3-0.3-1.8-0.8c-0.5-0.5-0.8-1.1-0.8-1.8V18.9z M57.8,15H30.6
	c-1.4,0-2.6,0.5-3.6,1.5c-1,1-1.5,2.2-1.5,3.6v59.6c0,1.4,0.5,2.6,1.5,3.6s2.2,1.5,3.7,1.5h38.9c1.5,0,2.7-0.5,3.7-1.5
	c1-1,1.5-2.2,1.5-3.7V33.1L59.1,15H57.8z M48.7,82.4H30.6c-0.7,0-1.3-0.3-1.8-0.8c-0.5-0.5-0.8-1.1-0.8-1.8V20.2
	c0-0.7,0.3-1.3,0.8-1.8c0.5-0.5,1.1-0.8,1.8-0.8h25.9v13c0,1.5,0.5,2.7,1.5,3.7c1,1,2.2,1.5,3.7,1.5H72v44.1c0,0.7-0.3,1.3-0.8,1.8
	c-0.5,0.5-1.1,0.8-1.8,0.8H51.3V56.5l8.4,8.4l1.9-1.9L50,51.3L38.3,63l1.9,1.9l8.4-8.4V82.4z"/>
</svg>
