<?xml version="1.0" encoding="utf-8"?>
<!-- Generator: Adobe Illustrator 21.1.0, SVG Export Plug-In . SVG Version: 6.00 Build 0)  -->
<svg version="1.1" id="Layer_1" xmlns="http://www.w3.org/2000/svg" xmlns:xlink="http://www.w3.org/1999/xlink" x="0px" y="0px"
	 viewBox="0 0 163 100" style="enable-background:new 0 0 163 100;" xml:space="preserve">
<style type="text/css">
	.st0{fill:#0074AE;}
	.st1{fill:#4B5865;}
</style>
<path class="st0" d="M93.9,91c-0.4,0-0.8-0.1-1.2-0.2l-11.3-4.8l-11.3,4.8c-1.4,0.6-3,0.1-3.7-1.2l-6.2-10.3l-11.9-2.8
	c-1.5-0.3-2.4-1.7-2.3-3.2l1.1-12.2l-8-9.1c-1-1.1-1-2.8,0-3.9l8-9.2l-1.1-12c-0.1-1.5,0.9-2.9,2.3-3.2L60.3,21l6.1-10.4
	c0.8-1.3,2.4-1.8,3.8-1.2l11.3,4.8l11.3-4.8c1.4-0.6,3-0.1,3.8,1.2l6.1,10.4l11.8,2.6c1.5,0.3,2.5,1.7,2.3,3.2l-1.1,12.2l8,9.1
	c1,1.1,1,2.8,0,4l-8,9.1l1.1,12.2c0.1,1.5-0.9,2.9-2.3,3.2L102.7,79l-6.1,10.4C96,90.4,95,91,93.9,91z M52.4,71.2l10.6,2.5
	c0.8,0.2,1.5,0.7,1.9,1.4l5.5,9.2l10-4.3c0.7-0.3,1.6-0.3,2.3,0l10,4.2l5.5-9.3c0.4-0.7,1.1-1.2,1.9-1.4l10.5-2.3l-1-10.8
	c-0.1-0.8,0.2-1.6,0.7-2.2l7.1-8.1l-7.1-8.1c-0.5-0.6-0.8-1.4-0.7-2.2l1-10.8l-10.5-2.3c-0.8-0.2-1.5-0.7-1.9-1.4l-5.5-9.3l-10,4.2
	c-0.8,0.3-1.6,0.3-2.3,0l-10-4.2l-5.5,9.3c-0.4,0.7-1.1,1.2-1.9,1.4l-10.5,2.3l1,10.6c0.1,0.8-0.2,1.6-0.7,2.2L45.5,50l7.1,8.1
	c0.5,0.6,0.8,1.4,0.7,2.2L52.4,71.2z"/>
<circle class="st1" cx="81.5" cy="64" r="4.4"/>
<path class="st1" d="M81.5,56.3c-1.9,0-3.5-1.6-3.5-3.5V33.5c0-1.9,1.6-3.5,3.5-3.5c1.9,0,3.5,1.6,3.5,3.5v19.2
	C85,54.7,83.4,56.3,81.5,56.3z"/>
</svg>
