<?xml version="1.0" encoding="utf-8"?>
<!-- Generator: Adobe Illustrator 21.1.0, SVG Export Plug-In . SVG Version: 6.00 Build 0)  -->
<svg version="1.1" id="Layer_1" xmlns="http://www.w3.org/2000/svg" xmlns:xlink="http://www.w3.org/1999/xlink" x="0px" y="0px"
	 viewBox="0 0 163 100" style="enable-background:new 0 0 163 100;" xml:space="preserve">
<style type="text/css">
	.st0{fill:#4B5865;}
	.st1{fill:#0074AE;}
</style>
<path class="st0" d="M88.8,62.3C83.1,56.7,76,57.6,73,58.4c1.1-6.5-3.2-12.8-4.6-14.7C68,43.3,67.6,43,67,42.9
	c-0.6-0.1-1.1,0.1-1.5,0.4c-0.9,0.7-1.1,2-0.4,2.9c1.5,2,6.2,9.1,2.6,14.6c-0.6,0.9-0.5,2,0.3,2.7l0,0c0.8,0.7,2,0.8,2.8,0.2
	c2.3-1.7,10-3.8,15.1,1.4c0.4,0.4,0.9,0.6,1.5,0.6c0.5,0,1.1-0.2,1.5-0.6C89.6,64.4,89.6,63.1,88.8,62.3z"/>
<path class="st1" d="M115.2,37.6l2.4-2.4c3.2-3.2,3.2-8.4,0-11.6c-0.6-0.6-1.3-1.1-2.1-1.5c2.2-3.2,1.9-7.6-0.9-10.5
	c-2.9-2.9-7.5-3.2-10.7-0.8c-0.5-1.1-1.3-2-2.3-2.7C98.3,5.7,93.5,6,90.6,9L68.4,31.2l0.4-5.3l0-0.2c0.1-8.1-6.4-12.1-11-12.3
	c-3.8-0.2-5.8,2-6,4.2l-3.4,30.8c-0.2,1-1.1,6.5,0.5,13l-8,8c-0.5,0.5-0.8,1.3-0.8,2c0,0.8,0.3,1.5,0.8,2c1.1,1.1,3,1.1,4.1,0
	l6.1-6.1c0.4,0.9,0.9,1.7,1.4,2.5c0.1,0.2,0.2,0.3,0.4,0.5c1,1,2.4,1.1,3.6,0.4c0.7-0.4,1.1-1.1,1.3-1.8c0.2-0.8,0-1.5-0.4-2.2
	c-5.1-8-3.3-17.2-3.2-17.3c0-0.1,0-0.2,0.1-0.3l3.3-30.1c0.5,0,1.2,0.2,2.1,0.6c1.1,0.5,3.5,2.2,3.5,5.8l-0.9,11.3
	c0,0.5,0,1,0.2,1.4c0.3,0.7,1.6,2.9,5,1.7c0.4-0.1,0.8-0.4,1.1-0.7L94.7,13c0.9-0.9,2.4-1,3.4-0.3c0.6,0.4,0.9,1.1,1,1.8
	c0,0.6-0.1,1.1-0.5,1.6L81.6,33c-1.1,1.1-1.1,3,0,4.1c0.6,0.6,1.3,0.9,2.1,0.9c0.8,0,1.5-0.3,2-0.8l16.7-16.7
	c0.2-0.2,0.4-0.4,0.6-0.6l4.1-4.1c0.9-0.9,2.5-0.9,3.4,0c0.9,0.9,0.9,2.5,0,3.4l-20,20c-0.5,0.5-0.8,1.3-0.8,2c0,0.8,0.3,1.5,0.8,2
	c0.5,0.5,1.3,0.9,2,0.9c0,0,0,0,0,0c0.8,0,1.5-0.3,2-0.8l15.6-15.6c0.9-0.9,2.5-0.9,3.4,0c0.5,0.5,0.7,1.1,0.7,1.7s-0.3,1.3-0.7,1.7
	L96.9,47.8c-0.1,0.1-0.1,0.1-0.1,0.1l-2.4,2.4c-0.5,0.5-0.8,1.3-0.8,2c0,0.8,0.3,1.5,0.8,2c1.1,1.1,3,1.1,4.1,0l11.2-11.2
	c0.9-0.9,2.5-0.9,3.4,0c0.5,0.5,0.7,1.1,0.7,1.7s-0.3,1.3-0.7,1.7L86.6,73.1c-5.6,5.6-12.9,6.4-20,2.3c-0.7-0.4-1.4-0.5-2.2-0.3
	c-0.7,0.2-1.4,0.7-1.7,1.3c-0.7,1.1-0.5,2.6,0.5,3.5c0.2,0.2,0.4,0.3,0.6,0.5c0.9,0.5,1.9,1,2.9,1.4l-6.7,6.7
	c-0.5,0.5-0.8,1.3-0.8,2c0,0.8,0.3,1.5,0.8,2c0.6,0.6,1.3,0.8,2,0.8s1.5-0.3,2-0.8l9-9c6.5,0.8,12.7-1.5,17.6-6.4l26.6-26.6
	c1.5-1.5,2.4-3.6,2.4-5.8c0-2.2-0.9-4.2-2.4-5.8C116.6,38.5,115.9,38,115.2,37.6z"/>
</svg>
