<?xml version="1.0" encoding="utf-8"?>
<!-- Generator: Adobe Illustrator 21.1.0, SVG Export Plug-In . SVG Version: 6.00 Build 0)  -->
<svg version="1.1" id="Layer_1" xmlns="http://www.w3.org/2000/svg" xmlns:xlink="http://www.w3.org/1999/xlink" x="0px" y="0px"
	 viewBox="0 0 163 100" style="enable-background:new 0 0 163 100;" xml:space="preserve">
<style type="text/css">
	.st0{fill:#0074AE;}
	.st1{fill:#4B5865;}
</style>
<path class="st0" d="M130.4,15.2H33.2c-1.5,0-2.7,1.2-2.7,0.7v66.3c0,3.5,1.2,4.7,2.7,4.7h97.2c1.5,0,2.7-1.2,2.7-4.7V15.8
	C133,16.4,131.9,15.2,130.4,15.2z M127.7,81.5H35.9V69.9h91.8V81.5z M127.7,64.5H35.9v-44h91.8V64.5z M64.4,61.1
	c0.4,0.3,0.9,0.4,1.4,0.4c0.4,0,0.8-0.1,1.2-0.3L99,44.9c0.9-0.5,1.5-1.4,1.5-2.4c0-1-0.6-1.9-1.5-2.4L67,23.8
	c-0.8-0.4-1.8-0.4-2.6,0.1c-0.8,0.5-1.3,1.4-1.3,2.3v32.6C63.2,59.7,63.6,60.6,64.4,61.1z M68.5,30.6l23.4,11.9L68.5,54.4V30.6z"/>
<path class="st1" d="M119.8,77.2H43.2c-0.8,0-1.5-0.7-1.5-1.5s0.7-1.5,1.5-1.5h76.5c0.8,0,1.5,0.7,1.5,1.5S120.6,77.2,119.8,77.2z"
	/>
<circle class="st1" cx="53.5" cy="75.7" r="3.6"/>
</svg>
