<?xml version="1.0" encoding="utf-8"?>
<!-- Generator: Adobe Illustrator 19.1.0, SVG Export Plug-In . SVG Version: 6.00 Build 0)  -->
<svg version="1.1" id="Layer_1" xmlns="http://www.w3.org/2000/svg" xmlns:xlink="http://www.w3.org/1999/xlink" x="0px" y="0px"
	 viewBox="0 0 40 40" style="enable-background:new 0 0 40 40;" xml:space="preserve">
<style type="text/css">
	.st0{fill:#FFFFFF;}
</style>
<path class="st0" d="M22.3,11.4c-3.4,0-6.3,2.8-6.3,6.2c0,1.3,0.4,2.5,1,3.4l-5.7,5.7l1.8,1.8l5.7-5.7c1,0.7,2.2,1,3.4,1
	c3.4,0,6.2-2.8,6.2-6.2S25.8,11.4,22.3,11.4z M22.3,21.4c-2.1,0-3.8-1.7-3.8-3.7s1.7-3.7,3.8-3.7c2.1,0,3.7,1.7,3.7,3.7
	S24.4,21.4,22.3,21.4z"/>
</svg>
