<?xml version="1.0" encoding="utf-8"?>
<!-- Generator: Adobe Illustrator 22.1.0, SVG Export Plug-In . SVG Version: 6.00 Build 0)  -->
<svg version="1.1" id="Layer_1" xmlns="http://www.w3.org/2000/svg" xmlns:xlink="http://www.w3.org/1999/xlink" x="0px" y="0px"
	 viewBox="0 0 100 100" style="enable-background:new 0 0 100 100;" xml:space="preserve">
<style type="text/css">
	.st0{display:none;fill:#FFFFFF;}
	.st1{fill:#005F9E;}
</style>
<path class="st0" d="M129.4,51.4c-1.5,0-2.8,0.5-3.9,1.6s-1.6,2.4-1.6,3.9v27.4c0,1.5,0.5,2.8,1.6,3.9s2.4,1.6,3.9,1.6h41.1
	c1.5,0,2.8-0.5,3.9-1.6c1.1-1.1,1.6-2.4,1.6-3.9V56.9c0-1.5-0.5-2.8-1.6-3.9c-1.1-1.1-2.4-1.6-3.9-1.6H129.4z M145.9,71.9
	c-0.9-0.6-1.5-1.4-2-2.4c-0.5-0.9-0.7-2-0.7-3.1c0-1.9,0.7-3.5,2-4.8s3-2,4.8-2s3.5,0.7,4.8,2s2,3,2,4.8c0,1.1-0.2,2.2-0.7,3.1
	s-1.2,1.7-2,2.4v5.5c0,1.1-0.4,2.1-1.2,2.9s-1.8,1.2-2.9,1.2s-2.1-0.4-2.9-1.2c-0.8-0.8-1.2-1.8-1.2-2.9L145.9,71.9L145.9,71.9z
	 M148.6,77.4c0,0.4,0.1,0.7,0.4,1c0.3,0.3,0.6,0.4,0.9,0.4c0.4,0,0.7-0.1,1-0.4s0.4-0.6,0.4-1v-7.1c0.8-0.3,1.5-0.8,2-1.5
	s0.8-1.5,0.8-2.4c0-1.1-0.4-2.1-1.2-2.9c-0.8-0.8-1.8-1.2-2.9-1.2s-2.1,0.4-2.9,1.2c-0.8,0.8-1.2,1.8-1.2,2.9c0,0.9,0.3,1.7,0.8,2.4
	s1.2,1.2,2,1.5v7.1H148.6z M167.8,28.1c0-2.5-0.5-4.8-1.4-6.9c-1-2.2-2.3-4.1-3.9-5.7c-1.6-1.6-3.5-2.9-5.7-3.9
	c-2.2-0.9-4.5-1.4-6.9-1.4s-4.8,0.5-6.9,1.4c-2.2,1-4.1,2.3-5.7,3.9c-1.6,1.6-2.9,3.5-3.9,5.7c-0.9,2.2-1.4,4.5-1.4,6.9v19.2
	c0,0.2,0,0.5,0,0.7s0,0.5,0.1,0.7h2.7V28.1c0-4.2,1.5-7.7,4.4-10.7S145.8,13,150,13s7.7,1.5,10.7,4.4c2.9,2.9,4.4,6.5,4.4,10.7v11
	c0,0.4,0.1,0.7,0.4,1c0.3,0.3,0.6,0.4,0.9,0.4c0.4,0,0.7-0.1,1-0.4c0.3-0.3,0.4-0.6,0.4-1L167.8,28.1L167.8,28.1z M170.6,30.8V39
	c0,1.1-0.4,2.1-1.2,2.9c-0.8,0.8-1.8,1.2-2.9,1.2c-1.1,0-2.1-0.4-2.9-1.2c-0.8-0.8-1.2-1.8-1.2-2.9V28c0-3.4-1.2-6.3-3.6-8.7
	c-2.4-2.4-5.3-3.6-8.7-3.6s-6.3,1.2-8.7,3.6s-3.6,5.3-3.6,8.7v19.2c0,0.2,0,0.5,0,0.7s0,0.5,0.1,0.7h32.8c2.3,0,4.2,0.8,5.8,2.4
	c1.6,1.6,2.4,3.5,2.4,5.8v27.4c0,2.3-0.8,4.2-2.4,5.8s-3.5,2.4-5.8,2.4h-41.1c-2.3,0-4.2-0.8-5.8-2.4s-2.4-3.5-2.4-5.8V56.9
	c0-2.3,0.8-4.2,2.4-5.8s3.5-2.4,5.8-2.4V28.1c0-2.9,0.5-5.5,1.6-8s2.6-4.7,4.4-6.6c1.9-1.9,4-3.3,6.6-4.4c2.5-1.1,5.1-1.6,8-1.6
	s5.5,0.5,8,1.6s4.7,2.6,6.6,4.4c1.9,1.9,3.3,4,4.4,6.6c1.1,2.5,1.6,5.1,1.6,8v2.7C170.8,30.8,170.6,30.8,170.6,30.8z"/>
<path class="st0" d="M268.1,70.8v2.8h-22.2v-2.8H268.1z M234.7,70.8v2.8h2.8v-2.8H234.7z M231.9,68.1h8.3v8.3h-8.3V68.1z
	 M268.1,56.9v2.8h-22.2v-2.8H268.1z M234.7,56.9v2.8h2.8v-2.8H234.7z M231.9,54.2h8.3v8.3h-8.3V54.2z M234.7,43.1v2.8h2.8v-2.8
	H234.7z M231.9,40.3h8.3v8.3h-8.3V40.3z M268.1,43.1v2.8h-22.2v-2.8H268.1z M259.7,16.7v12.5c0,0.8,0.3,1.4,0.8,2
	c0.5,0.5,1.2,0.8,2,0.8h10.2L259.7,16.7z M256.9,15.3h-27.8c-0.8,0-1.4,0.3-2,0.8c-0.5,0.5-0.8,1.2-0.8,2V82c0,0.8,0.3,1.4,0.8,2
	c0.5,0.5,1.2,0.8,2,0.8h41.7c0.8,0,1.4-0.3,2-0.8c0.5-0.5,0.8-1.2,0.8-2V34.7h-11.1c-1.6,0-2.9-0.5-3.9-1.6
	c-1.1-1.1-1.6-2.4-1.6-3.9L256.9,15.3L256.9,15.3z M258.3,12.5h1.4l16.7,19.4v50c0,1.6-0.5,2.9-1.6,3.9c-1.1,1.1-2.4,1.6-3.9,1.6
	h-41.7c-1.6,0-2.9-0.5-3.9-1.6c-1.1-1.1-1.6-2.4-1.6-3.9V18.1c0-1.5,0.5-2.8,1.6-3.9s2.4-1.6,3.9-1.6h29.1V12.5z"/>
<path class="st0" d="M319.2,36.6v8h61.6v-8H319.2z M343.3,63.4c-0.7,0-1.4,0.3-1.9,0.8c-0.5,0.5-0.8,1.2-0.8,1.9
	c0,0.7,0.3,1.4,0.8,1.9s1.2,0.8,1.9,0.8h13.4c0.7,0,1.4-0.3,1.9-0.8s0.8-1.2,0.8-1.9c0-0.7-0.3-1.4-0.8-1.9s-1.2-0.8-1.9-0.8
	C356.7,63.4,343.3,63.4,343.3,63.4z M343.3,60.7h13.4c1.5,0,2.8,0.5,3.8,1.5s1.5,2.3,1.5,3.8s-0.5,2.8-1.5,3.8s-2.3,1.5-3.8,1.5
	h-13.4c-1.5,0-2.8-0.5-3.8-1.5S338,67.5,338,66s0.5-2.8,1.5-3.8S341.8,60.7,343.3,60.7z M319.2,47.3v37.5h61.6V47.3H319.2z
	 M319.8,33.9h60.4l-11.7-18.7h-37L319.8,33.9z M316.5,35.3V34l13.4-21.4h40.2L383.5,34v53.6h-67V35.3z"/>
<path class="st1" d="M50,15c-0.2,0-0.4,0-0.7,0c-0.2,0-0.4,0-0.7,0v1.5h-0.2v15.3h3v-14c4.3,0.2,8.3,1.2,12,3c3.7,1.8,7,4.1,9.7,6.9
	c2.8,3,5.1,6.4,6.7,10.2c1.6,3.8,2.4,7.9,2.4,12.2c0,4.5-0.8,8.7-2.5,12.6c-1.7,3.9-4,7.3-6.8,10.3c-3,2.8-6.4,5.1-10.3,6.8
	c-3.9,1.7-8.1,2.5-12.6,2.5s-8.7-0.8-12.6-2.5c-3.9-1.7-7.3-4-10.3-6.8c-2.8-3-5.1-6.4-6.8-10.3c-1.7-3.9-2.5-8.1-2.5-12.6
	c0-2.2,0.2-4.4,0.7-6.5c0.4-2.1,1-4.1,1.8-6c0.9-2,1.9-3.8,3-5.5c1.2-1.7,2.4-3.3,3.9-4.8l-2-2c-1.5,1.6-2.9,3.4-4.2,5.3
	c-1.3,1.9-2.3,3.8-3.2,5.9c-1,2.1-1.7,4.3-2.1,6.6C15.2,45.2,15,47.6,15,50c0,4.8,0.9,9.4,2.7,13.6s4.3,8,7.5,11.2
	c3.2,3.2,6.9,5.7,11.2,7.5C40.6,84.1,45.2,85,50,85s9.4-0.9,13.6-2.7c4.3-1.8,8-4.3,11.2-7.5c3.2-3.2,5.7-6.9,7.5-11.2
	S85,54.8,85,50s-0.9-9.4-2.7-13.6s-4.3-8-7.5-11.2c-3.2-3.2-6.9-5.7-11.2-7.5C59.4,15.9,54.8,15,50,15z M46.5,52.5
	C46.5,52.5,46.6,52.5,46.5,52.5c0.1,0.1,0.2,0.2,0.2,0.2c0.4,0.4,0.9,0.8,1.5,1.2s1.2,0.5,1.8,0.5c0.5,0,1.1-0.1,1.6-0.3
	s1-0.5,1.3-1c0.4-0.3,0.8-0.8,1-1.3c0.2-0.5,0.3-1.1,0.3-1.6c0-0.7-0.1-1.2-0.4-1.7c-0.3-0.5-0.6-1-1.1-1.4c0,0,0-0.1-0.1-0.2
	c-0.1-0.1-0.1-0.2-0.2-0.2l-17.1-13c-0.2-0.2-0.5-0.3-0.8-0.3c-0.3,0-0.6,0.1-0.8,0.3c-0.3,0.2-0.5,0.5-0.6,0.9
	c-0.1,0.4,0,0.7,0.2,1.1L46.5,52.5z"/>
</svg>
