<?xml version="1.0" encoding="utf-8"?>
<!-- Generator: Adobe Illustrator 19.1.0, SVG Export Plug-In . SVG Version: 6.00 Build 0)  -->
<svg version="1.1" id="Layer_1" xmlns="http://www.w3.org/2000/svg" xmlns:xlink="http://www.w3.org/1999/xlink" x="0px" y="0px"
	 viewBox="0 0 60 60" style="enable-background:new 0 0 60 60;" xml:space="preserve">
<style type="text/css">
	.st0{fill:#005F9E;}
	.st1{fill:#EEEEEE;}
	.st2{fill:#3B4652;}
</style>
<g>
	<path class="st0" d="M9.4,19.4c0.5,0.2,1,0.3,1.5,0.5c5.6,1.6,11.3,2.3,17.1,2.3c2.6,0,5.1,0.7,7.6,1.2c-0.5,0.5-1,0.9-1.6,1.5
		c0.2,0.1,0.4,0.1,0.7,0.1c0.9,0,1.6-0.5,2.3-0.9c0.2,0.5,0.6,0.8,1.1,0.8c0.2,0,0.4,0,0.6-0.1c0.3-0.1,0.5-0.2,0.7-0.2
		c0.6,0,1,0.3,1.6,0.7c-0.2,0.2-0.4,0.3-0.5,0.3c1.6,1.2,2.3,2.8,1.5,5c0.7-0.1,1.3-0.1,1.7-0.4c0.6-0.3,1.1-0.9,1.7-1.3
		c0.1-0.1,0.2-0.1,0.2-0.2c-0.2-1.3,0.8-1,1.4-1.1c0.5-0.1,0.8-0.3,0.8-0.9c-0.1-0.7,0.8-1.5,1.7-1.7c0.3-0.1,0.6-0.1,0.9-0.2
		c1.1-0.2,1.7-0.8,1.8-1.9c0-0.3,0.1-0.5,0.2-0.8c0.1-0.5,0.4-0.9,1-0.9c0,0,0,0,0.1,0c0.5,0,0.4,0.5,0.6,0.8
		c0.3,0.4,0.5,0.9,0.8,1.3c0.4,0.5,0.3,0.8-0.1,1.2c-0.3,0.2-0.6,0.5-0.9,0.7c-1.2,0.9-1.3,1.8-0.3,3.1c-0.8,0.7-1.5,1.3-2.2,2
		c-0.2,0.2-0.4,0.6-0.5,0.9c-0.2,0.8-0.4,1.6-1.2,2c-0.2,0.1-0.2,0.9-0.1,1.4c0.1,0.5,0.5,1,0.7,1.6c0.2,0.7,0,1.2-0.5,1.7
		c-1.1,1.1-2.2,2.2-3.2,3.3c-0.8,0.9-0.8,2-0.4,3c0.3,0.8,0.8,1.5,1.1,2.3c0.3,0.7,0.7,1.5,0.9,2.3c0.1,0.3-0.3,0.8-0.5,1.1
		c-0.3-0.2-0.8-0.3-1-0.5c-0.8-1-1.8-2-1.8-3.5c0-0.6-1-1.1-1.7-1.1c-0.2,0-0.3,0-0.5,0.1C42.5,45,42.3,45,42.1,45
		c-0.2,0-0.4-0.1-0.6-0.2c-0.5-0.2-1-0.3-1.4-0.3c-0.7,0-1.3,0.1-2,0.3c-0.2,0-0.3,0.4-0.3,0.7c0,0.2,0.1,0.4,0.2,0.7
		c-1.5-0.1-2.9-0.2-4.4-0.3c-0.1,0-0.1,0-0.2,0c-1.4,0-3.5,1.3-4,2.6c-0.2,0.6-0.2,1.2-0.3,1.9c-0.9-0.2-1.9-0.3-2.3-1.6
		c-0.3-0.9-0.9-1.6-1.4-2.4c-0.4-0.5-0.8-0.8-1.1-0.8c-0.4,0-0.8,0.3-1.2,0.9c-0.7-0.5-1.4-0.9-1.8-1.8c-0.3-0.7-0.8-1.3-1.3-1.7
		c-0.3-0.2-0.7-0.3-1-0.3c-0.2,0-0.4,0-0.6,0.1C17.9,42.9,17.4,43,17,43c-0.8,0-1.5-0.3-2.3-0.5c-0.7-0.3-1.2-0.7-1.8-1.1
		c-0.9-0.6-1.9-1-3-1.2c-0.2,0-0.6-0.2-0.6-0.3C9.1,38.6,8,38,7.1,37.2c-0.3-0.3-0.6-0.6-0.7-1c-0.5-2.2-1-4.4-1.4-6.6
		C5,29.4,5.1,29,5.2,28.7c0.1-0.3,0.3-0.6,0.3-0.8c0.1-1.3,0.7-2.4,1.1-3.6c0.5-1.4,0.7-2.9,1.1-4.3c0.4,0.2,0.9,0.5,1.5,0.9
		C9.3,20.3,9.4,19.9,9.4,19.4 M10.2,17l-1.7,1l-3.3,1.4c-0.1,0.5-0.2,0.9-0.3,1.4c-0.2,0.9-0.4,1.8-0.7,2.6
		c-0.1,0.2-0.2,0.5-0.3,0.7c-0.4,1-0.9,2-1,3.4c-0.1,0.2-0.2,0.4-0.2,0.6l0,0.1c-0.1,0.4-0.3,1.1-0.2,2c0.5,2.7,1,4.7,1.4,6.6
		c0.2,0.9,0.8,1.7,1.5,2.4c0.2,0.1,0.4,0.3,0.5,0.4c0.5,0.4,0.8,0.7,0.9,0.8c0.3,1.4,1.6,2.2,2.8,2.3c0.6,0.1,1.2,0.3,1.9,0.7
		l0.2,0.1c0.6,0.4,1.3,0.9,2.1,1.2c0.9,0.4,2,0.7,3.2,0.7c0.6,0,1.1-0.1,1.7-0.2c0.1,0.1,0.2,0.3,0.2,0.4c0.6,1.4,1.6,2.1,2.3,2.6
		c0.1,0.1,0.2,0.1,0.3,0.2l2.1-0.3c0.3,0.4,0.7,0.9,0.8,1.3c0.8,2.6,2.9,3,3.8,3.2l0.2,0.1l3.1-2.1c0-0.3,0.1-0.5,0.1-0.8
		c0-0.2,0-0.4,0.1-0.5c0.3-0.4,1.2-1,1.7-1c1,0.1,2,0.2,3,0.2l1.4,0.1l1.2-1.5c0.4-0.1,0.8-0.2,1.1-0.2c0.2,0,0.4,0,0.4,0.1
		c0.4,0.2,1,0.4,1.7,0.4c0.1,0,0.3,0,0.4,0c0.4,1.4,1.2,2.4,1.9,3.1l0.3,0.3c0.5,0.6,1.2,0.9,1.6,1.1c0,0,0.1,0,0.1,0.1l3.5-1.2
		c0,0,0-0.1,0.1-0.1c0.3-0.5,0.8-1.4,0.6-2.6c-0.2-1-0.6-1.8-0.9-2.5l-0.1-0.2c-0.2-0.4-0.4-0.8-0.5-1.1c-0.2-0.4-0.4-0.7-0.5-1
		c0-0.1-0.1-0.4,0-0.5c1-1.1,2.1-2.2,3-3.2c1.7-1.7,1.4-3.4,1.1-4.3c-0.1-0.4-0.3-0.7-0.4-1c0,0,0,0,0,0c0.6-0.8,0.9-1.6,1-2.2
		l0.1-0.2c0.4-0.4,0.9-0.8,1.3-1.2c0.2-0.2,0.4-0.4,0.7-0.6l0.2-3c0.2-0.2,0.4-0.4,0.6-0.5c0.1-0.1,0.2-0.1,0.2-0.2
		c0.8-0.6,1.2-1.4,1.3-2.3c0.1-0.6,0-1.5-0.8-2.4c-0.1-0.1-0.2-0.3-0.3-0.5c0-0.1-0.1-0.2-0.1-0.3c-0.5-1.6-1.8-2.2-2.9-2.2
		c-0.1,0-0.2,0-0.3,0c-1.6,0.1-2.8,1.1-3.2,2.7c-0.1,0.3-0.2,0.7-0.2,1l-0.1,0c-0.3,0-0.5,0.1-0.7,0.2c-1.4,0.4-2.8,1.4-3.3,2.8
		c-0.4,0.1-0.9,0.3-1.4,0.7c-0.4-0.7-0.9-1.4-1.7-2.1l0-0.7l-0.1,0c-0.7-0.5-1.6-1.1-2.9-1.1c-0.6,0-1.1,0.1-1.7,0.4
		c0,0,0.2-0.1,0.4-0.1c0.6,0,1.1,0.4,1.2,0.6l-2.8-1L36.2,21c-0.5-0.1-1-0.2-1.5-0.3c-2.1-0.5-4.3-0.9-6.6-0.9
		c-5.8,0-11.3-0.8-16.4-2.2c-0.3-0.1-0.6-0.2-1-0.3L10.2,17L10.2,17z"/>
</g>
<g>
	<path class="st1" d="M41,18.3c0,6.1-11,21-11,21s-11-14.9-11-21s4.9-11,11-11S41,12.2,41,18.3z"/>
	<path class="st2" d="M30,9.8c4.7,0,8.5,3.8,8.5,8.5c0,3.2-4.6,11-8.5,16.7c-3.9-5.7-8.5-13.4-8.5-16.7C21.5,13.6,25.3,9.8,30,9.8
		 M30,7.3c-6.1,0-11,4.9-11,11s11,21,11,21s11-14.9,11-21S36.1,7.3,30,7.3L30,7.3z"/>
</g>
<path class="st2" d="M30,24.2c-3.2,0-5.8-2.6-5.8-5.8s2.6-5.8,5.8-5.8c3.2,0,5.8,2.6,5.8,5.8S33.2,24.2,30,24.2z M30,15.2
	c-1.8,0-3.2,1.5-3.2,3.2s1.5,3.2,3.2,3.2s3.3-1.5,3.3-3.2S31.8,15.2,30,15.2z"/>
</svg>
