<?xml version="1.0" encoding="utf-8"?>
<!-- Generator: Adobe Illustrator 22.1.0, SVG Export Plug-In . SVG Version: 6.00 Build 0)  -->
<svg version="1.1" id="Layer_1" xmlns="http://www.w3.org/2000/svg" xmlns:xlink="http://www.w3.org/1999/xlink" x="0px" y="0px"
	 viewBox="0 0 40 20" style="enable-background:new 0 0 40 20;" xml:space="preserve">
<style type="text/css">
	.st0{fill:#FFFFFF;}
</style>
<path class="st0" d="M0.4,6c0.3-0.3,0.6-0.4,1-0.4s0.8,0.1,1,0.4l5,4.9l5-4.9c0.4-0.3,0.7-0.4,1-0.4s0.7,0.1,1,0.4
	C14.8,6.3,15,6.7,15,7.1c0,0.4-0.2,0.8-0.4,1.1c-0.2,0.1-0.5,0.5-1.2,1.1c-0.7,0.6-1.3,1.3-2,1.9c-0.7,0.7-1.4,1.4-1.9,1.9
	c-0.6,0.5-0.9,0.8-0.9,0.8c-0.1,0.1-0.3,0.2-0.4,0.3c-0.2,0.1-0.4,0.2-0.5,0.2s-0.4-0.1-0.5-0.2c-0.1-0.1-0.3-0.2-0.4-0.3
	c0,0-0.3-0.3-0.9-0.8s-1.3-1.2-2-1.9c-0.8-0.7-1.5-1.3-2.2-1.9c-0.7-0.6-1-1-1.2-1.1C0.2,7.8,0,7.5,0,7.1C0,6.7,0.2,6.3,0.4,6z"/>
</svg>
