<?xml version="1.0" encoding="utf-8"?>
<!-- Generator: Adobe Illustrator 22.1.0, SVG Export Plug-In . SVG Version: 6.00 Build 0)  -->
<svg version="1.1" id="Layer_1" xmlns="http://www.w3.org/2000/svg" xmlns:xlink="http://www.w3.org/1999/xlink" x="0px" y="0px"
	 viewBox="0 0 100 100" style="enable-background:new 0 0 100 100;" xml:space="preserve">
<style type="text/css">
	.st0{fill:#FFFFFF;}
</style>
<path class="st0" d="M33,74.7h8.2v-8.2H33V74.7z M36.1,69.6h2.1v2.1h-2.1V69.6z M33,61.8h8.2v-8.2H33V61.8z M36.1,56.7h2.1v2.1h-2.1
	V56.7z M33,49h8.2v-8.2H33V49z M36.1,43.8h2.1v2.1h-2.1V43.8z M45.9,46.4H67v-3.1H45.9V46.4z M59.2,15.1L59.2,15.1L30.7,15
	c-1.5,0-2.7,0.5-3.8,1.6c-1.1,1.1-1.6,2.3-1.6,3.8v59.2c0,1.5,0.5,2.7,1.6,3.8c1,1.1,2.3,1.6,3.8,1.6h38.6c1.5,0,2.8-0.5,3.8-1.6
	c1-1,1.6-2.3,1.6-3.8V33.2L59.2,15.1z M59.3,19.8L70.5,33h-9c-0.6,0-1.2-0.2-1.6-0.7c-0.5-0.5-0.7-1-0.7-1.6V19.8z M71.6,79.6
	c0,0.6-0.2,1.2-0.7,1.6c-0.5,0.5-1,0.7-1.6,0.7H30.7c-0.6,0-1.2-0.2-1.6-0.7c-0.5-0.5-0.7-1-0.7-1.6V20.4c0-0.6,0.2-1.2,0.7-1.6
	c0.5-0.5,1-0.7,1.6-0.7h25.5v12.6c0,1.5,0.5,2.8,1.6,3.8c1,1,2.3,1.6,3.8,1.6h10V79.6z M45.9,59.3H67v-3.1H45.9V59.3z M45.9,72.1H67
	v-3.1H45.9V72.1z"/>
</svg>
