<?xml version="1.0" encoding="utf-8"?>
<!-- Generator: Adobe Illustrator 21.1.0, SVG Export Plug-In . SVG Version: 6.00 Build 0)  -->
<svg version="1.1" id="Layer_1" xmlns="http://www.w3.org/2000/svg" xmlns:xlink="http://www.w3.org/1999/xlink" x="0px" y="0px"
	 viewBox="0 0 163 100" style="enable-background:new 0 0 163 100;" xml:space="preserve">
<style type="text/css">
	.st0{fill:#0074AE;}
	.st1{fill:#4B5865;}
</style>
<path class="st0" d="M114.3,69.3c0,0,1.8-0.2,2.5-0.4c5-1.2,9.1-4.6,10.9-8.9c1.5-3.6,1.4-7.6-0.2-11.3c-0.2-0.5-0.5-1-0.8-1.6
	c1.1-2,1.7-4.2,1.9-6.4c0.5-5-1.1-9.9-4.6-13.8c-3.1-3.5-7.5-5.9-12.3-6.6c-0.5-0.8-1-1.6-1.6-2.3c-2.8-3.3-6.7-5.4-11.1-5.8
	c-2.3-0.3-4.6-0.1-6.8,0.6c-2.5-2.1-7.1-3.6-11.6-3.8c-4.7-0.3-9.1,0.8-12.7,3.2c-2.1-0.6-7.5-1.5-13.3,2.3
	c-4.4,2.9-6.4,6.4-7.3,8.9c-2.8,0.4-5.3,1.4-7.6,3.1c-4.5,3.3-7.6,8.9-8.3,15c-0.6,5.6,1,10.6,4.7,14.3c4.3,4.3,11.4,6.8,19.5,6.8
	c1.1,0,2.3-0.1,3.6-0.2c0,0.1,0,0.1,0.1,0.2c0,0.1,0.1,0.2,0.1,0.3c2.3,4.8,8.1,7.8,16.8,8.6l6.5,0.2c1.2,0,2.5-0.1,3.8-0.2l5.4-0.6
	c2.5-0.3,5.1-0.8,7.6-1.4c0.5-0.1,0.9-0.4,1.2-0.8c0.3-0.4,0.4-0.9,0.3-1.4c-0.2-1-1.2-1.7-2.3-1.5c-7.2,1.5-13.6,2.2-19.2,2.1
	l-1.8-0.1c-7.9-0.5-13.1-2.7-14.9-6.6c-0.2-0.5-0.4-1-0.6-1.6c0,0,0-0.1,0-0.1c0,0,0-0.1,0-0.1c0-0.3-0.1-0.6-0.2-0.9
	c-0.4-2.7,0.3-5.6,1.9-7.7c2.4-3,6.2-4.1,10.9-3.1c2,0.4,3.9,0.5,5.8,0.1c1.1,1.4,4.1,4.6,8,6.4c-4.7,4-8.9,3.8-11.5,2.8
	c-1-0.4-2.1,0.2-2.5,1.2c-0.4,1,0.2,2.1,1.2,2.5c1.6,0.6,3.2,0.8,4.8,0.8c6.2,0,10.7-4.3,12.4-6.2c0.6,0.1,1.1,0.1,1.6,0.1
	c2.9,0,5.7-0.6,8.2-1.8c0.2,0,0.4,0.1,0.6,0c0.2,0,2-0.2,3.8,0.2c2.5,0.5,4,1.7,4.4,3.6c0.2,0.9,1,1.5,1.9,1.5c0.2,0,0.3,0,0.4-0.1
	c1-0.2,1.7-1.3,1.4-2.3c-1-4.3-4.7-5.9-7.6-6.5c1-1.1,1.9-2.4,2.5-3.7c0.4-1,0-2.1-1-2.5c-1-0.4-2.1,0-2.5,1
	c-2.5,5.6-9.2,7.4-14.3,6.6c-3.3-0.5-6.4-3.3-8-5c1.6-0.9,2.9-2.2,4-3.8c1.4-2.2,2.1-4.7,1.9-7.3c1.9-0.2,7.5-1.4,9-6.9
	c0.1-0.5,0.1-1-0.2-1.5c-0.3-0.4-0.7-0.8-1.2-0.9c-0.5-0.1-1-0.1-1.5,0.2c-0.4,0.3-0.8,0.7-0.9,1.2c-1.1,3.8-6,4.1-6.2,4.1
	c0,0-0.1,0-0.1,0c-0.3-0.6-0.6-1.1-0.9-1.6c-0.3-0.4-0.7-0.7-1.2-0.8c-0.5-0.1-1,0-1.4,0.3c-0.4,0.3-0.7,0.7-0.8,1.2
	c-0.1,0.5,0,1,0.3,1.4c1.6,2.3,1.6,5.6-0.2,8.3c-2,3-5.6,4.3-9.6,3.5c-5.8-1.2-11,0.2-14.3,4.1c-0.2,0-0.3,0-0.4,0
	c-0.8,0-8,0.3-10.2-4.7c-0.4-1-1.6-1.4-2.5-1c-0.5,0.2-0.8,0.6-1,1.1c-0.2,0.5-0.2,1,0,1.5c2.5,5.6,8.4,6.8,11.9,7
	c-0.7,1.7-1,3.5-1,5.3c-7.7,0.5-14.4-1.4-18.2-5.2c-2.6-2.6-3.7-6-3.2-10c0.5-4.6,2.8-8.8,6.2-11.3c2.8-2,6.1-2.7,9.6-2
	c0.1,0,10.3,2.1,9.9,7.8c-0.1,0.7,0.2,1.4,0.6,1.9c0.5,0.5,1.1,0.9,1.8,0.9c1.5,0.1,2.7-1,2.8-2.4c0.1-1.1,0-2.2-0.3-3.2
	c2.4-0.3,4.3-1,5.8-2.2c1.8-1.4,2.8-3.4,3-5.9c0.1-1.1-0.7-2-1.7-2.1c-0.5-0.1-1,0.1-1.4,0.4c-0.4,0.3-0.6,0.8-0.7,1.3
	c-0.1,1.4-0.7,2.5-1.6,3.3c-1.6,1.3-4,1.5-5.3,1.5h0c-3.9-4.9-11.7-6.3-12-6.4c-0.1,0-0.2,0-0.3,0c0,0,0,0,0,0
	c1-1.8,2.6-3.3,4.5-4.6c1.9-1.3,3.9-1.9,6-2c-0.1,0.9,0.2,1.8,0.9,2.4c0.5,0.4,1.1,0.6,1.7,0.6c0.8,0,1.5-0.3,2-0.9
	c3.6-4.2,8.6-4.9,12.2-4.7c2.8,0.2,4.9,0.8,6.3,1.4c-1.6,1.2-2.9,2.7-3.9,4.4c-0.4,0.6-0.5,1.3-0.3,2c0.2,0.7,0.6,1.3,1.2,1.6
	c1.3,0.7,2.9,0.3,3.6-0.9c2.2-3.7,6.6-5.8,11.1-5.3c3,0.3,5.8,1.8,7.7,4c1.9,2.2,2.7,4.9,2.4,7.6c0,0.1-1.1,7.2-7.6,8.5
	c-0.7,0.1-1.3,0.6-1.7,1.1c-0.4,0.6-0.5,1.3-0.4,2c0.3,1.2,1.3,2.1,2.6,2.1c0.2,0,0.4,0,0.5-0.1c10.1-2.1,11.7-12.6,11.7-13
	c0.1-1.1,0.1-2.3,0-3.5c2.5,0.9,4.7,2.3,6.4,4.2c2.5,2.8,3.6,6.3,3.3,9.8c-0.1,0.8-0.3,1.7-0.5,2.5c-1.4-1.1-3-2-4.6-2.6
	c-0.7-0.2-1.4-0.2-2,0.1c-0.6,0.3-1.1,0.8-1.3,1.5c-0.2,0.7-0.2,1.4,0.1,2s0.8,1.1,1.5,1.3c2.8,1,5,3,6.2,5.7c1,2.3,1.1,4.9,0.2,7.1
	c-1.2,2.8-3.9,5-7.3,5.9c-4.7,1.2-10-0.3-14.8-4.2c-0.5-0.4-1.2-0.7-1.9-0.6c-0.7,0.1-1.3,0.4-1.8,1c-0.9,1.1-0.8,2.8,0.4,3.7
	c3.5,2.9,7.3,4.7,11.2,5.5c0,0,1.2,0.2,3,0.3S114.3,69.3,114.3,69.3z"/>
<g>
	<path class="st1" d="M87.2,73.8c0,0.5,0.1,1,0.4,1.5l9.7,14.4c0.5,0.7,1.3,1.2,2.2,1.2c0.5,0,1-0.2,1.5-0.5
		c1.2-0.8,1.5-2.5,0.7-3.7l-2.8-4.2C110,82.5,114,74.4,115,71.8l-5.7-0.2c-1.5,2.7-5.3,6.8-14.3,5.4l-2.5-3.8L87.2,73.8z"/>
	<path class="st1" d="M77.1,74.2l11.2,15.9c0.5,0.7,1.3,1.1,2.2,1.1c0.5,0,1.1-0.2,1.5-0.5c0.6-0.4,1-1,1.1-1.7c0.1-0.7,0-1.4-0.4-2
		l-9.2-13L77.1,74.2z"/>
</g>
</svg>
