<?xml version="1.0" encoding="utf-8"?>
<!-- Generator: Adobe Illustrator 22.1.0, SVG Export Plug-In . SVG Version: 6.00 Build 0)  -->
<svg version="1.1" id="Layer_1" xmlns="http://www.w3.org/2000/svg" xmlns:xlink="http://www.w3.org/1999/xlink" x="0px" y="0px"
	 viewBox="0 0 40 20" style="enable-background:new 0 0 40 20;" xml:space="preserve">
<style type="text/css">
	.st0{fill:#FFFFFF;}
</style>
<path class="st0" d="M14.6,13.9c-0.3,0.3-0.6,0.5-1,0.5s-0.8-0.2-1.1-0.5L7.6,9l-5,4.9c-0.4,0.3-0.7,0.5-1.1,0.5s-0.7-0.2-1-0.5
	c-0.4-0.3-0.5-0.7-0.5-1c0-0.5,0.2-0.8,0.4-1.1c0.1-0.1,0.5-0.5,1.2-1.1s1.4-1.3,2-1.9C4.3,8,5,7.4,5.6,6.8S6.5,6,6.5,6
	c0.2-0.2,0.3-0.2,0.4-0.3C7,5.6,7.3,5.6,7.4,5.6s0.4,0.1,0.5,0.1C8.1,5.8,8.2,5.9,8.4,6c0,0,0.3,0.3,0.9,0.8c0.6,0.5,1.3,1.2,2,1.9
	c0.8,0.7,1.5,1.3,2.2,1.9c0.7,0.6,1.1,1,1.2,1.1c0.2,0.3,0.4,0.6,0.4,1.1C15,13.2,14.8,13.6,14.6,13.9z"/>
</svg>
