<?xml version="1.0" encoding="utf-8"?>
<!-- Generator: Adobe Illustrator 19.1.0, SVG Export Plug-In . SVG Version: 6.00 Build 0)  -->
<svg version="1.1" id="Layer_1" xmlns="http://www.w3.org/2000/svg" xmlns:xlink="http://www.w3.org/1999/xlink" x="0px" y="0px"
	 viewBox="0 0 150 81" style="enable-background:new 0 0 150 81;" xml:space="preserve">
<style type="text/css">
	.st0{fill:#3B4652;}
</style>
<g>
	<g>
		<path class="st0" d="M150,33.3c0,1,0,2.1,0,3.1c0,0.1,0,0.2-0.1,0.4c-0.1,1.7-0.3,3.4-0.7,5.1c-1.4,6.7-4.5,12.6-9.4,17.5
			c-3.2,3.3-6.9,5.8-11.2,7.6c-3.2,1.4-6.6,2.2-10.1,2.6c-0.6,0.1-1.3,0.1-1.9,0.2c-27.1,0-54.1,0-81.2,0c-0.1,0-0.2,0-0.3,0
			c-0.7,0-1.4,0-2.1-0.1c-1.6-0.1-3.3-0.2-4.9-0.5c-3.4-0.5-6.5-1.7-9.6-3.2c-6-3.1-10.7-7.5-14.1-13.3C2.1,48,0.5,43,0.1,37.6
			c0-0.4-0.1-0.9-0.1-1.3c0-1,0-2,0-2.9c0-0.1,0-0.3,0.1-0.4c0.1-1.8,0.3-3.6,0.7-5.3C2.3,20.5,5.6,14.3,11,9.4
			c6.5-6,14.2-9.1,23-9.3c0.3,0,0.5,0,0.8-0.1C61.9,0,89,0,116.1,0c0.1,0,0.2,0,0.2,0c2,0.1,4,0.3,6,0.7c6.5,1.4,12.2,4.4,17,9
			c3.2,3.1,5.7,6.6,7.5,10.7c1.6,3.5,2.6,7.1,2.9,10.9C149.9,32,149.9,32.6,150,33.3z M49.9,66.6c0.1,0,0.3,0,0.4,0
			c15.2,0,30.5,0,45.7,0c0.8,0,1.5,0,2.3,0c5.9,0,11.8,0,17.7,0c1.8,0,3.5-0.2,5.2-0.6c6.8-1.4,12.6-4.6,17.3-9.7
			c5.7-6.3,8.5-13.7,8.4-22.2c0-1.8-0.2-3.6-0.6-5.4c-1.6-7.7-5.5-14.1-11.8-18.9c-5.2-4.1-11.2-6.3-17.9-6.6c-1.6-0.1-3.2,0-4.8,0
			c-20.6,0-41.1,0-61.7,0c-0.1,0-0.2,0-0.3,0c8.3,4.1,14.3,10.2,17.7,18.8c3.4,8.5,3.4,17.2,0,25.7C64.2,56.3,58.2,62.4,49.9,66.6z
			 M35,66.5c17.4,0,31.7-14,31.8-31.6C66.9,17.3,52.8,3.2,35.3,3C17.6,2.9,3.5,17.1,3.3,34.4C3.1,52.1,17.4,66.5,35,66.5z"/>
		<path class="st0" d="M94.9,25.9c1,0.5,1.3,1.2,1.2,2.3c-0.1,0.9-0.7,1.5-1.6,1.8c-0.8,0.2-1.7,0.2-2.5-0.1
			c-1.3-0.5-1.8-2.3-0.9-3.4c0.2-0.2,0.5-0.4,0.8-0.6c0,0,0,0,0,0c-0.7-0.4-1-1-1-1.7c0-0.8,0.4-1.5,1.1-1.8c1-0.5,2-0.5,2.9,0
			c0.7,0.3,1.1,1,1.1,1.8C96,24.9,95.8,25.5,94.9,25.9C95,25.9,95,25.9,94.9,25.9z M93.4,29.1C93.4,29.1,93.4,29.1,93.4,29.1
			c0.1,0,0.2,0,0.3,0c0.8-0.1,1.2-0.5,1.2-1.2c0-0.7-0.3-1.2-1-1.3c-0.3-0.1-0.6-0.1-1,0c-0.8,0.1-1.1,0.6-1.1,1.3
			c0,0.7,0.4,1.2,1.2,1.3C93.2,29.1,93.3,29.1,93.4,29.1z M93.4,23.1L93.4,23.1c-0.1,0-0.2,0-0.4,0c-0.4,0.1-0.8,0.2-1,0.6
			c-0.4,0.8,0.1,1.6,0.9,1.7c0.2,0,0.4,0,0.6,0c0.8-0.1,1.2-0.5,1.1-1.3C94.8,23.4,94.3,23.1,93.4,23.1
			C93.5,23.1,93.5,23.1,93.4,23.1z"/>
		<path class="st0" d="M82.7,13.7c0.1-0.6,0.2-1.3,0.3-1.9c0.4-1.2,1.3-2,2.6-2c0.5,0,1.1,0,1.6,0.1c1.1,0.2,1.8,1,2.1,2.1
			c0.3,1.2,0.3,2.5,0,3.8c-0.4,1.4-1.3,2.1-2.8,2.2c-0.6,0.1-1.3,0-1.9-0.2c-1-0.3-1.5-1.1-1.7-2C82.8,15,82.8,14.4,82.7,13.7z
			 M88.4,13.9c0-0.4,0-0.7-0.1-1c-0.1-1.1-0.6-2-2-2.1c-1.1,0-1.9,0.3-2.2,1.5c-0.2,1-0.2,2,0,2.9c0.2,1,0.8,1.5,1.8,1.6
			c1.3,0.1,2.1-0.5,2.4-1.7C88.3,14.6,88.3,14.2,88.4,13.9z"/>
		<path class="st0" d="M97.4,29.9c0.1-0.4,0.1-0.7,0.1-1c0.7,0,1.4,0.1,2,0.1c0.1,0,0.3,0,0.4,0c1-0.1,1.5-0.6,1.5-1.7
			c0-0.1,0-0.3,0-0.4c-0.1-0.6-0.5-1-1.1-1.1c-0.7,0-1.3,0-2,0c-0.2,0-0.5,0-0.7,0c0-1.3,0.1-2.5,0.1-3.8c1.5,0,3,0,4.5,0
			c0,0.3,0,0.7,0,1c-1.1,0-2.2,0-3.4,0c0,0.6,0,1.1,0,1.7c0.1,0,0.2,0,0.3,0c0.4,0,0.9,0,1.3,0c1.3,0.1,2.1,0.7,2.2,2
			c0.1,0.5,0,0.9,0,1.4c-0.2,0.9-0.8,1.5-1.7,1.7C99.7,30.3,98.6,30.1,97.4,29.9z"/>
		<path class="st0" d="M81.5,9.9c-0.1,0.3-0.1,0.6-0.1,1c-0.3,0-0.5-0.1-0.8-0.1c-0.6,0-1.3,0-1.9,0c-0.5,0.1-0.8,0.4-0.8,0.8
			c-0.1,0.5,0.1,0.9,0.6,1.1c0.4,0.2,0.9,0.3,1.3,0.5c0.3,0.1,0.7,0.3,1,0.4c0.9,0.5,1.2,1.2,1.1,2.2c-0.1,0.9-0.6,1.5-1.4,1.8
			c-0.7,0.2-1.4,0.3-2.1,0.2c-0.6,0-1.1-0.1-1.7-0.2c0.1-0.4,0.1-0.7,0.1-1c0.4,0,0.8,0.1,1.2,0.1c0.6,0,1.1,0,1.7-0.1
			c0.7-0.1,1-0.6,0.9-1.2c0-0.4-0.2-0.7-0.6-0.9c-0.5-0.2-1-0.3-1.5-0.5c-0.4-0.2-0.9-0.4-1.3-0.6c-0.7-0.5-0.8-1.2-0.6-2
			c0.2-0.8,0.7-1.3,1.5-1.5c0.7-0.2,1.5-0.2,2.2-0.1C80.7,9.8,81,9.9,81.5,9.9z"/>
		<path class="st0" d="M79.3,26.4c0-0.3,0-0.6,0-1c0.3,0,0.6,0,0.8,0c0.2,0,0.4,0,0.6-0.1c0.4-0.1,0.7-0.3,0.8-0.7
			c0.2-1-0.2-1.6-1.2-1.6c-0.7,0-1.4,0.2-2.1,0.4c-0.1-0.3-0.2-0.5-0.3-0.8c0-0.1,0-0.2,0.1-0.2c1.1-0.4,2.1-0.7,3.3-0.3
			c1.3,0.4,1.9,1.8,1.3,2.9c-0.2,0.3-0.5,0.5-0.7,0.8c0,0,0,0,0,0c1.5,0.6,1.3,3,0.3,3.7c-0.4,0.3-0.8,0.4-1.3,0.5c-1,0.1-2,0-3-0.2
			c0-0.3,0.1-0.7,0.1-0.9c0.7,0,1.4,0.1,2.1,0.1c0,0,0.1,0,0.1,0c1.4,0,1.5-1.1,1.3-2c-0.1-0.4-0.5-0.6-0.8-0.6
			C80.3,26.4,79.8,26.4,79.3,26.4z"/>
		<path class="st0" d="M87.4,27.5c0-0.6,0.1-1.2,0.1-1.7c0.4,0,0.7,0,1.1,0c0,0.6,0,1.1,0,1.8c0.5,0,0.9,0,1.3,0c0,0.4,0,0.7,0,1
			c-0.4,0-0.9,0-1.3,0c0,0.5,0,1,0,1.5c-0.4,0-0.8,0-1.2,0c0-0.5,0-1,0-1.5c-1.3,0-2.5,0-3.7,0c0-0.5-0.1-0.9,0.2-1.3
			c1-1.6,1.9-3.3,2.8-4.9c0.1-0.1,0.2-0.2,0.3-0.2c0.3,0,0.7,0,1,0c-1,1.8-2.1,3.6-3.1,5.4C85.8,27.5,86.6,27.5,87.4,27.5z"/>
		<path class="st0" d="M76.4,57.5c0.4-1.1,0.8-2.2,1.2-3.4c0.1-0.3,0.2-0.4,0.5-0.4c0.3,0,0.6,0,0.9,0c0.1,1.9,0.2,3.8,0.3,5.7
			c-0.3,0-0.6,0-0.9,0c-0.1-1.5-0.1-3-0.2-4.5c0,0,0,0-0.1,0c0,0.1-0.1,0.2-0.1,0.2c-0.4,1-0.7,2-1.1,3c-0.1,0.2-0.2,0.3-0.4,0.3
			c-0.6,0-0.6,0-0.8-0.6c-0.3-0.9-0.7-1.8-1-2.8c0-0.1-0.1-0.1-0.1-0.2c-0.1,1.5-0.1,3-0.2,4.5c-0.3,0-0.6,0-0.9,0
			c0.1-1.9,0.2-3.8,0.3-5.7c0.4,0,0.8,0,1.3,0C75.5,55,75.9,56.2,76.4,57.5C76.4,57.5,76.4,57.5,76.4,57.5z"/>
		<path class="st0" d="M73.6,39.8c0-0.8,0.1-1.5,0.1-2.3c0-1,0.1-2.1,0.1-3.1c0-0.2,0.1-0.3,0.3-0.3c0.2,0,0.4,0,0.6,0
			c0.3-0.1,0.4,0.1,0.5,0.4c0.3,1,0.7,2.1,1.1,3.1c0,0.1,0.1,0.2,0.1,0.3c0.2-0.6,0.4-1.1,0.6-1.6c0.2-0.6,0.5-1.3,0.7-1.9
			c0.1-0.2,0.1-0.2,0.3-0.2c0.3,0,0.6,0,1,0c0.1,1.9,0.2,3.8,0.3,5.7c-0.3,0-0.6,0-0.9,0c-0.1-1.5-0.1-3-0.2-4.5c0,0,0,0-0.1,0
			c0,0.1-0.1,0.2-0.1,0.2c-0.4,1-0.7,2-1.1,3c-0.1,0.2-0.2,0.3-0.4,0.3c-0.6,0-0.6,0-0.8-0.6c-0.3-0.9-0.6-1.8-0.9-2.7
			c0-0.1-0.1-0.2-0.2-0.3c0,0.1,0,0.3,0,0.4c0,1.2-0.1,2.5-0.1,3.7c0,0.3-0.1,0.4-0.4,0.4C73.9,39.8,73.8,39.8,73.6,39.8z"/>
		<path class="st0" d="M77.3,50.8c-0.9-0.4-1.7-0.8-2.6-1.2c-0.8-0.4-1.2-1.1-1.4-2c-0.1-0.7-0.1-1.4,0.1-2.1c0.2-1,0.9-1.6,1.9-1.7
			c0.3,0,0.6,0,0.9,0c1.1,0.1,1.7,0.7,1.9,1.8c0.1,0.7,0.1,1.4,0,2.1c-0.2,1-0.7,1.6-1.8,1.8c-0.1,0-0.2,0-0.3,0
			c0.5,0.2,1,0.3,1.5,0.5C77.6,50.4,77.5,50.6,77.3,50.8z M74.2,46.7c0.1,0.4,0.1,0.8,0.2,1.2c0.2,0.6,0.5,0.9,1.2,1
			c0.2,0,0.4,0,0.6,0c0.5-0.1,0.9-0.3,1-0.8c0.3-0.9,0.3-1.8,0-2.7c-0.2-0.6-0.7-0.9-1.5-0.9c-0.7,0-1.1,0.3-1.3,0.9
			C74.3,45.9,74.3,46.3,74.2,46.7z"/>
		<path class="st0" d="M102.7,39.8c0-0.1,0-0.2,0-0.3c0-1.7,0-3.4,0-5c0-0.2,0.1-0.3,0.3-0.3c0.6,0,1.3-0.1,1.9-0.1
			c1.1,0.1,1.8,0.7,2,1.9c0.1,0.7,0.1,1.4,0,2.1c-0.1,1-0.7,1.6-1.8,1.8C104.3,39.9,103.5,39.8,102.7,39.8z M103.5,39.1
			c0.5,0,1,0,1.4-0.1c0.5-0.1,0.8-0.4,0.9-0.9c0.2-0.8,0.2-1.6,0-2.4c-0.1-0.4-0.4-0.7-0.8-0.9c-0.5-0.2-1-0.1-1.5-0.1
			C103.5,36.2,103.5,37.6,103.5,39.1z"/>
		<path class="st0" d="M104.2,55.8c0.4-0.3,0.8-0.5,1.3-0.5c0.8,0,1.2,0.4,1.3,1.2c0,1,0,2,0,3c-0.3,0-0.5,0-0.8,0
			c0-0.1,0-0.2,0-0.3c0-0.8,0-1.5,0-2.3c0-0.7-0.3-0.9-1-0.8c0,0-0.1,0-0.1,0c-0.5,0.1-0.5,0.1-0.5,0.6c0,0.9,0,1.8,0,2.7
			c-0.3,0-0.5,0-0.8,0c0-0.1,0-0.2,0-0.3c0-0.8,0-1.5,0-2.3c0-0.3,0-0.7-0.4-0.8c-0.4-0.2-0.8,0-1.2,0.2c-0.1,0-0.1,0.2-0.1,0.3
			c0,0.9,0,1.7,0,2.6c0,0.1,0,0.2,0,0.3c-0.3,0-0.5,0-0.8,0c0-1.4,0-2.7,0-4.1c0.2,0,0.4,0,0.6,0c0,0.1,0.1,0.2,0.1,0.3
			C103.1,55.1,103.6,55.1,104.2,55.8z"/>
		<path class="st0" d="M76.1,30c-0.4,0-0.7,0-1.1,0c0-2.2,0-4.4,0-6.7c-0.6,0.2-1.1,0.4-1.7,0.6c-0.1-0.3-0.2-0.5-0.4-0.8
			c0.5-0.3,1-0.5,1.5-0.8c0.5-0.3,1.1-0.3,1.6-0.3C76.1,24.8,76.1,27.4,76.1,30z"/>
		<path class="st0" d="M93.3,61c0-0.2,0.1-0.4,0.1-0.7c0.4,0,0.7,0.1,1.1,0.1c0.8,0,1.1-0.3,0.9-1.1c-0.4,0.1-0.7,0.2-1.1,0.2
			c-0.7,0-1.1-0.3-1.3-1c-0.2-0.8-0.2-1.5,0-2.3c0.2-0.6,0.6-1,1.2-1c0.6,0,1.2,0.1,1.8,0.2c0.2,0,0.2,0.1,0.2,0.3
			c0,1.4,0,2.8,0,4.1c0,0.6-0.3,1-0.9,1.2C94.6,61.2,93.9,61.1,93.3,61z M95.4,57.4c0-0.2,0-0.4,0-0.6c0-0.8,0-0.8-0.8-0.8
			c-0.5,0-0.8,0.2-0.9,0.7c-0.1,0.5-0.1,0.9,0,1.4c0.1,0.6,0.5,0.9,1.1,0.8c0.1,0,0.2-0.1,0.4-0.1c0.2,0,0.2-0.1,0.2-0.3
			C95.4,58.1,95.4,57.7,95.4,57.4z"/>
		<path class="st0" d="M86.7,35.6c0-0.5,0-1,0-1.5c0.3,0,0.5,0,0.8,0c0,1.9,0,3.8,0,5.6c-0.4,0.1-0.5,0.1-0.7-0.2
			c-0.2,0.1-0.3,0.2-0.5,0.2c-1,0.4-1.9-0.1-2.1-1.2c-0.1-0.7-0.1-1.3,0.1-2c0.2-0.6,0.6-0.9,1.2-1C85.9,35.6,86.2,35.6,86.7,35.6z
			 M86.7,36.4c-0.3,0-0.6,0-0.9,0c-0.4,0-0.7,0.2-0.7,0.6C85,37.5,85,38,85,38.6c0,0.4,0.3,0.6,0.8,0.6c0.2,0,0.5-0.1,0.7-0.2
			c0.1,0,0.1-0.1,0.1-0.2C86.7,38,86.7,37.2,86.7,36.4z"/>
		<path class="st0" d="M75.2,17.7c-0.4,0-0.8,0-1.1,0c0-2.6,0-5.2,0-7.9c0.4,0,0.8,0,1.1,0C75.2,12.5,75.2,15.1,75.2,17.7z"/>
		<path class="st0" d="M83.8,46.2c0-0.2-0.1-0.4-0.1-0.6c0.1,0,0.2-0.1,0.4-0.1c0.5,0,1.1-0.1,1.6,0c0.6,0,0.9,0.4,1,1
			c0,0.1,0,0.2,0,0.3c0,0.9,0,1.8,0,2.8c-0.5,0.1-0.6,0.1-0.7-0.3c-0.4,0.3-0.9,0.5-1.5,0.4c-0.6-0.1-1.1-0.6-1.1-1.2
			c0-0.7,0.4-1.2,1-1.3c0.4-0.1,0.9,0,1.3,0c0.2-0.6-0.1-1-0.7-1C84.7,46.1,84.2,46.2,83.8,46.2z M85.8,47.8c-0.3,0-0.5,0-0.7,0
			c-0.1,0-0.2,0-0.3,0c-0.4,0.1-0.6,0.3-0.5,0.6c0,0.3,0.2,0.6,0.6,0.6c0.2,0,0.5,0,0.7-0.1c0.2-0.1,0.4-0.2,0.3-0.5
			C85.8,48.2,85.8,48,85.8,47.8z"/>
		<path class="st0" d="M91.1,57c0.1-0.7-0.1-1-0.8-1c-0.4,0-0.8,0.1-1.2,0.1c0-0.2-0.1-0.4-0.1-0.6c0.7-0.2,1.4-0.3,2.2-0.1
			c0.5,0.1,0.8,0.5,0.8,1c0,0.9,0,1.8,0,2.7c0,0.1,0,0.2,0,0.3c-0.5,0.1-0.6,0.1-0.7-0.2c-0.4,0.1-0.8,0.3-1.2,0.3
			c-0.8,0-1.3-0.5-1.4-1.2c0-0.7,0.5-1.3,1.3-1.3C90.3,57,90.7,57,91.1,57z M91.1,57.6c-0.4,0-0.8,0-1.1,0.1c-0.3,0-0.4,0.2-0.5,0.5
			c0,0.3,0.1,0.5,0.3,0.6c0.3,0.2,1,0.1,1.2-0.2c0,0,0.1-0.1,0.1-0.1C91.1,58.2,91.1,57.9,91.1,57.6z"/>
		<path class="st0" d="M97.4,39.7c-0.5,0.1-0.5,0.1-0.7-0.2c-0.3,0.1-0.6,0.3-0.9,0.3c-1.1,0.2-1.9-0.7-1.6-1.6
			c0.1-0.5,0.5-0.8,1.1-0.9c0.4,0,0.8,0,1.2,0c0.2-0.6-0.1-1-0.7-1c-0.4,0-0.8,0-1.3,0.1c0-0.2-0.1-0.4-0.1-0.6
			c0.7-0.2,1.4-0.3,2.2-0.1c0.5,0.1,0.8,0.5,0.8,1C97.4,37.7,97.4,38.7,97.4,39.7z M96,37.9c-0.1,0-0.3,0-0.4,0
			c-0.5,0.1-0.7,0.5-0.6,0.9c0.1,0.3,0.5,0.5,0.9,0.4c0.5-0.1,0.7-0.2,0.7-0.6C96.6,37.9,96.6,37.9,96,37.9z"/>
		<path class="st0" d="M110.9,38c-0.9,0-1.6,0-2.4,0c0,0.7,0.3,1.1,1,1.1c0.4,0,0.8-0.1,1.3-0.2c0,0.1,0.1,0.3,0.2,0.6
			c-0.8,0.3-1.6,0.5-2.4,0.1c-0.3-0.2-0.6-0.5-0.7-0.8c-0.3-0.8-0.3-1.6,0.1-2.3c0.3-0.7,1-1,1.8-0.9c0.6,0.1,1.1,0.6,1.2,1.3
			C110.9,37.3,110.9,37.6,110.9,38z M110.2,37.4c0-0.7-0.3-1.1-0.8-1.1c-0.5,0-0.9,0.5-0.9,1.1C109,37.4,109.6,37.4,110.2,37.4z"/>
		<path class="st0" d="M111,57.7c-0.9,0-1.7,0-2.5,0c0,0.7,0.3,1.1,1,1.1c0.4,0,0.8-0.1,1.2-0.2c0,0.2,0.1,0.4,0.2,0.6
			c-0.7,0.3-1.4,0.5-2.2,0.2c-0.5-0.2-0.8-0.5-0.9-0.9c-0.2-0.7-0.2-1.5,0-2.2c0.3-0.8,1-1.1,1.9-1c0.7,0.1,1.2,0.7,1.2,1.5
			C111,57.1,111,57.4,111,57.7z M110.2,57c0-0.7-0.3-1.1-0.8-1.1c-0.5,0-0.9,0.6-0.9,1.1C109.1,57,109.7,57,110.2,57z"/>
		<path class="st0" d="M122.1,38c0.1,0.9,0.5,1.2,1.3,1.1c0.3,0,0.7-0.1,1-0.2c0.1,0.2,0.1,0.4,0.2,0.6c-0.9,0.7-2.4,0.4-2.9-0.4
			c-0.5-0.8-0.4-2.2,0.1-2.9c0.4-0.5,1.1-0.8,1.8-0.6c0.6,0.1,1,0.6,1.1,1.3c0,0.4,0,0.7,0,1.1C123.7,38,122.9,38,122.1,38z
			 M123.8,37.4c0-0.8-0.3-1.1-0.9-1.1c-0.5,0-0.9,0.5-0.8,1.1C122.7,37.4,123.3,37.4,123.8,37.4z"/>
		<path class="st0" d="M83.4,38c-0.9,0-1.7,0-2.4,0c-0.1,0.6,0.2,1.1,0.8,1.1c0.5,0,0.9-0.1,1.4-0.1c0,0.1,0.1,0.3,0.2,0.6
			c-0.7,0.3-1.4,0.4-2.1,0.2c-0.6-0.2-0.9-0.6-1.1-1.2C80,38,80,37.4,80.2,36.8c0.3-0.8,0.9-1.2,1.8-1.2c0.7,0.1,1.2,0.6,1.3,1.4
			C83.4,37.3,83.4,37.7,83.4,38z M82.6,37.4c0-0.4,0-0.7-0.4-1c-0.3-0.2-0.6-0.2-0.9,0c-0.3,0.2-0.5,0.6-0.5,1
			C81.5,37.4,82.1,37.4,82.6,37.4z"/>
		<path class="st0" d="M100.1,58.6c0.1,0.2,0.1,0.4,0.2,0.6c-0.8,0.3-1.5,0.5-2.3,0.1c-0.3-0.1-0.6-0.4-0.7-0.7
			c-0.3-0.9-0.3-1.7,0.1-2.5c0.3-0.6,1.1-0.9,1.8-0.8c0.7,0.1,1.1,0.6,1.2,1.4c0,0.3,0,0.7,0,1c-0.8,0-1.6,0-2.4,0
			c-0.1,0.7,0.3,1.1,0.9,1.1c0.2,0,0.4,0,0.6-0.1C99.7,58.7,99.9,58.6,100.1,58.6z M99.6,57c0-0.7-0.3-1.1-0.8-1.1
			c-0.5,0-0.9,0.4-0.9,1.1C98.4,57,99,57,99.6,57z"/>
		<path class="st0" d="M82.5,57c0.1-0.7-0.1-1-0.8-1c-0.2,0-0.4,0-0.6,0c-0.2,0-0.4,0-0.6,0.1c0-0.2-0.1-0.4-0.1-0.7
			c0.8-0.2,1.6-0.3,2.3,0c0.4,0.1,0.6,0.4,0.6,0.8c0,1.1,0,2.1,0,3.2c-0.2,0-0.3,0-0.5,0c0-0.1-0.1-0.2-0.1-0.3
			c-0.4,0.3-0.8,0.4-1.3,0.4c-0.7,0-1.2-0.5-1.2-1.1c-0.1-0.7,0.3-1.3,1-1.4c0.4-0.1,0.7,0,1.1-0.1C82.3,57,82.4,57,82.5,57z
			 M82.6,58.1c0-0.1,0-0.2,0-0.4c0-0.1-0.1-0.2-0.1-0.2c-0.3,0-0.7,0-1,0.1c-0.2,0-0.3,0.2-0.4,0.4c-0.1,0.2,0,0.5,0.2,0.6
			c0.4,0.3,0.7,0.2,1.1,0C82.6,58.6,82.6,58.4,82.6,58.1z"/>
		<path class="st0" d="M94.3,45.5c0.3,0,0.5,0,0.7,0c0.1,0,0.2,0.1,0.2,0.2c0.3,1,0.5,2,0.8,3c0,0.1,0,0.1,0.1,0.3
			c0.1-0.2,0.1-0.3,0.1-0.4c0.2-0.9,0.5-1.8,0.7-2.7c0.1-0.3,0.2-0.4,0.5-0.4c0.1,0,0.3,0,0.5,0c-0.1,0.4-0.2,0.8-0.3,1.1
			c-0.4,1.4-0.9,2.8-1.3,4.2c-0.1,0.3-0.2,0.4-0.5,0.4c-0.1,0-0.2,0-0.4,0c0.2-0.5,0.4-1.1,0.6-1.6c-0.4,0.1-0.5-0.1-0.6-0.4
			C95,48,94.6,46.8,94.3,45.5z"/>
		<path class="st0" d="M115.2,59.4c-0.3,0-0.5,0-0.8,0c0-0.1,0-0.2,0-0.4c0-0.8,0-1.6,0-2.4c0-0.5-0.3-0.7-0.8-0.6c0,0-0.1,0-0.1,0
			c-0.7,0.1-0.8,0.1-0.8,0.9c0,0.8,0,1.7,0,2.5c-0.3,0-0.5,0-0.8,0c0-1.3,0-2.7,0-4c0.4-0.1,0.6-0.1,0.7,0.3
			c0.2-0.1,0.4-0.2,0.6-0.3c0.3-0.1,0.7-0.1,1-0.1c0.5,0.1,0.9,0.5,0.9,1.1c0,0.9,0,1.8,0,2.7C115.2,59.2,115.2,59.3,115.2,59.4z"/>
		<path class="st0" d="M79.2,45.5c0.3,0,0.5,0,0.8,0c0,0.1,0,0.2,0,0.3c0,0.8,0,1.5,0,2.3c0,0.6,0.2,0.9,0.9,0.8c0,0,0.1,0,0.1,0
			c0.6-0.1,0.6-0.1,0.6-0.7c0-0.8,0-1.6,0-2.3c0-0.1,0-0.2,0-0.3c0.3,0,0.5,0,0.8,0c0,1.3,0,2.7,0,4.1c-0.2,0-0.4,0-0.6,0
			c0-0.1-0.1-0.2-0.1-0.2c-0.3,0.1-0.7,0.3-1,0.3c-0.9,0.2-1.6-0.4-1.6-1.3c0-0.8,0-1.7,0-2.5C79.2,45.7,79.2,45.6,79.2,45.5z"/>
		<path class="st0" d="M84.5,59.4c0-1.4,0-2.7,0-4.1c0.2,0,0.4,0,0.6,0c0,0.1,0.1,0.2,0.1,0.3c0.4-0.3,0.9-0.5,1.4-0.4
			c0.6,0.1,1.1,0.4,1.1,1c0.1,1.1,0,2.1,0,3.2c-0.2,0-0.5,0-0.8,0c0-0.3,0-0.6,0-0.9c0-0.6,0-1.2,0-1.7c0-0.6-0.3-0.8-0.9-0.8
			c-0.7,0.1-0.8,0.1-0.8,0.9c0,0.7,0,1.5,0,2.2c0,0.1,0,0.2,0,0.3C85,59.4,84.8,59.4,84.5,59.4z"/>
		<path class="st0" d="M125.4,39c0.3,0,0.6,0.1,0.9,0.1c0.3,0,0.6,0,0.8,0c0.2,0,0.4-0.1,0.4-0.4c0-0.3-0.1-0.4-0.4-0.5
			c-0.4-0.1-0.7-0.2-1.1-0.4c-0.7-0.3-0.9-0.8-0.7-1.4c0.1-0.4,0.4-0.6,0.7-0.7c0.5-0.2,1.5-0.1,2,0c0,0.2,0,0.4-0.1,0.6
			c-0.3,0-0.6-0.1-0.9-0.1c-0.3,0-0.5,0-0.8,0.1c-0.1,0-0.3,0.2-0.3,0.3c0,0.1,0.1,0.3,0.2,0.3c0.2,0.1,0.4,0.2,0.7,0.2
			c0.2,0.1,0.4,0.1,0.6,0.2c0.6,0.2,0.8,0.6,0.7,1.2c0,0.5-0.3,0.9-0.8,1c-0.7,0.2-1.4,0.1-2.1,0c-0.1,0-0.1-0.1-0.1-0.2
			C125.3,39.4,125.4,39.2,125.4,39z"/>
		<path class="st0" d="M113.3,39.1c0.3-1.1,0.6-2.3,0.9-3.4c0.3,0,0.5,0,0.8,0c-0.2,0.7-0.4,1.3-0.6,2c-0.2,0.6-0.4,1.2-0.6,1.8
			c-0.1,0.2-0.2,0.2-0.3,0.2c-0.9,0-0.9,0-1.2-0.9c-0.3-1.1-0.7-2.1-1-3.2c0.3,0,0.6,0,0.9,0c0.3,1.1,0.6,2.3,0.9,3.4
			C113.2,39.1,113.3,39.1,113.3,39.1z"/>
		<path class="st0" d="M118.2,58.6c0.1,0.2,0.2,0.4,0.2,0.6c-0.4,0.3-1.2,0.4-1.6,0.1c-0.4-0.2-0.4-0.6-0.4-0.9c0-0.7,0-1.4,0-2.1
			c0-0.1,0-0.2,0-0.3c-0.2,0-0.4,0-0.6,0c-0.1-0.6-0.1-0.6,0.6-0.6c0-0.3,0-0.5,0-0.8c0-0.4,0-0.4,0.4-0.4c0.1,0,0.2,0,0.3,0
			c0,0.4,0,0.7,0,1.2c0.4,0,0.7,0,1.1,0c0,0.2,0,0.4,0,0.7c-0.4,0-0.7,0-1.1,0c0,0.6,0,1.2,0,1.8c0,0.1,0,0.3,0,0.4
			c0,0.5,0.2,0.6,0.6,0.5C118,58.7,118.1,58.7,118.2,58.6z"/>
		<path class="st0" d="M93.6,48.8c0.1,0.2,0.2,0.4,0.2,0.6c-0.4,0.3-1.2,0.4-1.6,0.1c-0.4-0.2-0.4-0.6-0.4-1c0-0.8,0-1.5,0-2.3
			c-0.2,0-0.4,0-0.6,0c0-0.2,0-0.4,0-0.6c0.2,0,0.4,0,0.6-0.1c0-0.4,0.1-0.8,0.1-1.2c0.2,0,0.4,0,0.7,0c0,0.4,0,0.7,0,1.1
			c0.4,0,0.7,0,1.1,0c0,0.2,0,0.4,0,0.7c-0.3,0-0.7,0-1.1,0c0,0.3,0,0.6,0,0.9c0,0.4,0,0.9,0,1.3c0,0.5,0.2,0.7,0.7,0.5
			C93.4,48.9,93.5,48.9,93.6,48.8z"/>
		<path class="st0" d="M120.5,36.3c-0.4,0-0.8,0-1.1,0c-0.6,0-0.9,0.3-0.9,0.9c0,0.4,0,0.8,0,1.2c0.1,0.5,0.4,0.7,1,0.7
			c0.2,0,0.4,0,0.6-0.1c0.2,0,0.3-0.1,0.5-0.2c0.1,0.2,0.1,0.4,0.2,0.6c-0.7,0.3-1.4,0.5-2.1,0.2c-0.5-0.2-0.8-0.5-0.9-1
			c-0.2-0.7-0.2-1.4,0-2.1c0.2-0.6,0.6-1,1.2-1c0.5-0.1,1,0,1.6,0C120.6,35.9,120.5,36.1,120.5,36.3z"/>
		<path class="st0" d="M93.4,35.7c0,0.3-0.1,0.5-0.1,0.7c-0.4,0-0.7,0-1.1,0c-0.6,0-0.9,0.3-1,0.8c-0.1,0.4,0,0.8,0,1.2
			c0.1,0.5,0.4,0.8,1,0.8c0.2,0,0.4,0,0.6-0.1c0.2,0,0.3-0.1,0.5-0.2c0.1,0.2,0.1,0.4,0.2,0.6c-0.6,0.5-1.8,0.5-2.4,0.1
			c-0.4-0.3-0.5-0.6-0.6-1c-0.1-0.6-0.1-1.2,0-1.8c0.2-0.7,0.7-1.1,1.4-1.1C92.4,35.6,92.9,35.6,93.4,35.7z"/>
		<path class="st0" d="M87.8,43.9c0.3,0,0.5,0,0.8,0c0,1.9,0,3.8,0,5.7c-0.2,0-0.5,0-0.8,0C87.8,47.7,87.8,45.8,87.8,43.9z"/>
		<path class="st0" d="M98.5,34.1c0.3,0,0.5,0,0.8,0c0,1.9,0,3.8,0,5.7c-0.3,0-0.5,0-0.8,0C98.5,37.9,98.5,36,98.5,34.1z"/>
		<path class="st0" d="M115.9,35.7c0.3,0,0.5,0,0.8,0c0,1.4,0,2.7,0,4.1c-0.3,0-0.5,0-0.8,0C115.9,38.4,115.9,37.1,115.9,35.7z"/>
		<path class="st0" d="M89.4,39.8c-0.3,0-0.5,0-0.8,0c0-1.3,0-2.7,0-4c0.2,0,0.5,0,0.8,0C89.4,37,89.4,38.4,89.4,39.8z"/>
		<path class="st0" d="M89.8,45.5c0.3,0,0.5,0,0.8,0c0,1.4,0,2.7,0,4.1c-0.2,0-0.5,0-0.8,0C89.8,48.2,89.8,46.9,89.8,45.5z"/>
		<path class="st0" d="M90.6,44.3c0,0.3-0.2,0.4-0.4,0.5c-0.3,0-0.4-0.2-0.4-0.4c0-0.3,0.2-0.5,0.4-0.5
			C90.4,43.9,90.6,44.1,90.6,44.3z"/>
		<path class="st0" d="M88.6,34.5c0-0.2,0.2-0.4,0.5-0.4c0.2,0,0.4,0.2,0.4,0.5c0,0.3-0.2,0.4-0.5,0.4
			C88.8,34.9,88.6,34.7,88.6,34.5z"/>
		<path class="st0" d="M116.7,34.5c0,0.3-0.2,0.4-0.5,0.4c-0.3,0-0.4-0.2-0.4-0.5c0-0.2,0.2-0.4,0.5-0.4
			C116.5,34.1,116.7,34.3,116.7,34.5z"/>
		<path class="st0" d="M52.5,33.6C46.7,43.4,40.9,53.2,35.1,63c-5.8-9.8-11.6-19.6-17.5-29.5C29.3,33.6,40.9,33.6,52.5,33.6z"/>
		<path class="st0" d="M17.4,30.7c0.1-3.2,2.1-6.8,6-8.4c3.7-1.5,9-0.8,11.8,3.4c3.4-4.2,7.6-5.4,12.6-3c3.2,1.6,4.9,4.4,5.2,8
			C41.1,30.7,29.2,30.7,17.4,30.7z"/>
		<path class="st0" d="M26.7,18.9c0-3.9,0-7.7,0-11.6c0.6,0,1.1,0,1.7,0c0,1.4,0,2.8,0,4.2c0.1-0.1,0.2-0.1,0.3-0.2
			c0.8-0.4,1.7-0.5,2.6-0.3c1,0.2,1.7,0.8,2,1.8c0.4,1,0.3,2.1,0.3,3.2c0,0.3-0.1,0.6-0.2,0.9c-0.4,1.4-1.3,2.2-2.8,2.2
			c-0.9,0-1.8-0.2-2.6-0.8c-0.1,0.2-0.2,0.5-0.4,0.6C27.3,19,27,18.9,26.7,18.9z M28.4,15c0,0.6,0,1.3,0,1.9c0,0.1,0.1,0.3,0.2,0.3
			c0.5,0.3,1.1,0.4,1.6,0.3c0.7,0,1.2-0.4,1.4-1.1c0.2-1,0.2-1.9,0-2.9c-0.2-0.6-0.6-1-1.2-1.1c-0.7-0.1-1.3,0-1.9,0.3
			c-0.1,0-0.1,0.2-0.2,0.3C28.4,13.8,28.4,14.4,28.4,15z"/>
		<path class="st0" d="M34.1,17.3c0.7,0.1,1.3,0.3,1.9,0.3c0.5,0,1,0,1.4-0.1c0.3,0,0.6-0.2,0.7-0.5c0.2-0.5,0-1-0.6-1.1
			c-0.5-0.1-1.1-0.2-1.6-0.3c-0.3-0.1-0.7-0.2-1-0.3c-0.5-0.2-0.8-0.6-0.9-1.2c-0.3-1.5,0.4-2.6,1.8-3c1.1-0.3,2.3-0.2,3.4,0.1
			c0.2,0.1,0.3,0.2,0.3,0.4c0,0.4,0,0.8,0,1.2c-0.6-0.1-1.1-0.3-1.7-0.3c-0.5-0.1-0.9,0-1.4,0c-0.3,0-0.6,0.2-0.7,0.5
			c-0.2,0.5,0,1,0.6,1.1c0.5,0.1,1.1,0.2,1.6,0.2c0.1,0,0.1,0,0.2,0c1.3,0.3,1.8,0.9,1.8,2c0,1.2-0.5,2.1-1.7,2.4
			c-1.3,0.4-2.7,0.3-4-0.1c-0.1,0-0.2-0.1-0.2-0.2C34.1,18.1,34.1,17.7,34.1,17.3z"/>
		<path class="st0" d="M42.4,11.2c0,0.1,0,0.2,0,0.4c0,1.8,0,3.5,0,5.3c0,0.5,0.1,0.6,0.6,0.7c0,0.5,0,0.9,0,1.4
			c-1.5,0.2-2.3-0.5-2.3-1.6c0-2,0-4,0-6c0,0,0-0.1,0-0.1C41.3,11.2,41.8,11.2,42.4,11.2z"/>
		<path class="st0" d="M41.5,7.7c0.6,0,1.1,0.5,1.1,1.1c0,0.6-0.5,1.1-1.1,1.1c-0.6,0-1.1-0.5-1.1-1.1C40.4,8.3,40.9,7.7,41.5,7.7z"
			/>
		<path class="st0" d="M45.9,18c0,0.6-0.5,1.1-1.1,1.1c-0.6,0-1.1-0.5-1.1-1.1c0-0.6,0.5-1.1,1.1-1.1C45.4,16.8,45.9,17.3,45.9,18z"
			/>
	</g>
	<g>
		<path class="st0" d="M62.4,78.3h-2.3v2.3H59v-5.5h3.8v0.9h-2.7v1.5h2.3V78.3z"/>
		<path class="st0" d="M64.9,75.1l1.4,4.1h0l1.4-4.1h1.4v5.5h-1.1V79l0.1-2.4l0,0l-1.5,4.1H66l-1.5-4.1l0,0l0.1,2.4v1.6h-1.1v-5.5
			H64.9z"/>
		<path class="st0" d="M72.2,78.2l0.3-3.1h3.1V76h-2.2l-0.2,1.3c0.1-0.1,0.2-0.1,0.4-0.2s0.3-0.1,0.5-0.1c0.5,0,0.9,0.2,1.2,0.5
			c0.3,0.3,0.4,0.8,0.4,1.4c0,0.5-0.2,1-0.5,1.3c-0.3,0.4-0.8,0.5-1.4,0.5c-0.5,0-0.9-0.1-1.3-0.4c-0.4-0.3-0.5-0.7-0.5-1.1l0,0
			l1.1-0.1c0,0.2,0.1,0.4,0.2,0.6c0.1,0.1,0.3,0.2,0.5,0.2c0.3,0,0.4-0.1,0.6-0.3c0.1-0.2,0.2-0.4,0.2-0.7c0-0.3-0.1-0.6-0.2-0.8
			c-0.1-0.2-0.3-0.3-0.6-0.3c-0.2,0-0.4,0-0.5,0.1c-0.1,0.1-0.2,0.2-0.2,0.3L72.2,78.2z"/>
		<path class="st0" d="M79.8,78.6h0.6v0.9h-0.6v1.2h-1.1v-1.2h-2.3l0-0.7l2.3-3.7h1.1V78.6z M77.4,78.6h1.3v-2l0,0l-0.1,0.2
			L77.4,78.6z"/>
		<path class="st0" d="M82.6,79.8c0.3,0,0.5-0.1,0.7-0.3c0.2-0.2,0.3-0.5,0.3-0.9v-0.3c-0.1,0.2-0.3,0.3-0.4,0.4
			c-0.2,0.1-0.4,0.1-0.6,0.1c-0.5,0-0.9-0.2-1.2-0.5s-0.4-0.8-0.4-1.4c0-0.6,0.2-1,0.5-1.4c0.3-0.4,0.8-0.5,1.3-0.5
			c0.6,0,1,0.2,1.4,0.6s0.5,0.9,0.5,1.6v1.3c0,0.7-0.2,1.2-0.6,1.6c-0.4,0.4-0.9,0.6-1.5,0.6c-0.2,0-0.4,0-0.6-0.1
			c-0.2,0-0.4-0.1-0.6-0.2l0.1-0.8c0.2,0.1,0.3,0.1,0.5,0.1C82.2,79.8,82.4,79.8,82.6,79.8z M82.7,78c0.2,0,0.3,0,0.5-0.1
			s0.2-0.2,0.3-0.3v-0.5c0-0.4-0.1-0.7-0.2-0.9c-0.1-0.2-0.3-0.3-0.6-0.3c-0.2,0-0.4,0.1-0.5,0.3c-0.1,0.2-0.2,0.5-0.2,0.8
			c0,0.3,0.1,0.6,0.2,0.8C82.3,77.9,82.5,78,82.7,78z"/>
		<path class="st0" d="M89.2,78.5c0,0.7-0.2,1.3-0.5,1.7c-0.3,0.4-0.8,0.6-1.4,0.6c-0.6,0-1-0.2-1.4-0.6c-0.3-0.4-0.5-0.9-0.5-1.7
			v-1.2c0-0.7,0.2-1.3,0.5-1.7c0.3-0.4,0.8-0.6,1.4-0.6c0.6,0,1,0.2,1.4,0.6c0.3,0.4,0.5,0.9,0.5,1.7V78.5z M88.1,77.1
			c0-0.4-0.1-0.8-0.2-1c-0.1-0.2-0.3-0.3-0.6-0.3c-0.3,0-0.4,0.1-0.6,0.3c-0.1,0.2-0.2,0.5-0.2,1v1.4c0,0.4,0.1,0.8,0.2,1
			c0.1,0.2,0.3,0.3,0.6,0.3c0.2,0,0.4-0.1,0.6-0.3c0.1-0.2,0.2-0.5,0.2-1V77.1z"/>
		<path class="st0" d="M93.6,75.9c-0.6,0.7-1,1.3-1.2,1.9c-0.2,0.6-0.4,1.3-0.5,2.2l-0.1,0.6h-1.1l0.1-0.6c0.1-0.8,0.3-1.6,0.6-2.2
			c0.3-0.7,0.7-1.3,1.2-1.9h-2.8v-0.9h3.9V75.9z"/>
		<path class="st0" d="M94.5,78.2l0.3-3.1h3.1V76h-2.2l-0.2,1.3c0.1-0.1,0.2-0.1,0.4-0.2s0.3-0.1,0.5-0.1c0.5,0,0.9,0.2,1.2,0.5
			s0.4,0.8,0.4,1.4c0,0.5-0.2,1-0.5,1.3c-0.3,0.4-0.8,0.5-1.4,0.5c-0.5,0-0.9-0.1-1.3-0.4c-0.4-0.3-0.5-0.7-0.5-1.1l0,0l1.1-0.1
			c0,0.2,0.1,0.4,0.2,0.6c0.1,0.1,0.3,0.2,0.5,0.2c0.3,0,0.4-0.1,0.6-0.3c0.1-0.2,0.2-0.4,0.2-0.7c0-0.3-0.1-0.6-0.2-0.8
			c-0.1-0.2-0.3-0.3-0.6-0.3c-0.2,0-0.4,0-0.5,0.1c-0.1,0.1-0.2,0.2-0.2,0.3L94.5,78.2z"/>
	</g>
</g>
</svg>
