<?xml version="1.0" encoding="utf-8"?>
<!-- Generator: Adobe Illustrator 19.1.0, SVG Export Plug-In . SVG Version: 6.00 Build 0)  -->
<svg version="1.1" id="Layer_1" xmlns="http://www.w3.org/2000/svg" xmlns:xlink="http://www.w3.org/1999/xlink" x="0px" y="0px"
	 viewBox="0 0 300 53" style="enable-background:new 0 0 300 53;" xml:space="preserve">
<style type="text/css">
	.st0{fill:#005F9E;}
</style>
<g>
	<g>
		<path class="st0" d="M7.4,27.6H0c1.5-1.3,1.6-2.7,1.6-4.8V5.4c0-2-0.1-3.4-1.6-4.7h9.6c6.1,0,9.6,3,9.6,7.3c0,4.2-3.3,7.3-8.7,7.3
			c-1,0-2-0.1-3.1-0.3c4.9-0.9,7.3-3.1,7.3-6.5c0-3-2.3-5-6-5C8,3.5,7,3.6,5.8,3.9v18.9C5.8,24.8,5.9,26.3,7.4,27.6z"/>
		<path class="st0" d="M28.7,27.6h-7.4c1.5-1.3,1.6-2.7,1.6-4.8V5.4c0-2-0.1-3.4-1.6-4.7h9.3c5.5,0,8.9,2.9,8.9,6.8
			c0,3.4-2.6,5.4-6,6.9l7,9.3c0.8,1.1,1.9,2.3,3.5,3.7l-2.1,0.1c-0.1,0-0.2,0-0.3,0c-1.9,0-3.9-1-5.2-2.8l-8-11.1
			c4.7-1,6.9-2.8,6.9-5.7c0-2.7-2-4.6-5.1-4.6c-0.7,0-1.7,0.1-2.9,0.4v19.2C27.1,24.8,27.2,26.3,28.7,27.6z"/>
		<path class="st0" d="M46.1,22.8V5.4c0-2-0.1-3.4-1.6-4.7h14.7v4.2c-1.3-1-2.9-1.5-4.9-1.5c-1.1,0-2.5,0.2-4,0.5v7.6h6.6v3.9
			c-0.8-1-2.1-1-4.2-1h-2.4v9.6c2.1,0.3,3.7,0.5,4.9,0.5c2.7,0,5.1-0.7,7.4-2.3l-1.9,5.3H44.5C45.9,26.3,46.1,24.8,46.1,22.8z"/>
		<path class="st0" d="M63.2,22.1c3.1,2.1,6,3.1,8.9,3.1c3.8,0,6.1-1.9,6.1-4.3c0-0.7-0.2-1.5-0.7-2.1c-0.9-1.3-3.2-2.3-6.6-4
			c-4.5-2.3-6.9-4.1-6.9-7.6c0-4.2,3.6-7.1,10-7.1c1.8,0,3.9,0.2,6.4,0.7v4.5c-2.2-1.7-4.4-2.5-6.9-2.5c-3.2,0-5.1,1.5-5.1,3.6
			c0,2.4,2.2,3.6,6.1,5.4c1.8,0.8,3.7,1.6,5.5,3c1.6,1.3,2.5,3.1,2.5,5.1c0,4.4-4.4,8.3-11.1,8.3c-2.1,0-4.5-0.5-7.1-1.3L63.2,22.1z
			"/>
		<path class="st0" d="M105.5,27c-2.4,0.8-4.6,1.2-6.7,1.2c-3.1,0-5.9-0.8-8.4-2.3c-4-2.4-6.4-6.7-6.4-11.8c0-3.7,1.7-7.4,4.7-10.2
			C91.4,1.4,94.9,0,98.9,0c1.9,0,4,0.4,6.3,1.1v4.3c-2.3-1.2-4.4-1.9-6.6-1.9c-5.9,0-9.9,4-9.9,10.2c0,6.8,4.2,11.3,10.2,11.3
			c2.6,0,5.4-1,8.6-2.8L105.5,27z"/>
		<path class="st0" d="M111.8,24.4c-2.7-2.6-4.3-6.2-4.3-10.1c0-3,1-5.9,2.8-8.4c2.8-3.8,7.1-5.9,12-5.9c4.2,0,8,1.4,10.5,3.8
			c2.8,2.6,4.3,6.2,4.3,10.3c0,3.7-1.7,7.5-4.7,10.3c-2.7,2.5-6.2,3.8-10.1,3.8C118,28.2,114.3,26.8,111.8,24.4z M112.1,13.9
			c0,6.7,4.4,11.4,10.1,11.4c5.9,0,10.3-4.5,10.3-11c0-6.7-4.4-11.4-10.1-11.4C116.5,2.9,112.1,7.4,112.1,13.9z"/>
		<path class="st0" d="M149.7,27.6h-7.4c1.5-1.3,1.6-2.7,1.6-4.8V3.6h-2.2c-2.7,0-4.6,0.4-5.9,1.5l1.3-4.4h19.2L155.2,5
			c-0.8-1-2.1-1.4-4-1.4h-3v19.2C148.1,24.8,148.3,26.3,149.7,27.6z"/>
		<path class="st0" d="M171.3,27.6h-7.4c1.5-1.3,1.6-2.7,1.6-4.8V3.6h-2.2c-2.7,0-4.6,0.4-5.9,1.5l1.3-4.4H178L176.8,5
			c-0.8-1-2.1-1.4-4-1.4h-3v19.2C169.7,24.8,169.8,26.3,171.3,27.6z"/>
		<path class="st0" d="M180.6,2.5c0-1.4,1-2.5,2.3-2.5c1.3,0,2.3,1.1,2.3,2.8c0,1.6-1,3.4-2.9,5.3l-1.7-0.2c1-1.1,1.7-2.1,2.1-3.2
			C181.4,4.6,180.6,3.7,180.6,2.5z"/>
		<path class="st0" d="M186.4,22.1c3.1,2.1,6,3.1,8.9,3.1c3.8,0,6.1-1.9,6.1-4.3c0-0.7-0.2-1.5-0.7-2.1c-0.9-1.3-3.2-2.3-6.6-4
			c-4.5-2.3-6.9-4.1-6.9-7.6c0-4.2,3.6-7.1,10-7.1c1.8,0,3.9,0.2,6.4,0.7v4.5c-2.2-1.7-4.4-2.5-6.9-2.5c-3.2,0-5.1,1.5-5.1,3.6
			c0,2.4,2.2,3.6,6.1,5.4c1.8,0.8,3.7,1.6,5.5,3c1.6,1.3,2.5,3.1,2.5,5.1c0,4.4-4.4,8.3-11.1,8.3c-2.1,0-4.5-0.5-7.1-1.3L186.4,22.1
			z"/>
		<path class="st0" d="M208.2,26c0-1.5,1.1-2.7,2.5-2.7c1.4,0,2.5,1.2,2.5,3.1c0,1.8-1,3.8-3.1,5.8l-1.9-0.2
			c1.3-1.5,2.1-2.6,2.3-3.5C209,28.2,208.2,27.3,208.2,26z"/>
		<path class="st0" d="M238,27.6h-7.4c1.5-1.3,1.6-2.7,1.6-4.8V5.4c0-2-0.1-3.4-1.6-4.7h7.4c-1.5,1.3-1.6,2.7-1.6,4.7v17.4
			C236.4,24.8,236.5,26.3,238,27.6z"/>
		<path class="st0" d="M265.2,5.4v22.8c-2.3-0.1-3.8-1.7-5.9-4.2L245.4,6.5v16.3c0,2,0.1,3.4,1.5,4.8h-6.1c1.5-1.3,1.6-2.7,1.6-4.8
			V5.4c0-2-0.1-3.4-1.6-4.7h5.5l15.9,20.2V5.4c0-2-0.1-3.4-1.6-4.7h6.1C265.3,2,265.2,3.4,265.2,5.4z"/>
		<path class="st0" d="M290.4,27c-2.4,0.8-4.6,1.2-6.7,1.2c-3.1,0-5.9-0.8-8.4-2.3c-4-2.4-6.4-6.7-6.4-11.8c0-3.7,1.7-7.4,4.7-10.2
			c2.7-2.5,6.3-3.8,10.3-3.8c1.9,0,4,0.4,6.3,1.1v4.3c-2.3-1.2-4.4-1.9-6.6-1.9c-5.9,0-9.9,4-9.9,10.2c0,6.8,4.2,11.3,10.2,11.3
			c2.6,0,5.4-1,8.6-2.8L290.4,27z"/>
		<path class="st0" d="M297.5,23.2c1.3,0,2.5,1.1,2.5,2.5s-1.1,2.5-2.5,2.5c-1.4,0-2.5-1.1-2.5-2.5S296.2,23.2,297.5,23.2z"/>
	</g>
	<g>
		<path class="st0" d="M8.6,36.9l-0.2,1.6c-0.6-0.4-1.3-0.6-2-0.6c-0.6,0-1.1,0.2-1.5,0.5c-0.4,0.3-0.6,0.7-0.6,1.3
			c0,0.3,0.1,0.5,0.3,0.8c0.2,0.3,0.7,0.8,1.6,1.5c0.9,0.7,1.4,1.3,1.7,1.8c0.3,0.5,0.4,1,0.4,1.6c0,0.8-0.3,1.5-0.9,2.1
			c-0.6,0.6-1.5,0.9-2.5,0.9c-0.9,0-1.9-0.3-2.8-0.8l0.2-1.7c1.1,0.7,2,1.1,2.7,1.1c0.4,0,0.8-0.1,1.2-0.4c0.4-0.3,0.6-0.6,0.6-1.1
			c0-0.3-0.1-0.6-0.3-0.9c-0.2-0.3-0.7-0.8-1.6-1.5c-0.9-0.7-1.4-1.3-1.7-1.8c-0.3-0.5-0.4-1-0.4-1.5c0-0.9,0.4-1.6,1.1-2.2
			c0.7-0.6,1.6-0.9,2.6-0.9C7.2,36.5,7.9,36.6,8.6,36.9z"/>
		<path class="st0" d="M19.8,40.6l-1.1,7.6h-1.4l0.1-1.3c-0.9,0.9-1.7,1.4-2.5,1.4c-0.5,0-1-0.2-1.3-0.6c-0.4-0.4-0.5-0.9-0.5-1.6
			c0-0.2,0-0.4,0-0.6l0.7-5h1.4l-0.7,5c0,0.2,0,0.3,0,0.5c0,0.8,0.3,1.1,0.8,1.1c0.6,0,1.4-0.6,2.3-1.7l0.7-5H19.8z"/>
		<path class="st0" d="M26.8,40.6L26.6,42l0,0c0.5-0.7,0.8-1.1,1.1-1.3c0.3-0.2,0.6-0.3,0.9-0.3c0.2,0,0.4,0,0.6,0.1v1.6
			C29,42.1,28.7,42,28.4,42c-0.3,0-0.5,0.1-0.8,0.2c-0.2,0.1-0.5,0.4-0.8,0.9c-0.3,0.5-0.5,0.7-0.5,0.8l-0.6,4.3h-1.4l1.1-7.6H26.8z
			"/>
		<path class="st0" d="M39.9,40.6l-0.2,1.1h-1.5c0.3,0.5,0.5,1,0.5,1.5c0,0.6-0.1,1.1-0.4,1.6c-0.3,0.5-0.6,0.8-1,1
			c-0.4,0.2-0.9,0.3-1.5,0.5c-0.6,0.1-1,0.2-1.2,0.3c-0.2,0.1-0.3,0.2-0.3,0.4c0,0.1,0.1,0.2,0.2,0.3c0.1,0.1,0.7,0.3,1.6,0.5
			c0.9,0.2,1.5,0.5,1.9,0.9c0.4,0.4,0.5,0.8,0.5,1.3c0,0.6-0.3,1.1-0.9,1.6c-0.6,0.4-1.3,0.6-2.2,0.6c-1,0-1.8-0.2-2.4-0.6
			c-0.6-0.4-0.9-0.8-0.9-1.4c0-0.7,0.7-1.3,2.2-1.6c-0.9-0.3-1.3-0.8-1.3-1.3c0-0.3,0.1-0.6,0.4-0.8c0.3-0.3,0.6-0.5,1.1-0.6
			c-0.9-0.4-1.4-1.2-1.4-2.2c0-0.9,0.3-1.6,0.8-2.2c0.6-0.6,1.2-0.9,2-0.9H39.9z M35.6,51c0.5,0,0.9-0.1,1.2-0.3
			c0.3-0.2,0.4-0.4,0.4-0.7c0-0.3-0.2-0.5-0.7-0.8c-0.5-0.2-0.8-0.3-1-0.3c-0.2,0-0.6,0.1-1.1,0.3c-0.6,0.2-0.8,0.5-0.8,0.8
			c0,0.3,0.2,0.5,0.5,0.7C34.5,50.9,35,51,35.6,51z M35.9,45.1c0.4,0,0.8-0.2,1.1-0.5c0.3-0.4,0.4-0.8,0.4-1.2
			c0-0.4-0.1-0.8-0.4-1.1c-0.3-0.3-0.6-0.4-1-0.4c-0.4,0-0.7,0.2-1,0.5c-0.3,0.4-0.5,0.8-0.5,1.2c0,0.5,0.1,0.8,0.4,1.1
			C35.2,44.9,35.5,45.1,35.9,45.1z"/>
		<path class="st0" d="M45.9,40.6l-1.1,7.6h-1.4l1.1-7.6H45.9z M44.6,38.2c0-0.2,0.1-0.4,0.2-0.6c0.2-0.2,0.4-0.2,0.6-0.2
			c0.2,0,0.4,0.1,0.6,0.2c0.2,0.2,0.2,0.4,0.2,0.6c0,0.2-0.1,0.4-0.2,0.6C45.9,39,45.7,39,45.5,39c-0.2,0-0.4-0.1-0.6-0.2
			C44.7,38.6,44.6,38.4,44.6,38.2z"/>
		<path class="st0" d="M55.7,46.5l-0.2,1.4c-0.7,0.4-1.4,0.6-2.1,0.6c-1,0-1.8-0.3-2.4-1C50.3,46.9,50,46,50,44.9
			c0-1.3,0.5-2.4,1.4-3.3c0.9-0.9,2.1-1.3,3.6-1.3c0.4,0,0.8,0,1.3,0.1l-0.2,1.3c-0.4-0.1-0.7-0.1-1.1-0.1c-1,0-1.8,0.3-2.5,1
			c-0.7,0.6-1,1.4-1,2.2c0,0.7,0.2,1.3,0.6,1.7c0.4,0.4,0.9,0.6,1.5,0.6C54.3,47.2,55,46.9,55.7,46.5z"/>
		<path class="st0" d="M67.1,40.6L66,48.2h-1.4l0.1-0.9l0,0c-0.7,0.7-1.4,1.1-2.1,1.1c-0.7,0-1.3-0.3-1.8-0.9
			c-0.5-0.6-0.7-1.3-0.7-2.1c0-1.4,0.5-2.6,1.4-3.6c0.9-0.9,2.2-1.4,3.8-1.4C66,40.4,66.6,40.4,67.1,40.6z M64.9,46l0.6-4.4
			c-0.2,0-0.3,0-0.4,0c-1.1,0-2,0.4-2.6,1.1c-0.6,0.7-0.9,1.5-0.9,2.4c0,0.6,0.1,1.1,0.4,1.5c0.3,0.4,0.6,0.6,1.1,0.6
			c0.3,0,0.7-0.2,1.1-0.5C64.7,46.3,64.9,46.1,64.9,46z"/>
		<path class="st0" d="M74.3,36.6l-1.6,11.6h-1.4l1.6-11.6H74.3z"/>
		<path class="st0" d="M98.2,36.6v11.6h-1.5l0-8.8L92,48.2l-2-8.9l-2.8,8.9h-1.5l3.8-11.6h1.3l1.8,7.8l4.2-7.8H98.2z"/>
		<path class="st0" d="M105.7,40.6l-1.1,7.6h-1.4l1.1-7.6H105.7z M104.4,38.2c0-0.2,0.1-0.4,0.2-0.6c0.2-0.2,0.4-0.2,0.6-0.2
			c0.2,0,0.4,0.1,0.6,0.2c0.2,0.2,0.2,0.4,0.2,0.6c0,0.2-0.1,0.4-0.2,0.6c-0.2,0.2-0.4,0.2-0.6,0.2c-0.2,0-0.4-0.1-0.6-0.2
			C104.5,38.6,104.4,38.4,104.4,38.2z"/>
		<path class="st0" d="M115.4,46.5l-0.2,1.4c-0.7,0.4-1.4,0.6-2.1,0.6c-1,0-1.8-0.3-2.5-1c-0.6-0.6-0.9-1.5-0.9-2.6
			c0-1.3,0.5-2.4,1.4-3.3c0.9-0.9,2.1-1.3,3.5-1.3c0.4,0,0.8,0,1.3,0.1l-0.2,1.3c-0.4-0.1-0.7-0.1-1.1-0.1c-1,0-1.8,0.3-2.5,1
			c-0.7,0.6-1,1.4-1,2.2c0,0.7,0.2,1.3,0.6,1.7c0.4,0.4,0.9,0.6,1.5,0.6C114,47.2,114.7,46.9,115.4,46.5z"/>
		<path class="st0" d="M122.4,40.6l-0.2,1.5l0,0c0.5-0.7,0.8-1.1,1.1-1.3c0.3-0.2,0.6-0.3,0.9-0.3c0.2,0,0.4,0,0.6,0.1v1.6
			c-0.3-0.2-0.6-0.3-0.9-0.3c-0.3,0-0.5,0.1-0.8,0.2c-0.2,0.1-0.5,0.4-0.8,0.9c-0.3,0.5-0.5,0.7-0.5,0.8l-0.6,4.3h-1.4l1.1-7.6
			H122.4z"/>
		<path class="st0" d="M131.9,40.4c0.9,0,1.5,0.3,2.1,0.9c0.5,0.6,0.8,1.4,0.8,2.4c0,1.4-0.3,2.5-1,3.4c-0.7,0.9-1.6,1.3-2.6,1.3
			c-0.9,0-1.6-0.3-2.1-0.9c-0.5-0.6-0.8-1.4-0.8-2.5c0-1.3,0.3-2.4,1.1-3.3C130,40.8,130.9,40.4,131.9,40.4z M131.9,41.5
			c-0.6,0-1.1,0.4-1.5,1.1c-0.4,0.7-0.6,1.6-0.6,2.6c0,0.6,0.1,1.1,0.4,1.5c0.3,0.4,0.6,0.6,1,0.6c0.6,0,1.1-0.3,1.5-1
			c0.4-0.7,0.6-1.5,0.6-2.6c0-0.6-0.1-1.1-0.4-1.5C132.6,41.7,132.3,41.5,131.9,41.5z"/>
		<path class="st0" d="M144.1,41.2v1.5c-0.9-0.7-1.6-1-2.3-1c-0.3,0-0.5,0.1-0.7,0.2c-0.2,0.2-0.3,0.3-0.3,0.6
			c0,0.1,0.1,0.3,0.2,0.5c0.1,0.2,0.5,0.5,1.2,0.9c0.7,0.4,1.1,0.9,1.3,1.2c0.2,0.4,0.3,0.7,0.3,1.1c0,0.7-0.2,1.2-0.7,1.6
			c-0.4,0.4-1,0.6-1.7,0.6c-0.8,0-1.7-0.3-2.6-1l0.3-1.4c0.9,0.8,1.7,1.1,2.3,1.1c0.3,0,0.5-0.1,0.7-0.2c0.2-0.2,0.3-0.4,0.3-0.6
			c0-0.2-0.1-0.4-0.2-0.6c-0.1-0.2-0.5-0.5-1.2-1c-0.7-0.5-1.1-0.9-1.3-1.2c-0.2-0.4-0.3-0.7-0.3-1.1c0-0.7,0.2-1.2,0.7-1.6
			c0.4-0.4,1-0.6,1.7-0.6C142.6,40.4,143.3,40.6,144.1,41.2z"/>
		<path class="st0" d="M154.1,46.5l-0.2,1.4c-0.7,0.4-1.4,0.6-2.1,0.6c-1,0-1.8-0.3-2.4-1c-0.6-0.6-0.9-1.5-0.9-2.6
			c0-1.3,0.5-2.4,1.4-3.3c0.9-0.9,2.1-1.3,3.5-1.3c0.4,0,0.8,0,1.3,0.1l-0.2,1.3c-0.4-0.1-0.7-0.1-1.1-0.1c-1,0-1.8,0.3-2.5,1
			c-0.7,0.6-1,1.4-1,2.2c0,0.7,0.2,1.3,0.6,1.7c0.4,0.4,0.9,0.6,1.5,0.6C152.7,47.2,153.4,46.9,154.1,46.5z"/>
		<path class="st0" d="M162.2,40.4c0.9,0,1.5,0.3,2.1,0.9c0.5,0.6,0.8,1.4,0.8,2.4c0,1.4-0.3,2.5-1,3.4c-0.7,0.9-1.6,1.3-2.6,1.3
			c-0.9,0-1.6-0.3-2.1-0.9c-0.5-0.6-0.8-1.4-0.8-2.5c0-1.3,0.4-2.4,1.1-3.3C160.3,40.8,161.2,40.4,162.2,40.4z M162.2,41.5
			c-0.6,0-1.1,0.4-1.5,1.1c-0.4,0.7-0.6,1.6-0.6,2.6c0,0.6,0.1,1.1,0.4,1.5c0.3,0.4,0.6,0.6,1,0.6c0.6,0,1.1-0.3,1.5-1
			c0.4-0.7,0.6-1.5,0.6-2.6c0-0.6-0.1-1.1-0.4-1.5C163,41.7,162.6,41.5,162.2,41.5z"/>
		<path class="st0" d="M172.5,38.7l-0.3,1.9c0.4-0.2,0.8-0.2,1.3-0.2c0.9,0,1.6,0.3,2.3,1c0.6,0.7,0.9,1.5,0.9,2.5
			c0,1.2-0.4,2.3-1.2,3.2c-0.8,0.9-1.9,1.4-3.4,1.4h-1l-0.5,3.7h-1.4l1.4-9.6c-0.3,0.2-0.6,0.5-0.8,0.9c-0.3,0.4-0.4,0.5-0.4,0.5
			c0,0-0.1,0-0.1-0.1c0-0.2,0.1-0.6,0.4-1.1c0.3-0.5,0.6-0.9,1-1.2l0.4-2.8H172.5z M172.1,41.7l-0.8,5.6h0.7c1,0,1.8-0.3,2.3-1
			c0.6-0.7,0.9-1.4,0.9-2.3c0-0.8-0.2-1.4-0.6-1.8c-0.4-0.4-0.9-0.6-1.6-0.6C172.7,41.4,172.4,41.5,172.1,41.7z"/>
		<path class="st0" d="M187.3,46.2l-0.2,1.4c-0.8,0.6-1.6,0.9-2.5,0.9c-1,0-1.7-0.3-2.3-1c-0.6-0.7-0.9-1.6-0.9-2.7
			c0-1.2,0.3-2.3,1-3.1c0.7-0.8,1.6-1.3,2.6-1.3c0.8,0,1.4,0.3,1.9,0.9c0.5,0.6,0.8,1.4,0.8,2.3c0,0.2,0,0.5,0,0.7h-4.8
			c0,0.3-0.1,0.5-0.1,0.7c0,0.7,0.2,1.3,0.6,1.7c0.4,0.4,0.9,0.6,1.4,0.6C185.5,47.3,186.3,46.9,187.3,46.2z M183.1,43.3h3.2
			c0-0.5-0.1-0.9-0.4-1.3c-0.2-0.3-0.6-0.5-1-0.5C184,41.5,183.4,42.1,183.1,43.3z"/>
		<path class="st0" d="M207.1,36.9l-0.2,1.6c-0.6-0.4-1.3-0.6-2-0.6c-0.6,0-1.1,0.2-1.5,0.5c-0.4,0.3-0.6,0.7-0.6,1.3
			c0,0.3,0.1,0.5,0.3,0.8c0.2,0.3,0.7,0.8,1.5,1.5c0.9,0.7,1.4,1.3,1.7,1.8c0.3,0.5,0.4,1,0.4,1.6c0,0.8-0.3,1.5-0.9,2.1
			c-0.6,0.6-1.5,0.9-2.5,0.9c-0.9,0-1.9-0.3-2.8-0.8l0.2-1.7c1.1,0.7,2,1.1,2.7,1.1c0.4,0,0.8-0.1,1.2-0.4c0.4-0.3,0.6-0.6,0.6-1.1
			c0-0.3-0.1-0.6-0.3-0.9c-0.2-0.3-0.7-0.8-1.6-1.5c-0.9-0.7-1.4-1.3-1.7-1.8c-0.3-0.5-0.4-1-0.4-1.5c0-0.9,0.4-1.6,1.1-2.2
			c0.7-0.6,1.6-0.9,2.6-0.9C205.6,36.5,206.4,36.6,207.1,36.9z"/>
		<path class="st0" d="M214.3,38.7l-0.3,1.9c0.4-0.2,0.8-0.2,1.3-0.2c0.9,0,1.6,0.3,2.3,1c0.6,0.7,0.9,1.5,0.9,2.5
			c0,1.2-0.4,2.3-1.2,3.2c-0.8,0.9-1.9,1.4-3.4,1.4h-1l-0.5,3.7H211l1.4-9.6c-0.3,0.2-0.6,0.5-0.8,0.9c-0.3,0.4-0.4,0.5-0.4,0.5
			c0,0-0.1,0-0.1-0.1c0-0.2,0.1-0.6,0.4-1.1c0.3-0.5,0.6-0.9,1-1.2l0.4-2.8H214.3z M213.9,41.7l-0.8,5.6h0.7c1,0,1.8-0.3,2.3-1
			c0.6-0.7,0.9-1.4,0.9-2.3c0-0.8-0.2-1.4-0.6-1.8c-0.4-0.4-0.9-0.6-1.6-0.6C214.5,41.4,214.2,41.5,213.9,41.7z"/>
		<path class="st0" d="M229.1,46.2l-0.2,1.4c-0.8,0.6-1.6,0.9-2.5,0.9c-1,0-1.7-0.3-2.3-1c-0.6-0.7-0.9-1.6-0.9-2.7
			c0-1.2,0.3-2.3,1-3.1c0.7-0.8,1.6-1.3,2.6-1.3c0.8,0,1.4,0.3,1.9,0.9c0.5,0.6,0.8,1.4,0.8,2.3c0,0.2,0,0.5-0.1,0.7h-4.8
			c0,0.3-0.1,0.5-0.1,0.7c0,0.7,0.2,1.3,0.6,1.7c0.4,0.4,0.9,0.6,1.4,0.6C227.3,47.3,228.1,46.9,229.1,46.2z M224.9,43.3h3.2
			c0-0.5-0.1-0.9-0.4-1.3c-0.2-0.3-0.6-0.5-1-0.5C225.9,41.5,225.3,42.1,224.9,43.3z"/>
		<path class="st0" d="M239.4,46.5l-0.2,1.4c-0.7,0.4-1.4,0.6-2.1,0.6c-1,0-1.8-0.3-2.4-1c-0.6-0.6-0.9-1.5-0.9-2.6
			c0-1.3,0.5-2.4,1.4-3.3c0.9-0.9,2.1-1.3,3.5-1.3c0.4,0,0.8,0,1.3,0.1l-0.2,1.3c-0.4-0.1-0.7-0.1-1.1-0.1c-1,0-1.8,0.3-2.5,1
			c-0.7,0.6-1,1.4-1,2.2c0,0.7,0.2,1.3,0.6,1.7c0.4,0.4,0.9,0.6,1.5,0.6C238,47.2,238.7,46.9,239.4,46.5z"/>
		<path class="st0" d="M246.1,40.6l-1.1,7.6h-1.4l1.1-7.6H246.1z M244.9,38.2c0-0.2,0.1-0.4,0.2-0.6c0.2-0.2,0.4-0.2,0.6-0.2
			c0.2,0,0.4,0.1,0.6,0.2c0.2,0.2,0.2,0.4,0.2,0.6c0,0.2-0.1,0.4-0.2,0.6c-0.2,0.2-0.4,0.2-0.6,0.2c-0.2,0-0.4-0.1-0.6-0.2
			C244.9,38.6,244.9,38.4,244.9,38.2z"/>
		<path class="st0" d="M257.4,40.6l-1.1,7.6h-1.4l0.1-0.9l0,0c-0.7,0.7-1.4,1.1-2.1,1.1c-0.7,0-1.3-0.3-1.8-0.9
			c-0.5-0.6-0.7-1.3-0.7-2.1c0-1.4,0.5-2.6,1.4-3.6c0.9-0.9,2.2-1.4,3.8-1.4C256.3,40.4,256.9,40.4,257.4,40.6z M255.2,46l0.6-4.4
			c-0.2,0-0.3,0-0.4,0c-1.1,0-2,0.4-2.6,1.1c-0.6,0.7-0.9,1.5-0.9,2.4c0,0.6,0.1,1.1,0.4,1.5c0.3,0.4,0.6,0.6,1.1,0.6
			c0.3,0,0.7-0.2,1.1-0.5C255,46.3,255.2,46.1,255.2,46z"/>
		<path class="st0" d="M264.6,36.6L263,48.2h-1.4l1.6-11.6H264.6z"/>
		<path class="st0" d="M270.7,40.6l-1.1,7.6h-1.4l1.1-7.6H270.7z M269.4,38.2c0-0.2,0.1-0.4,0.2-0.6c0.2-0.2,0.4-0.2,0.6-0.2
			c0.2,0,0.4,0.1,0.6,0.2c0.2,0.2,0.2,0.4,0.2,0.6c0,0.2-0.1,0.4-0.2,0.6c-0.2,0.2-0.4,0.2-0.6,0.2c-0.2,0-0.4-0.1-0.6-0.2
			C269.5,38.6,269.4,38.4,269.4,38.2z"/>
		<path class="st0" d="M279.8,41.2v1.5c-0.9-0.7-1.6-1-2.3-1c-0.3,0-0.5,0.1-0.7,0.2c-0.2,0.2-0.3,0.3-0.3,0.6
			c0,0.1,0.1,0.3,0.2,0.5c0.1,0.2,0.5,0.5,1.2,0.9c0.7,0.4,1.1,0.9,1.3,1.2c0.2,0.4,0.3,0.7,0.3,1.1c0,0.7-0.2,1.2-0.7,1.6
			c-0.4,0.4-1,0.6-1.7,0.6c-0.8,0-1.7-0.3-2.6-1l0.2-1.4c0.9,0.8,1.7,1.1,2.3,1.1c0.3,0,0.5-0.1,0.7-0.2c0.2-0.2,0.3-0.4,0.3-0.6
			c0-0.2-0.1-0.4-0.2-0.6c-0.1-0.2-0.5-0.5-1.2-1c-0.7-0.5-1.1-0.9-1.3-1.2c-0.2-0.4-0.3-0.7-0.3-1.1c0-0.7,0.2-1.2,0.7-1.6
			c0.4-0.4,1-0.6,1.7-0.6C278.3,40.4,279.1,40.6,279.8,41.2z"/>
		<path class="st0" d="M288.6,40.6l-0.2,1.1h-1.5l-0.7,4.2c0,0.2-0.1,0.4-0.1,0.5c0,0.5,0.3,0.8,0.8,0.8c0.4,0,0.9-0.2,1.4-0.5
			l-0.1,1.4c-0.5,0.2-1.1,0.3-1.6,0.3c-0.6,0-1.1-0.2-1.5-0.5c-0.4-0.3-0.5-0.7-0.5-1.3c0-0.1,0-0.3,0-0.4l0.8-4.6h-1.3l0.2-1.1h1.4
			L286,39h1.4l-0.3,1.6H288.6z"/>
		<path class="st0" d="M297.4,41.2v1.5c-0.9-0.7-1.6-1-2.3-1c-0.3,0-0.5,0.1-0.7,0.2c-0.2,0.2-0.3,0.3-0.3,0.6
			c0,0.1,0.1,0.3,0.2,0.5c0.1,0.2,0.5,0.5,1.2,0.9c0.7,0.4,1.1,0.9,1.3,1.2c0.2,0.4,0.3,0.7,0.3,1.1c0,0.7-0.2,1.2-0.7,1.6
			c-0.4,0.4-1,0.6-1.7,0.6c-0.8,0-1.7-0.3-2.6-1l0.2-1.4c1,0.8,1.7,1.1,2.3,1.1c0.3,0,0.5-0.1,0.7-0.2c0.2-0.2,0.3-0.4,0.3-0.6
			c0-0.2-0.1-0.4-0.2-0.6c-0.1-0.2-0.5-0.5-1.2-1c-0.7-0.5-1.1-0.9-1.3-1.2c-0.2-0.4-0.3-0.7-0.3-1.1c0-0.7,0.2-1.2,0.7-1.6
			c0.4-0.4,1-0.6,1.7-0.6C295.8,40.4,296.6,40.6,297.4,41.2z"/>
	</g>
</g>
</svg>
