<?xml version="1.0" encoding="utf-8"?>
<!-- Generator: Adobe Illustrator 23.0.2, SVG Export Plug-In . SVG Version: 6.00 Build 0)  -->
<svg version="1.1" id="Layer_1" xmlns="http://www.w3.org/2000/svg" xmlns:xlink="http://www.w3.org/1999/xlink" x="0px" y="0px"
	 viewBox="0 0 40 20" style="enable-background:new 0 0 40 20;" xml:space="preserve">
<style type="text/css">
	.st0{fill:#444444;}
</style>
<path class="st0" d="M0.5,4.7c0.4-0.4,0.8-0.6,1.3-0.6c0.5,0,1,0.2,1.4,0.6l6.7,6.5l6.7-6.5c0.5-0.4,0.9-0.6,1.4-0.6
	c0.5,0,0.9,0.2,1.3,0.6C19.8,5.1,20,5.6,20,6.1c0,0.6-0.2,1-0.5,1.4c-0.2,0.2-0.7,0.7-1.6,1.5c-0.9,0.8-1.8,1.7-2.7,2.6
	s-1.8,1.8-2.6,2.5c-0.8,0.7-1.2,1.1-1.2,1.1c-0.2,0.2-0.4,0.3-0.6,0.4s-0.5,0.2-0.7,0.2c-0.2,0-0.5-0.1-0.7-0.2s-0.4-0.2-0.6-0.4
	c0,0-0.4-0.4-1.2-1.1s-1.7-1.6-2.6-2.5C3.9,10.7,3,9.9,2.1,9C1.2,8.2,0.7,7.7,0.5,7.5C0.2,7.1,0,6.7,0,6.1C0,5.6,0.2,5.1,0.5,4.7z"
	/>
</svg>
