<?xml version="1.0" encoding="utf-8"?>
<!-- Generator: Adobe Illustrator 21.1.0, SVG Export Plug-In . SVG Version: 6.00 Build 0)  -->
<svg version="1.1" id="Layer_1" xmlns="http://www.w3.org/2000/svg" xmlns:xlink="http://www.w3.org/1999/xlink" x="0px" y="0px"
	 viewBox="0 0 430 254" style="enable-background:new 0 0 430 254;" xml:space="preserve">
<style type="text/css">
	.st0{fill-rule:evenodd;clip-rule:evenodd;fill:#0074AE;}
</style>
<g>
	<path class="st0" d="M429.6,230.9c-0.6,0.1-1.2,0.5-1.8,0c-0.2-0.8-0.2-1.7-0.8-2.4c-0.7-0.6-0.4-1.4-0.4-2.1
		c-0.1-0.3-0.2-0.7-0.4-1c-0.2-0.4-0.4-1.2-1.1-0.9c-0.6,0.2-0.6,0.8-0.4,1.4c0.1,0.5,0.2,1,0.2,1.6c0.1,0.8,0.2,1.7,0.4,2.5
		c0,0.5-0.1,0.9-0.1,1.4l0,0c-0.2,0.3-0.4,0.6-0.6,0.8c-1.4,0.9-2,2-1.4,3.7c0.1,0.4-0.1,0.8,0.1,1.2c0.1,0.2,0.1,0.5,0.2,0.7
		c-0.2,0.3-0.2,0.7,0.1,1.2c0.5,0,0.9-0.2,1.1-0.6l0,0c2-2,3.7-4.3,5.4-6.5C430.1,231.3,429.9,231,429.6,230.9z"/>
	<path class="st0" d="M402,208c0-0.9,0-1.9,0-2.8c-0.3-0.5-0.8-1-0.9-1.7c-0.4-0.8-1-1.4-1.1-2.4c-0.1-0.9-0.8-1.4-1.6-0.9
		c0-0.4-0.1-0.7-0.1-1.1c-0.6-1.5-1.5-2.8-3-3.5c-0.6-0.3-0.7-0.8-0.7-1.4c0.1-1.7-1-3.2-0.9-4.9c0-0.5-0.3-1.1-0.7-1.1
		c-1.2-0.2-1.1-1-1.2-1.9c-0.1-0.7-0.3-1.4-0.8-2c0-0.2,0.1-0.5,0.1-0.7c-1.2-0.6-0.8,0.5-1,0.9l0,0c-0.5,0.6-0.6,1.3-0.7,2
		c-0.2,1.7-0.4,3.4-1,5c-0.5,1.4-1.3,2-2.6,1c-0.5-1.1-1.7-1.2-2.5-1.8c-0.3-0.6-0.9-0.8-1.5-1l0,0l0,0c-0.4-0.4-1.1-0.6-0.6-1.4
		c0.5-0.5,0.7-1.1,0.6-1.8l0.1-0.1l0,0c1.1-0.1,1.3-0.8,1-1.7c-0.3,0.1-0.6,0.1-0.9,0.2c-0.1-0.1-0.2-0.1-0.3-0.2
		c-1.4,0-2.6-0.6-3.9-1c-0.3,0-0.5,0.2-0.8,0.3c-0.4,0-0.7,0.1-1.1,0.3c0,0,0.1,0.1,0.1,0.1c-0.6,0.2-1.3,0.4-1.7,1
		c-0.3,0.7-0.8,1.1-1.1,1.8c-0.4,1.2-1.1,1.2-2,0.6c-0.2-0.1-0.3-0.1-0.5-0.2c-0.1-0.1-0.3-0.1-0.5-0.2c-0.3-0.2-0.6-0.2-0.9-0.1
		c-0.3,0-0.6,0-0.8,0c-1,0.3-1.7,1-2.4,1.8c-0.1,0.3-0.2,0.6-0.2,0.9c-0.3,0.3-0.5,0.5-0.8,0.8h0l-0.1,0.1c-0.3,0.1-0.5,0.2-0.8,0.3
		v0c-1.1,0.2-1.4,0.9-1.4,1.8c-0.1,0.2-0.1,0.3-0.2,0.5c0,0.1-0.1,0.3-0.1,0.4c-0.7,0.6-1,1.7-2,1.8c-2.8,0.5-5.4,1.4-7.9,2.5
		c-0.4,0.1-0.9,0.3-1.3,0.4c-1.2,0.6-1,1.9-1.5,2.9c0,0.8,0.2,1.6,0.3,2.4c-0.1,0.8-0.1,1.6-0.3,2.4c0.2,0.2,0.3,0.5,0.5,0.7l0,0h0
		c0.6,2.3,0.7,4.7,1,7c0.1,1.1-0.1,2.3-0.9,3.1c-0.7,0.7-0.4,1.2,0.1,1.8c1.3,1.4,2.8,1.3,5.1-0.5c2.4-0.8,5.1,0.3,7.3-1.8
		c1.7-1.6,4.4-1.3,6.6-1.8c2.9-0.6,6.6,1.1,6.6,5.1c0,0.2,0,0.5,0.4,0.6c0.9-0.3,1.2-1.5,2.2-1.7l0,0c0.1,0.2,0.3,0.4,0.4,0.6v0
		c-0.1,0.6-0.3,1.2-0.8,1.7c-0.5,0.5,0.1,0.5,0.4,0.6c0.2-0.2,0.5-0.4,0.7-0.6l0,0c0.1,0.2,0.3,0.5,0.4,0.7l0,0l0,0
		c0.1,0.4,0.3,0.6,0.6,0.7c0.4,0.8,0.7,1.5,0.5,2.5c-0.3,1.3,0.4,2.3,1.6,2.8c0.8,0.3,1.5,0.7,2,1.4c0.9-0.4,1.8-0.8,2.7-1.1
		c0,0,0,0,0,0h0c0.7,2,0.8,2.1,2.4,0.9c0.8-0.6,1.7-1.1,2.7-1.1c1,0,1.4-0.5,1.6-1.5c0.6-2.8,2.2-5.4,4.1-7.4c2.5-2.7,3-5.9,4.2-9
		C402,209.2,401.8,208.6,402,208z M356.7,217.7c-0.1,0-0.2,0-0.3,0.1C356.4,217.8,356.6,217.8,356.7,217.7z"/>
	<path class="st0" d="M245.6,17.2L245.6,17.2c0,0.2,0,0.5,0,0.7c0,0.2,0.2,0.2,0.4,0.4c0.3,0,0.5,0,0.8,0c0.1-0.1,0.2-0.1,0.3-0.2
		c0.2,0.1,0.5,0.1,0.7,0.1c0.1-0.1,0.2-0.1,0.3-0.1c1,0.6,1.6,0,2.3-0.8v0c0.5-0.5,1.1-0.8,1.8-0.7c0-0.1,0-0.2,0-0.3
		c0.1,0,0.2-0.1,0.3-0.1c0.1-0.5-0.5-0.9-0.3-1.5c0.4-0.8-0.4-1.1-0.8-1.3c-0.8-0.3-0.6,0.6-0.8,1c-0.2,0.4-0.1,0.9-0.1,1.4
		c-0.2,0.1-0.5,0.3-0.7,0.4v0c-0.3-0.4-0.5-0.7-0.8-1.1c0.6-1-0.3-1.3-0.8-1.8c-0.1-0.3-0.2-0.7-0.3-1c-0.3-0.1-0.7-0.2-1-0.3
		c-0.1,0.5-0.3,1-0.4,1.4c-0.1,0.2-0.2,0.5-0.3,0.7c-0.5,0.4,0.7,1.1-0.3,1.4h0l0,0l0,0l0,0c0,0.1,0,0.3-0.1,0.4c0,0.2,0,0.5,0,0.7
		l0,0h0C245.5,16.7,245.4,17,245.6,17.2z"/>
	<path class="st0" d="M251.4,10.1c-0.1-0.1-0.1-0.2-0.2-0.2c-0.1,0-0.2,0.1-0.3,0.2c0.1,0.1,0.1,0.2,0.2,0.2
		C251.3,10.3,251.4,10.2,251.4,10.1z"/>
	<path class="st0" d="M342.7,12.1c0.1-0.1,0.2-0.2,0.3-0.3c0.5-0.6,0.3-1.3-0.3-1.4c-1.3-0.1-2.6-0.9-3.9-0.1
		c-0.4,0.3-0.3,0.7-0.3,1.1C339.8,12.4,341.2,12.7,342.7,12.1z"/>
	<path class="st0" d="M419.9,237c-0.1,1.1-1,1.6-1.8,2.3c-0.4,0.4-0.6,0.8-0.6,1.3c0,0.1,0,0.2,0.1,0.3c-0.1,0-0.1,0.1-0.2,0.1
		c-0.1-0.1-0.2-0.1-0.4-0.1c-0.6,0-0.9,0.5-1.3,0.9c-1.6,1.5-3.9,2.3-5.2,4.2c-0.4,0.7-1.2,1.2-0.6,2.2c2.6,1.3,3.1,1.2,4.7-0.5
		c0.2-0.3,0.4-0.6,0.6-0.9c1-1.7,2.1-3.2,4-3.8c0.5-0.4,0.8-0.8,1-1.4h0l0,0c0-0.1,0.1-0.2,0.1-0.3c0.1-0.8,0.9-1,1.4-1.4
		c0.8-0.5,0.4-1.4,0.8-2C421.5,238,421.1,236.2,419.9,237z"/>
	<path class="st0" d="M397.5,181.5c1,0.8,2.2,0.6,3.5,0.7c-0.3-0.7-0.6-1.1-1.2-1.1c-0.6-0.8-1.2-1.6-1.8-2.4
		c-0.3-0.4-0.9-0.8-0.5-1.2c1-1.2-0.1-1.4-0.8-1.7c-0.3-0.1-0.6-0.2-0.8-0.4c-0.1-0.1-0.2-0.2-0.3-0.4c0-0.1-0.1-0.1-0.1-0.2
		c0-0.6-0.4-0.9-0.9-0.9h0l0,0c-0.2-0.1-0.5-0.1-0.7-0.2c0,0,0,0,0,0c-0.3-0.2-0.6-0.4-0.8-0.6c-0.3-0.4-0.8-0.6-1.3-0.6
		c-0.5-0.2-0.9-0.3-1.4-0.5h0h0c-1-0.7-2.3-0.5-3.3-1.1c-0.3,0.1-0.6,0-0.8-0.2c-0.8-0.8-1.6-1.1-2.2,0.3c-1.1,0.1-1.5,1.1-2.1,1.8
		c-0.5-0.3-1-0.7-1.5-1c-0.4-0.9,0.1-1.9-0.3-2.8l0.1,0c-1.1-0.4-2.3-1.3-3.3,0.2c0,0,0,0,0,0c0,0,0,0,0,0c-0.1,0-0.2,0-0.3,0.1
		c0,0.2,0,0.5,0,0.7c0.5,0.4,1,0.8,1.4,1.1c0,0.1,0,0.1,0,0.2c-0.1,0-0.2,0.1-0.3,0.2c-0.4,1.6,0.1,2.4,1.6,2.5
		c0.6,0,1.1,0.3,1.7,0.4c1.4,0.4,2.7,1,4.2,1.4c0,0,0,0,0.1,0c0.1,0,0.2,0.1,0.3,0.1c0.1,0.3,0.2,0.6,0.3,1c0,0,0,0,0,0c0,0,0,0,0,0
		c0,0.4,0,0.9-0.1,1.3c-0.3,0.3-0.6,0.5-1,0.8c0.1,0.1,0.2,0.3,0.4,0.4c0,0,0,0,0,0c0,0,0,0,0,0c0.9,0.4,2-0.4,2.8,0.3v0l0,0
		c0,0.1,0,0.2,0,0.2c0.9,1.1,2.1,1.1,3.4,1c0.8-0.1,0.9-0.3,0.7-0.8c0.8-0.7,1.2-2.4,2.8-0.9h0c0.3,0,0.7,0.1,1,0.1
		c0.3,0.7,0.7,1.2,1.4,1.4l0,0C397.2,181,397.3,181.3,397.5,181.5z"/>
	<path class="st0" d="M404.1,173.2c-1.1,0.5-1.6,1.8-2.9,1.9l0,0h0c-0.1,0-0.2,0-0.3,0c-0.5,0.6-1.4,0.1-2,0.7
		c1.7,1.4,3.3,0.9,4.8-0.1c0.1-0.3,0.3-0.7,0.4-1l0,0c0.1,0,0.1,0,0.2,0c0.3,0,0.6,0,0.8,0c0-0.2,0-0.5,0-0.7
		C404.9,173.7,404.8,173,404.1,173.2z"/>
	<path class="st0" d="M388.7,234c-1.3,0.2-2.6-1.1-3.4-0.7c-1.1,0.6,0.1,2.3-0.5,3.3c-0.1,1.8,0.6,2.9,1.5,2.4
		c1.6-0.8,2.7-2.2,3.1-4C389.5,234.4,389.1,234,388.7,234z"/>
	<path class="st0" d="M389.7,232.1c0,0.2,0.1,0.3,0.2,0.4c0.1-0.1,0.2-0.2,0.3-0.4c-0.1-0.1-0.2-0.2-0.4-0.3
		C389.8,231.9,389.7,232,389.7,232.1z"/>
	<path class="st0" d="M391.5,81.2c0.9-0.2,0.6-1.1,1.1-1.6c0-0.1,0-0.2,0-0.3c-0.3,0.1-0.6,0.2-1,0.4
		C391.7,80.2,391.1,80.7,391.5,81.2z"/>
	<path class="st0" d="M400.8,67.4C400.8,67.4,400.8,67.4,400.8,67.4C400.8,67.4,400.8,67.4,400.8,67.4
		C400.8,67.4,400.8,67.4,400.8,67.4z"/>
	<path class="st0" d="M398.7,65.5c0.6,1.3,1.2,1.7,2.1,1.8C400.4,66.6,399.8,66.1,398.7,65.5z"/>
	<path class="st0" d="M228.7,21c0.4-0.1,0.6-0.3,0.8-0.6c0-0.3-0.2-0.4-0.4-0.4c-0.4,0.1-0.7,0.2-0.8,0.6
		C228.2,20.9,228.5,21.1,228.7,21z"/>
	<path class="st0" d="M243.8,20.1c0.3-0.1,0.5-0.3,0.8-0.4c-0.4-0.8-0.7-0.6-1.1,0C243.6,19.9,243.7,20,243.8,20.1z"/>
	<path class="st0" d="M165.6,9c0.2,0.2,0.3-0.1,0.4-0.3c-0.2-0.1-0.4-0.2-0.7-0.4C165.4,8.5,165.4,8.9,165.6,9z"/>
	<path class="st0" d="M239.1,18c1.1,0.2,0.6-0.7,0.7-1.1c0,0.1-0.1,0.2-0.1,0.2c0-0.1,0.1-0.2,0.1-0.2c0.3-0.1,0.5-0.2,0.8-0.3h0
		c0,0.3,0.9,0.2,0.1,0.8c-0.5,0.4-0.3,1.3,0.2,1.9c0.3,0.3,0.9,0.5,1.1,0.1c0.5-1.1,1.7-1.8,1.5-3.2c-0.3-0.3-0.4-1-1-0.7
		c-0.5,0.2-0.5,0.6-0.5,1c-0.4,0-0.7,0.1-1.1,0.1c0-0.1-0.1-0.1-0.1-0.1c-0.8-0.6-1.4-0.3-2,0.4C238.3,17.4,238.4,17.8,239.1,18z"/>
	<path class="st0" d="M377.9,222.3c-0.2,0-0.5,0.1-0.7,0.1c0,0.5,0.4,0.5,0.7,0.7c0.2-0.1,0.6-0.1,0.6-0.5
		C378.4,222.4,378.1,222.4,377.9,222.3z"/>
	<path class="st0" d="M251.3,18.7c0.2-0.2,0.4-0.5,0.1-0.7c-0.1-0.1-0.3-0.1-0.4-0.1c-0.3,0.2-0.1,0.5-0.2,0.8
		C251,18.7,251.2,18.7,251.3,18.7z"/>
	<path class="st0" d="M277.9,10.4c0,0.1,0,0.2,0,0.3c-0.2,0.1-0.3,0.2-0.5,0.3c0.1,0.1,0.1,0.3,0.2,0.4l0,0v0
		c0.1,0.9,0.6,1.4,1.5,1.4c1.1-0.1,1.9,0.5,2.7,1.1c0.2,0,0.5,0,0.7,0c1-0.2,2,0.2,3,0.2c0.8,0,1.8-0.2,1.2-1.3
		c-0.5-0.8-0.8-1.6-1.2-2.3c-0.5-1.2-1.3-1.8-2.7-1.2c-0.3-0.4-0.6-0.4-1.1-0.3l0,0c-0.1-0.1-0.3-0.2-0.4-0.4l0,0
		c-0.3-0.6-0.6-1.2-1-1.6c-0.7-0.7-1.5-1.6-2.6-1.7c-0.6-0.1-1,0.9-1,1.5C276.8,8.1,276.4,9.6,277.9,10.4z"/>
	<path class="st0" d="M288.2,12.2c0.2,1,0.4,2.1,0.6,3.1c0.3,1.3,0.7,2,1.8,0.5c0.3-0.4,0.8-0.5,1.2-0.8l0,0
		c1.3-0.8,1.4-1.7,0.3-2.8v0l0,0c-0.9-0.3-1.8-1-2.8-0.9c0-0.2,0-0.4-0.1-0.6c-1-0.1-1.4,0.2-1.2,1C288.1,12,288.2,12.1,288.2,12.2z
		"/>
	<polygon class="st0" points="289.3,10.8 289.3,10.8 289.3,10.8 	"/>
	<path class="st0" d="M265.9,11c0.1,0,0.3-0.2,0.3-0.3c0-0.1-0.1-0.3-0.2-0.6c-0.2,0.4-0.3,0.5-0.3,0.7
		C265.6,10.9,265.8,11,265.9,11z"/>
	<path class="st0" d="M91.1,19.1c0.3,1.6,1.1,0.2,1.7,0.3c0.2,0.2,0.3,0.3,0.5,0.5c0,0.1-0.1,0.2-0.1,0.3c-0.5,0.2-0.9,0.5-1.4,0.7
		c-0.8,0.5-0.2,1,0,1.5c0.1,0,0.3-0.1,0.4-0.1v0v0c0.1,0,0.2,0.1,0.4,0.1c0.2,0.8,1.1,0.9,1.5,1.4h0v0c-0.4,0.3-0.6,0.8-0.2,1.2
		c0.7,0.8,1.7,0.8,2.5,0.5c1.7-0.7,3.4-0.5,5.2-0.3l0,0c0.9,0.2,1.4-0.6,2.1-0.9c0-0.2,0-0.3,0.1-0.5l0,0c1-0.5,1.5-1.7,0.6-1.9
		c-1.8-0.4-1.6-1.3-1.4-2.5c0.1-0.4,0.2-0.9-0.3-1.1c-0.5-0.2-0.9,0.2-1.2,0.5c-0.4,0.4-0.4,0.9-0.6,1.4c-0.4,1-0.6,2.1-2,2l0,0
		c0-1.5-0.3-3-1.2-4.3c0,0,0,0,0,0l0,0c-0.3-1-0.2-1.8,0.6-2.6c0.7-0.6,1-1.5,0.8-2.4c-0.2,0-0.5-0.1-0.7-0.1
		c-0.6-0.1-1.2-0.2-1.8-0.3l0,0l0,0h0l0,0c-0.5,0.1-1,0.2-1.4,0.6c-0.7,0.5-1.5,0.9-2.2,1.4l0,0c-1.2,0.2-2.3,0.7-3.5,1.2v0
		c-1.1,0.5-0.4,1.1-0.1,1.7C90.1,17.8,90.6,18.4,91.1,19.1z"/>
	<path class="st0" d="M252.9,13.5c0.5,0,0.8-0.5,0.8-1c0-0.5-0.2-1.2-0.8-1.2c-0.7-0.1-0.8,0.5-0.9,1.1
		C252.1,12.9,252.2,13.5,252.9,13.5z"/>
	<path class="st0" d="M339.2,20.1c0.6,0,1.6,0.2,1.4-0.7c-0.1-0.9-1.2-1-2-1.2c-0.7-0.1-1,0.4-1.1,1.1
		C337.7,20.4,338.5,20.1,339.2,20.1z"/>
	<path class="st0" d="M336.1,17.4c-0.3,0-0.4,0.2-0.3,0.5c0.1,0.3,0.2,0.5,0.6,0.6c0.3,0,0.3-0.3,0.3-0.5
		C336.6,17.6,336.4,17.4,336.1,17.4z"/>
	<path class="st0" d="M13.6,43.3c0.3,0.1,0.9-0.1,0.8-0.7c-0.2-1.1-0.9-1.8-2.1-2.1c-0.3,0.1-0.8,0.4-0.6,0.7
		C12.1,42,12.7,42.9,13.6,43.3z"/>
	<path class="st0" d="M295.9,13.9c-0.5-0.1-1-0.2-1.5-0.3l0,0C294.7,14.5,295.2,14.4,295.9,13.9z"/>
	<path class="st0" d="M103.6,24.3c-0.2,0.4-0.2,0.8,0,1.1c0.5,0,1,0,1-0.7C104.5,24.2,104,24.3,103.6,24.3z"/>
	<path class="st0" d="M100.8,13.2L100.8,13.2c0.3,0.6,0.2,1.5,1.1,1.8l0,0h0c1.3,1.2,1.7,1.1,2.8-0.6l0,0c0.2,0,0.4,0,0.7,0
		c0.1,0,0.2,0,0.3,0c0.7-0.2,1.2-0.8,1.9-0.9c0.9-0.7,1.2-1.5,0.8-2.6c-0.2-0.4-0.5-0.9-1.1-0.8c-0.2,0-0.5,0-0.7,0
		c-0.8,0.3-2.1-0.6-2.6,0.8c0,0.2,0,0.5,0.1,0.7c-0.2,0.5-0.6,0.7-1.1,0.7c-0.4-0.1-0.7-0.2-1.1-0.3v0
		C100.8,11.9,100.7,12.4,100.8,13.2C100.8,13.2,100.8,13.2,100.8,13.2z"/>
	<path class="st0" d="M98.6,16.4c-0.1,0.2-0.1,0.3,0.1,0.4c0.1,0,0.2-0.1,0.3-0.1c0-0.1,0-0.3-0.1-0.3
		C98.8,16.3,98.6,16.3,98.6,16.4z"/>
	<path class="st0" d="M329.1,14c0.2,0.4,0.4,0.9,0.5,1.3c0.2,0.1,0.4,0.1,0.6,0.2l0,0c0.3,0.1,0.7,0.2,1,0.3l0,0
		c1.3,1.2,2,0.5,2.6-0.8l0,0c1.3-1.2,3.9-1.5,2.8-4.2c-1,0.1-1.9-0.8-2.9,0c-0.2,0-0.4,0-0.6,0c-0.9-0.5-1.6-0.7-1.8,0.7
		c-0.4,0-0.8,0-1.2,0c0,0,0,0,0,0c0,0,0,0,0,0c-0.5-0.4-1-1-1.6-0.4c-0.4,0.4-0.6,1.1-0.2,1.8C328.6,13.2,328.8,13.6,329.1,14z"/>
	<path class="st0" d="M328.1,15.1c-0.2-0.7-0.4-1.3-1.2-1.5C326.9,14.4,327.2,15,328.1,15.1z"/>
	<path class="st0" d="M111.8,16.7c0.1,0.2,0.3,0.3,0.5,0.3c0.1,0,0.3-0.1,0.3-0.1c-0.1-0.5-0.3-0.6-0.6-0.6
		C111.8,16.2,111.7,16.4,111.8,16.7z"/>
	<path class="st0" d="M111.8,14L111.8,14c0.9,0.4,1.8,1,1.7,2.2c0,0.5-0.1,1,0.6,1.1c0.8,0.1,0.9-0.5,1-1.1c0,0,0,0,0,0
		c0.7-0.4,0.5-1.2,0.8-1.8l0,0c0.9-1.4,0.7-2.2-0.7-2.9c-0.1-0.4-0.3-0.7-0.4-1.1c-0.2-0.8-0.8-0.8-1.4-0.6
		c-0.7,0.2-0.8,0.8-0.6,1.4c0.2,0.7,0.3,1.3-0.5,1.7c-0.4-0.2-0.7-0.2-0.9,0.2C111.1,13.6,111.4,13.9,111.8,14z"/>
	<path class="st0" d="M120.1,9.8c0.5,0,0.5-0.4,0.6-0.7c0-0.4-0.2-0.7-0.6-0.7c-0.4,0-0.7,0.3-0.6,0.7
		C119.6,9.4,119.7,9.7,120.1,9.8z"/>
	<path class="st0" d="M116.3,250.6c0.3,0.2,0.6,0.3,0.9,0.5c0.4-0.1,0.6-0.3,0.4-0.7C117.1,250.3,116.5,249.5,116.3,250.6z"/>
	<path class="st0" d="M391.6,57.3c0.2,0,0.4,0,0.6,0c0.2-0.4,0.8-1.1-0.1-1.3C391.5,56,391.6,56.8,391.6,57.3z"/>
	<path class="st0" d="M372.9,166.2c0.1-0.3-0.6-0.3-0.9-0.2c-0.8,0.3-0.7,1-0.6,1.6c0,0.3,0,0.6,0.1,0.9c0.3,0.1,0.5,0,0.3-0.3
		c0-0.1,0-0.3,0.1-0.3C372.8,167.7,372.8,166.8,372.9,166.2z"/>
	<path class="st0" d="M370.3,172.2c0,0-0.1,0-0.1,0c0,0.3,0,0.7-0.1,1C371,173,370.7,172.6,370.3,172.2z"/>
	<path class="st0" d="M378.3,97.9c-1.1-0.1-1.1,0.8-1.2,1.5c-0.1,0.8,0.3,1.5,1.2,1.6c0.4,0,0.8-0.1,0.7-0.7
		c-0.1-1.2,0.9-1.2,1.4-0.9c1.6,1,2,0,2.4-1.2c0.8-0.1,1.7-0.2,1.1-1.4c0-0.1,0-0.2,0-0.4c-0.8-0.7-1.9-0.2-2.8-0.7l0,0
		c-0.8-0.7-1.4-1.8-2.8-1.9c0.2,1,0.7,1.8,0.5,2.7C378.9,97,379.5,98,378.3,97.9z"/>
	<path class="st0" d="M387.1,92.5c-1,0.3-1.5,0.8-1.6,1.7c0.1,0,0.2,0.1,0.3,0.1C386.3,93.7,386.8,93.3,387.1,92.5z"/>
	<path class="st0" d="M211.2,26.9c-0.5,1.7-0.5,1.7,1.9,2.6c1.3,0.4,0.7,1.4,0.7,2.2c0.1,0.2,0.2,0.3,0.3,0.4
		c0.3,0.2,0.5,0.3,0.9,0.2c0.2,0.2,0.4,0.4,0.6,0.6c0.2,0.3,0.4,0.6,0.6,0.8c0.3,0.4,0.5,1.1,1.1,0.9c0.6-0.2,0.4-0.9,0.5-1.3
		c0.5,0.1,0.6-0.3,0.7-0.8c0.1-0.5,0.1-1,0.4-1.5c0-0.4,0-0.7,0.1-1.1c0.1-0.6,0-1.4,0.7-1.5c0.9,0,0.8,0.9,0.8,1.5
		c0,0.7-0.1,1.4,0.8,1.5c0.7,0,1.5,0.5,2-0.2c0.5-0.7,0.4-1.5,0-2.2c-0.6-1-1.2-2.1-2.5-2.4c-0.5-0.2-0.7-0.6-0.8-1.1
		c0.2-0.5,0.6-0.8,1.1-0.7c1.2,0.4,2.2-0.3,3.2-0.8c0-0.2,0-0.5,0-0.7c0,0,0,0,0,0c1.1-2.2,0.9-2.4-1.3-3c-1.3-0.4-2.5,0.3-3.7,0.2
		h0l0,0c0-0.1,0-0.2,0-0.3c-1-0.9-1.9-0.4-2.3,0.6c-0.4,0.8-1,0.9-1.6,1.2c-1.1,1.3-2.7,0-3.9,0.7c-0.2,0.2-0.3,0.4-0.3,0.7
		c0,0,0,0,0,0c-0.4,0.2-0.2,0.6-0.1,1C211,25.4,211.3,26.1,211.2,26.9z"/>
	<path class="st0" d="M187.9,14c-0.8-0.3-0.6,0.3-0.7,0.7C187.8,14.9,187.8,14.5,187.9,14z"/>
	<path class="st0" d="M188.9,14c-0.2-0.3-0.5-0.7-0.7,0C188.5,14.2,188.7,14.2,188.9,14z"/>
	<path class="st0" d="M254.2,45.2c-0.2,0-0.4,0-0.6,0c0,0,0,0,0,0c-0.6,0.5-0.4,1.1-0.4,1.7c1.3,1.2,2.9,2,4.5,2.7
		c0.7,0.3,1.6,0.4,2.3-0.2c0.1,0,0.2,0,0.3,0c0.2-1.3-0.9-1.6-1.7-2.1c-0.3-0.5-0.7-1-1-1.5l0,0l0,0c-1.2-2.9,0.4-5.7,0.7-8.5
		c0.1-0.6,0.5-0.7,1-0.9c0.9-2.3,2.4-4.2,4.5-5.6c1.7-1.1,1.7-1.8,0.2-3.2c-1.2-0.3-1.8,0.2-2,1.3h0h0c-0.5,0.7-1.2,1.5-2,1.6
		c-1.2,0.2-2,0.9-2.8,1.7c-0.9,1.9-2.6,3.4-2.2,5.7c0.1,0.4-0.2,0.9-0.4,1.4c-0.2,0.2-0.4,0.3-0.7,0.5c0.2,0.6,0.5,1.1,0.7,1.7
		C253.6,42.7,254.3,44,254.2,45.2z"/>
	<path class="st0" d="M270.9,39.8c0.4,0,0.7-0.2,0.7-0.6c-0.1-0.4-0.3-0.7-0.7-0.7c-0.4,0-0.7,0.2-0.6,0.6
		C270.3,39.5,270.5,39.8,270.9,39.8z"/>
	<path class="st0" d="M279.4,38.3c-0.1,0-0.2,0.3-0.2,0.4c0.1,0.4,0.5,0.4,0.8,0.4c0-0.1,0-0.3,0-0.4
		C279.9,38.6,279.8,38.2,279.4,38.3z"/>
	<path class="st0" d="M278.3,30c0.1,0.1,0.2,0.2,0.3,0.3c0.1-0.1,0.1-0.2,0.2-0.3c-0.1-0.1-0.2-0.2-0.4-0.2
		C278.5,29.7,278.3,29.9,278.3,30z"/>
	<path class="st0" d="M288.1,21.6c0.4-0.1,0.6-0.3,0.7-0.6c0.1-0.3-0.1-0.4-0.4-0.3c-0.3,0.1-0.5,0.3-0.5,0.6
		C287.8,21.4,288,21.5,288.1,21.6z"/>
	<path class="st0" d="M310.3,25.8c0-0.4-0.3-0.7-0.8-0.6c-0.8,0.1-0.8,0.8-0.8,1.3C309.3,26.4,310.4,27.4,310.3,25.8z"/>
	<path class="st0" d="M308.7,26.5C308.7,26.5,308.7,26.5,308.7,26.5L308.7,26.5C308.7,26.5,308.7,26.5,308.7,26.5z"/>
	<path class="st0" d="M0,71.7c0.5-0.3,1.3-0.5,1.6-1.5c-0.6,0.2-0.9,0.4-1.2,0.5C0.2,71.1,0.1,71.4,0,71.7z"/>
	<path class="st0" d="M3.9,69.5c-0.7,0-1,0.7-1.5,1.1c-0.1,0.1-0.2,0.3-0.3,0.4c0.2,0,0.5,0,0.7,0c0.4-0.5,1.3-0.4,1.3-1.3
		C4.1,69.6,4,69.5,3.9,69.5z"/>
	<path class="st0" d="M12.2,52.4c-0.3,0-0.6,0.1-0.5,0.5c0.1,0.4,0.5,0.5,0.8,0.5c0.3,0,0.5-0.2,0.5-0.6
		C12.9,52.3,12.5,52.4,12.2,52.4z"/>
	<polygon class="st0" points="113.7,25.8 113.7,25.8 113.7,25.8 	"/>
	<path class="st0" d="M107.6,20.4c-0.3-0.6-0.5-0.6-0.8,0l0,0c-0.2,0.4-0.4,0.8-0.7,1.1c0.1,1,0.3,2,1.1,2.9
		c0.4,0.8,0.3,1.7,0.3,2.5c0.1,0.1,0.2,0.2,0.4,0.4c0.7,0.2,1.4,0.3,2.2,0c0.1-0.1,0.2-0.2,0.4-0.4c0.5-0.2,0.5,0.3,0.7,0.5
		c-0.5,0.9,0.2,1.2,0.7,1.6c0.8,0.2,1.6,0.6,1.8-0.7c0,0,0,0,0,0c0,0,0,0,0,0c0,0,0,0,0,0c0,0,0,0,0,0c0,0,0,0,0,0c0,0,0,0,0,0
		c0.1,0,0.2,0,0.3,0c0.5-0.6,0.5-1.2,0-1.8v0l0,0c-0.1-0.1-0.2-0.2-0.3-0.3h0c0-0.1,0-0.3,0-0.4c-1.4,0.1-1.8-0.5-1.5-1.8
		c0,0,0,0,0,0c0.2-0.6,0.5-1.2,0.7-1.7h0c0-0.2,0-0.5,0-0.7c-1.1,0-1.9-1.6-3.2-0.4C108.6,22.2,108,21.6,107.6,20.4z"/>
	<polygon class="st0" points="116.2,30.8 116.2,30.8 116.2,30.8 	"/>
	<path class="st0" d="M118.3,20.3c0.3,0.1,0.7-0.1,0.7-0.4c0.1-0.7-0.5-1-1-1.3h0l0,0c0.2-0.4,0.6-0.6,1-0.7
		c0.9-0.2,1.2-0.8,1.1-1.6c-0.1-0.7-0.7-1.4-1.1-2l0,0c-1.1-1-1.8-0.5-2.2,0.7c-0.1,1.2-0.1,2.4-0.2,3.6
		C116.5,19.9,117.4,20,118.3,20.3z"/>
	<path class="st0" d="M120.5,21.9L120.5,21.9c0.5-0.1,1,0,0.9-0.7c0-0.1-0.2-0.3-0.3-0.3C120.4,20.9,120.5,21.5,120.5,21.9z"/>
	<path class="st0" d="M108.3,18.1c0.7-1.2,0.7-1.2,0.1-1.9C108,16.8,107.7,17.3,108.3,18.1z"/>
	<path class="st0" d="M372.5,172.9c0.8-0.3,1.7,0.1,2.5-0.1c0-0.2,0-0.5,0-0.7c-1.1-0.3-2.1-0.1-3.2,0
		C371.9,172.6,372.2,172.8,372.5,172.9z"/>
	<path class="st0" d="M365,179.7c0-0.6-0.2-0.7-0.7-0.3l0,0c-1.1,0.5-2-0.5-3.1-0.2c-0.3,0.1-0.5,0.2-0.6,0.4c-0.1,0.2,0,0.3,0,0.5
		C362.2,180.7,363.6,180.2,365,179.7z"/>
	<path class="st0" d="M368.6,180.7c0.4-0.1,0.7-0.3,1.1-0.4c0.3-0.1,0.6-0.2,0.8-0.3c0-0.1-0.1-0.3-0.1-0.4
		c-0.3,0.1-0.7,0.2-1.1,0.3l0,0c-0.5,0.1-1.1-0.1-1.5,0.4h0h0c-0.4,0.1-0.9,0.2-1.3,0.3c-0.3,0.6-1.2,1-0.4,1.8
		C366.9,181.9,367.7,181.3,368.6,180.7z"/>
	<path class="st0" d="M358.6,180.4c0.1,0,0.2-0.1,0.3-0.1c0.4-0.2,1-0.2,0.7-0.9c-0.9,0.2-1.8,0.3-2.8,0.5
		C357.3,180.7,358,180.3,358.6,180.4z"/>
	<path class="st0" d="M359.9,181.2c0.7,0.1,1,1.2,1.9,0.8c0.1,0,0.1-0.4,0-0.4C361.2,181,360.6,180.6,359.9,181.2z"/>
	<path class="st0" d="M375.4,117.3c0.2-0.1,0.3-0.2,0.5-0.2c0.1,0.1,0.2,0.2,0.4,0.2c0.7,0.1,1.1-0.3,1.3-0.9l0.1-0.1
		c1.1-0.6,2.4-0.7,3.2-1.8c0.1-0.4,0.2-0.7,0.3-1.1c0.3,0.2,0.5,0.7,1,0.4c0.4-0.3,0.5-0.7,0.3-1.1c-0.2-0.8-0.3-1.7-0.3-2.6
		c0-0.5-0.1-0.9-0.6-1.2c0,0-0.1,0-0.1,0c0-0.1,0-0.1,0-0.2c0.4-0.1,0.6-0.4,0.7-0.8c0.4-2-0.3-3.7-1.4-5.3c-1.4-0.7-2.1-0.4-2.2,1
		c-0.1,0.4-0.1,0.8-0.1,1.2c0.5,1,0,2.3,0.8,3.3c-0.1,0.1-0.1,0.3-0.1,0.5l-0.1-0.1c-0.3,0.2-0.3,0.5-0.3,0.8c0,0,0,0,0.1,0.1
		c0,0,0,0,0,0c-0.1,0.1-0.2,0.3-0.3,0.5c0,0,0,0,0,0c-0.7-0.1-1.4-0.2-2.2,0c-0.6,0.6-0.5,1.7-1.1,2.3c-0.7,0.8-1.9,0.7-2.8,1.1
		c-0.2,0.1-0.3,0.2-0.4,0.3c-0.1,0.1-0.1,0.2-0.2,0.3c-0.3,0.2-0.8,0.4-0.7,0.9c0,0-0.1,0-0.1,0.1c-0.5,0.3-0.7,0.8-0.7,1.3
		c0,0.1,0.1,0.2,0.2,0.3c-1,1.3-1,1.4-0.3,2.1c0,0,0,0,0,0c0.1,0.2,0.2,0.4,0.3,0.6c-0.3,0.5-0.2,0.9,0,1.4l0,0
		c0.3,0.7,0.7,1.3,1.4,0.3l0,0c0.5-0.6,0.4-1.3,0.4-2c0,0,0.1,0,0.1,0c0.5-0.1,0.8-0.4,1-0.7c0-0.1,0-0.3,0-0.4
		c0.1,0,0.3-0.1,0.4-0.1c0.1-0.8,0.7-0.7,1.2-0.7c0,0,0,0,0,0C375.1,117.4,375.2,117.4,375.4,117.3z"/>
	<path class="st0" d="M365.8,167.8c1.2,0.1,1.9-0.4,2.2-1.6c-1.2,1.3-2.5,0.8-3.8,0.5c-1.3-0.3-2.3-0.1-3.2,0.8
		c-0.2,0.6,0,1.4-0.6,1.9c-0.1,0.2-0.2,0.4-0.4,0.6c-0.2,0.7-0.3,1.4-0.5,2.2c-0.2,0.2-0.2,0.4-0.2,0.7c0.1,0.2,0.1,0.3,0.3,0.4
		c0.2,0.1,0.5,0.1,0.7,0.1c0.7,0.7-0.2,1.5,0.1,2.3c1.5,0.3,1.3-0.9,1.4-1.7c0.4,0.3,1-0.3,1.4,0.2l0,0c0.1,0.2,0.2,0.4,0.3,0.6
		c0,0,0,0,0,0c0,0,0,0,0,0c0,0.2,0,0.4,0,0.6c0.1,0,0.2,0,0.3,0c0.2-0.1,0.3-0.2,0.3-0.3c0.3-0.3,0.7-0.6,0.7-1.1
		c0.1,0,0.3-0.1,0.4-0.1c0-0.1,0-0.2,0-0.3c-1.2-0.6-1.4-1.8-1.4-3c0.1-0.1,0.2-0.2,0.2-0.4c0.4-0.2,0.8-0.5,0.9-1
		c-0.5,0-1,0.1-1.5,0.1c0,0,0,0-0.1,0c-0.1,0-0.1,0-0.2-0.1c-0.6,0.4-1.2,0.5-1.8,0c0-0.5-0.1-1,0.3-1.4
		C363.1,167.6,364.4,167.6,365.8,167.8z M361.8,172.2C361.8,172.2,361.8,172.2,361.8,172.2L361.8,172.2
		C361.8,172.2,361.8,172.2,361.8,172.2C361.8,172.2,361.8,172.2,361.8,172.2c0.1,0.1,0.1,0.1,0.1,0.1
		C361.9,172.3,361.8,172.2,361.8,172.2c0,0.1,0,0.2,0,0.3C361.8,172.4,361.7,172.3,361.8,172.2C361.7,172.2,361.8,172.2,361.8,172.2
		z"/>
	<path class="st0" d="M252.1,53.9c0,0.4,0.1,0.9,0.6,0.9c0.6,0.1,1-0.3,1.1-0.9c0-0.5-0.3-0.7-0.8-0.8
		C252.4,53,252.1,53.3,252.1,53.9z"/>
	<path class="st0" d="M25.8,60.7c-0.2,0.5-1.4,1.3,0.3,1.3c0-0.4,0-0.9,0-1.3l0,0C26,60.3,25.9,60.4,25.8,60.7z"/>
	<path class="st0" d="M352.4,179.4C352.4,179.4,352.4,179.4,352.4,179.4c0.3,0.3,0.6,0.7,1,0.4c0.4-0.4,0.2-0.8-0.2-1.2
		c-0.1,0-0.1,0-0.2,0.1c-0.2-0.4-0.6-0.6-0.9-0.8c-0.3-0.2-0.5-0.4-0.8-0.6c-1.5-1.1-3.1,0-4.6,0c-0.1,0.1-0.2,0.1-0.2,0.2
		c0,0,0,0,0,0c0.1-0.1,0.1-0.2,0.1-0.3c-0.6-1.7-2.2-1-3.4-1.4c-0.7,0.4-1.1,0.9-0.6,1.7C345.7,178.6,348.9,179.5,352.4,179.4z"/>
	<path class="st0" d="M363.3,143.1c-0.3-0.9-0.8-1.1-1.5-1.1c-0.9,0-0.9,0.7-1.1,1.4c-0.1,0.5-0.2,1-0.4,1.5
		c-0.1,0.2-0.2,0.5-0.3,0.7c0.1,0.4,0,0.9,0.4,1.3c0.2,0.4,0.3,0.8,0.5,1.2c0.5,0.6,0.9,1.5,2,1c1-0.5,0.4-1.3,0.2-2
		c-0.2-0.6-0.1-1,0.1-1.5C363.5,144.7,363.6,144,363.3,143.1z"/>
	<path class="st0" d="M363.6,159.2c0.2-0.1,0.5-0.2,0.7-0.4c0.1-0.4,0.2-0.8,0.3-1.3l0,0l0,0c0.7,0.1,1.4,0.2,2.1,0.3
		c0,0.2,0.1,0.4,0.1,0.7c-0.1,1.1,0.5,1.5,1.5,1.5c0.8,0,0.7-0.6,0.4-1.1c1.4-0.6,1.4-1.6,1-2.8c0-0.1,0-0.2,0-0.4
		c-0.4-0.3-0.8-0.8-1.4-0.5c0,0.1,0,0.2-0.1,0.3c-0.6,0.2-1,0.6-1.4,1.1h0h0c-1-1.1-1.7,0-2.5,0.4c-0.6,0.5-0.3,1.3-0.7,1.8
		C363.6,159,363.6,159.1,363.6,159.2z"/>
	<path class="st0" d="M348.1,169.6C348.1,169.6,348.1,169.6,348.1,169.6c0.4,0.8-0.2,2.2,1.1,2.5c0.9,0.2,1.6,0.6,2.4,0.8
		c0.4,0.3,0.8,0,1.3,0c0.8-0.1,1.1,0.6,1.7,0.8c1,0.2,1.2-0.5,1.4-1.2c0.8-2.2,1.4-4.6,3.4-6c-1.3-0.7-1.2-2.1-1.7-3.3
		c0.6-0.7,1.2-1.5,1.8-2.2c-0.5-0.6-1.3-0.9-1.7-1.6c-0.2-0.4-0.9-0.6-1.1-0.2c-0.9,1.6-2.9,2-3.7,3.6c0,0,0,0,0,0
		c-0.6,0.5-1.1,1-1.7,1.5l0,0c-1.3,0-1.3,1.7-2.6,1.8c-1.4-0.4-2.1,0-1.8,1.4C347.1,168.2,347.1,169.3,348.1,169.6z"/>
	<path class="st0" d="M330.7,147.3c0.3,1.3,1.1,2.5,1.5,3.8c0.2,0.4,0.3,0.9,0.5,1.2c0,1.5-0.2,3-0.4,4.5c0,0.5,0.2,0.9,0.6,1.2
		c0.3,0.2,0.6,0.3,0.9,0.5c0.3,0.5,0.7,0.9,1.1,1.2c0.1,0,0.1,0.1,0.2,0.1c0.1,0.6,0.2,1.2,0.6,1.7v0c0,0,0,0,0,0.1
		c-0.7,0.3-0.2,0.8-0.2,1.2c0,0.2,0.1,0.3,0.2,0.4c0.1,0,0.2,0.1,0.3,0.1c1,1.3,2.2,2.5,3.9,2.9c0.5-0.5,0.2-0.9,0-1.4
		c0-0.3,0-0.6,0-0.9l0,0c-0.2-0.3-0.3-0.5-0.7-0.5c-0.1-0.9,0-1.8-0.4-2.7c-0.5-0.4-1-0.7-1.4-1.1h0c-0.7-0.5-1.4-1.1-2.1-1.6
		c0-0.1,0-0.1,0-0.2c0.1-1-0.5-1.9-1.1-2.5c-0.7-0.8-0.9-1.6-0.4-2.5c0-0.1,0-0.2,0-0.3c0.1,0,0.1-0.1,0.2-0.1
		c0.1-0.1,0.3-0.3,0.3-0.4c0.2-0.4,0.2-0.9,0.3-1.3c0,0,0.1-0.1,0.1-0.1c0.1,0.2,0.2,0.3,0.3,0.5c0.1,0.1,0.3,0.2,0.4,0.3
		c0.5,0.2,0.9,0.3,1.4,0.4c1.1,1.1,2.2,2.1,3.4,3.2c0,0.4,0,0.7,0.1,1.1c0.1,0.1,0.3,0.2,0.5,0.1c0,0,0.1-0.1,0.1-0.1
		c0.6,0.2,1-0.6,1.5-0.7c0.2-0.5,0.8-0.7,0.8-1.3c2.9-0.9,3.5-1.9,3.2-5.1c-0.2-0.1-0.3-0.3-0.5-0.4c0-0.1,0-0.2,0-0.4h0
		c-0.1-1.5-0.9-2.5-2-3.3c-1.8-1.4-2.5-2-2.6-3.1c0.4-0.7,0.4-1.7,0.9-2.3c0.2-0.2,0.4-0.5,0.4-0.8c0.1,0.1,0.3,0.2,0.4,0.1
		c1.1-0.5,2.1-0.4,2.9,0.7c0.4,0.5,1,0.3,1.4-0.1c0.4-0.4,0.6-0.8,1.1-1.1c0.2,0,0.3-0.1,0.5-0.2c0.5-0.3,1.1-0.3,1.6-0.6
		c0.4-0.3,0.9-0.5,1.5-0.6c2.2-0.3,3.7-1.7,5.1-3.2c0.8-0.9,0.8-2.1,1.5-3c0.3-1.1,1-2.1,1.5-3.2c0.6-1.2,0.9-2.4,0.1-3.7
		c-0.3-0.5-0.4-1-0.4-1.5c-0.2-0.3-0.3-0.7-0.4-1.1c0-0.2,0-0.5,0-0.7c0,0-0.1,0-0.1,0c0-0.1,0-0.2,0-0.3c-0.6-1-1.4-1.9-2-3
		c-0.3-0.6-0.8-1.1-1.5-1l0,0c-0.3-0.5-0.6-0.9-0.1-1.4c0.7-0.8,1.1-1.9,2.3-2.1c0.5-0.1,0.8-0.5,0.8-1.1c0-0.5-0.2-0.9-0.7-0.9
		c-1.2,0-2.3-1.2-3.5-0.1c-0.5,0.4-1.1,0-1.6-0.4c-0.3-0.3-0.6-0.9-0.3-1.1c1-0.8,1.1-2.4,2.5-2.9c0.3,0.6,0.3,1.3,0.9,1.7
		c0.3,0.2,0.6,0.4,1,0.3c0.8-0.6,2-0.4,2.8-1c0,0,0.1,0.1,0.1,0.1c0.7,0.5,0.5,1.3,0.5,1.9c0.1,1.2,0.7,1.8,2,1.5
		c0.2-0.1,0.3-0.2,0.5-0.4c0.6,0.4,1.1,0.9,0.4,1.9c0,0.8,0.3,1.6,0.2,2.5c-0.1,0.6,0.2,1.2,0.9,1.4c0.7,0.2,1.2,0,1.4-0.7
		c0-0.1,0-0.2,0-0.3c0.1,0,0.1,0,0.2-0.1c1.6,0.4,1.9-0.5,1.7-1.8h0l0,0c0.1,0,0.2,0,0.3,0c-0.1-0.2-0.1-0.3-0.2-0.5
		c-0.1-0.3-0.3-0.7-0.4-1c-0.1-0.2-0.2-0.3-0.4-0.5c0,0,0.1,0,0.1-0.1c0.1-0.2,0.1-0.3-0.1-0.5l-0.1,0.1c0-0.9-0.5-1.6-1.4-1.8l0,0
		c0-0.4-0.2-0.6-0.3-0.9c-0.1-0.3-0.3-0.6-0.5-0.8c-0.1-0.1-0.2-0.3-0.4-0.4c0,0-0.1-0.1-0.1-0.1c0.4-0.8,1.1-1.3,1.4-2.2
		c0,0-0.1-0.1-0.1-0.1c0.4-0.4,0.5-0.8,0.5-1.4c0-2,0.6-2.6,2.5-2.7c1.5-0.1,2.2-0.8,2.3-2.5c0.5,0,0.7-0.4,0.9-0.8
		c1.7-3.9,3-7.9,2.5-12.3c0-0.2,0-0.4-0.1-0.6c-1.1-1.1-0.8-2.6-1.3-3.9c0,0,0,0,0,0c0.3,0.4,0.7,0.7,1.1,1c0.1,0,0.2,0.1,0.3,0.1
		c-0.2,1.4,0.5,3.8,1.5,4.7c-0.1,0.1-0.1,0.1-0.2,0.2c-0.2,0.9,0.5,1.8,0.3,2.7c0,0.2,0.1,0.3,0.1,0.5c0.3,0.7,0.5,1.4,1.1,2
		c0.1,0,0.2,0.1,0.2,0.1c0.2,0.1,0.6,0.5,0.7,0.1c0.4-1.3,0.9-0.7,1.4-0.2c0.1,0,0.2,0,0.3,0c0.6-0.7-0.3-0.9-0.4-1.4
		c-0.3-0.4-0.6-0.8-1.1-1c-1.4-0.9-0.8-2.4-1.3-3.6c0-0.1,0-0.2,0-0.3h0h0c0.2-0.1,0.3-0.2,0.5-0.3c0.4,0,0.8,0,0.5-0.6
		c-1.4-2.6-3.3-5-4.3-7.8c0.1-0.9-0.5-1.3-1.1-1.8c-0.1-0.4-0.2-0.7-0.4-1.1c-0.5,0-1-0.1-0.7,0.7c0.2,0.2,0.3,0.4,0.5,0.4
		c-0.3,0.3-0.6,0.5-0.7,0.9c-0.7-0.8-1.5-1.3-2.5-1.7c-0.6-0.2-1.2-0.1-1.7,0.1c-0.4,0.3-0.7,0.5-1.1,0.8c-0.1,0.1-0.2,0.1-0.4,0.2
		c-0.3-0.5-0.9-0.8-0.9-1.5c0.3,0,0.6,0.1,0.7-0.2c0-0.1,0-0.4-0.1-0.4c-0.4-0.2-0.8-0.1-1,0.3c-0.1,0.1-0.1,0.1-0.2,0.2
		c0,0,0,0-0.1-0.1c-0.7-0.6-0.1-1.3,0-2c0.4-2.2,1.5-4.1,1.8-6.3c0.6-3.3,0.8-3.6,4-4.2c0-0.1,0.1-0.1,0.1-0.2
		c0.1-0.3,0.2-0.4,0.3-0.5c0.2-0.1,0.5-0.1,0.7-0.2c0.5,0,1.1,0.1,1.3-0.3c0.1-0.2,0.2-0.3,0.4-0.5c1-0.6,2.1-0.8,3.3-0.3
		c0.3,0.1,0.6,0.2,0.9,0.3c-0.2,0.3-0.1,0.5,0.7,0.4c0.7-0.1,1.1-0.9,1.8-0.9l0,0c0,0.1,0,0.2,0.1,0.3l0.1,0h0.1
		c-0.2-0.4,1.6-1.1-0.2-1.4c-0.4-0.2-0.7-0.5-0.8-0.9c0-0.1,0-0.2,0-0.3c0,0,0,0,0-0.1c0.2-0.6,0.3-1.3,0.4-1.9
		c0.1-0.5,0.1-1,0.1-1.5c0-0.1,0-0.1,0-0.2c0,0,0-0.1,0-0.1c0.3-0.4,0.4-0.9,0.6-1.3c0.9-0.7,1.8-0.8,2.8-0.3
		c0.2,0.3,0.5,0.5,0.6,0.7c0.2,0.5,0.8,0.7,1.2,0.8c0.5,0.1,0.5-0.3,0.6-0.7c0.1-0.1,0.3-0.3,0.5-0.5c0-0.4,0.2-0.8,0.4-1.2
		c0.2-0.2,0.4-0.3,0.7-0.3c0,0.1,0,0.2,0,0.4c0,0.4,0.3,0.8,0.1,1.2c-0.8,2.1-0.5,4.4-0.7,6.6c-0.1,1.4-0.4,2.6-1.4,3.6
		c0,0.1,0.1,0.1,0.1,0.2c1,0.4,1,1.1,0.7,1.9c-0.5,1.1-0.2,2.1,0.1,3.1c0.4,1.4,1.1,2.7,1.9,4c1.3,2,2.6,4,3.8,6
		c0.3,0.5,0.3,1.4,1.1,1.2c0.7-0.1,0.8-1,0.9-1.6c0.2-1.1-0.7-2.1-0.3-3.1c1-0.3,1.2-0.7,0.4-1.4v0c-0.1-0.9-0.5-2.1,0.5-2.6
		c1.4-0.8,0.7-1.3,0.1-2.1c-0.6-0.9-1.4-1.9-0.1-2.9c0.2,0.1,0.5,0.1,0.5-0.2c0-0.3-0.1-0.7-0.6-0.7l0,0v0c0-1-1.6-1.1-1.3-2.3
		c0.3-1.4-0.2-1.7-1.4-1.1h0c-0.8-0.3-0.8-1-0.8-1.6c0-1,0-2-0.4-3c-0.3-0.8-0.3-1.5,0.6-1.9c0,0,0.1-0.1,0.1-0.1
		c0.1,0.1,0.3,0.1,0.4,0.2c0.2-0.4,0.3-0.9,0.5-1.3c0.2,0,0.4,0,0.6,0c0,0.3,0,0.7,0.3,0.7c0.5,0,0.4-0.5,0.4-0.8l0,0
		c1.1-1.8,1.6-1.9,3.3-0.8c0.4,0.2,0.8,0.5,1.3,0.4c-0.6-3.7,0.8-6.8,3.1-9.6c0.7-0.3,1.9,0.6,2.2-0.5c0.3-1.2-0.6-2-1.5-2.5
		c-0.9-0.5-1.4-1.1-1.9-1.9c-0.1-0.2-0.1-0.3-0.2-0.5c-0.3-0.7-1.6-0.6-1.2-1.8h0c0.8-2.5,0.6-3.3-1.4-5c-0.5-0.4-0.7-0.8-0.3-1.4
		c0.6-0.8,0.7,0.2,1,0.4c0.5,0.3,0.9,0.5,1.5,0.5c0.3-0.9,0.4-1.9,1.8-1.4c0.7,1.2,1.6,0.9,2.6,0.4c0,0,0,0,0,0c0.3,0.3,0.7,0.2,1,0
		c0.4,0,0.7-0.1,0.6-0.6c0-0.6-0.5-0.7-1-0.8c0-0.1-0.1-0.1-0.1-0.1c0.1-0.9,0-1.7-1-2.1c0,0,0,0,0,0c-0.2-0.3-0.4-0.6-0.4-1.1
		c0.8-0.5,1.2-1.1,0.4-1.9l0,0c0.2-1.2-0.4-1.7-1.5-1.8v0c-0.7-0.2-1.4-0.4-2.2-0.6c-0.3,0.8-1.5,0.9-1.8,1.8
		c-0.4-0.1-0.7-0.3-1.1-0.4c-0.6-0.2-1.2-0.9-1.8-0.1c0,0,0,0,0,0l0,0c-0.6-0.8-1.5-0.6-2.3-0.7c-1.5-0.2-3.1-0.2-4.6-0.6
		c-2.7-0.7-5.4-1.3-8.2-0.1c-0.7,0.3-1.5,0.5-2.3,0.3c-1.3,1.1-0.1,1.6,0.6,2.2c0.7,0.7,1.9,1.2,1.4,2.3c-0.9-0.9-2.1-1.3-3.2-1.9
		c-0.1-0.1-0.2-0.3-0.3-0.4c0-0.6-0.4-0.9-1.6-0.6c0,0.1,0.1,0.2,0.1,0.3c0,0,0,0,0,0c-0.1,1.1-0.7,1.7-1.9,1.7
		c-0.6,0-1.2-0.1-1.8,0.4c0,0,0,0,0,0l0,0c0,0,0,0,0,0c-0.5,0.2-1.1,0.4-1.6,0.8c-1.4,1-2.6,0.8-3.4-0.7c-0.2-0.4-0.5-0.7-0.8-0.9
		c-0.1-0.1-0.2-0.2-0.3-0.4c-2-1.1-4.1-0.8-5.8,0.5c-1.6,1.2-2.9,1.4-4.3-0.1c-1.2,0.6-2.8,0.4-3.1-0.5c-0.8-2.6-2.2-1.6-3.7-1l0,0
		c-0.4,0-0.7,0.1-1.1,0.1c-0.9-0.2-1.9-0.3-2.8,0.2l0,0c-0.9,0.4-2.6-0.8-2.7,1.3c-0.4,0.2-1,0.2-0.9,0.9c0,0.4,0.3,0.5,0.6,0.3v0
		c0.3,1,2.6,2.1-0.2,2.9c-0.6,0.1-1.2,0.2-1.8,0.3c0,0,0,0,0,0c-0.4,0.1-0.8,0.2-1.2,0.3c-0.5,1-1.5,0.6-2.3,0.7
		c0,0-0.1,0.1-0.1,0.1c-0.2-0.2-0.4-0.3-0.5-0.1c-0.3,0.3-0.2,0.5,0,0.7c0,0.1-0.1,0.2-0.1,0.3c0.2,0.7,0.1,1.4,0.4,2.1
		c-2-0.2-3.3-1.9-5.1-2.4c0-0.2,0-0.4-0.1-0.5c0.3,0.1,0.8,0.3,0.8-0.2c0-0.7-0.5-1-1.2-1.1v0c0-0.1-0.1-0.2-0.1-0.3
		c-0.2-0.4-0.5-0.9-0.7-1.3c-1-0.5-1.9-1.9-3.3-0.5c0,0,0,0,0,0c-0.6-0.2-1.1-0.5-1.7-0.5c-0.7,0-1.5,0.2-1.3,1.2
		c0.1,0.5,0.9,1,0,1.5c-0.9,0.4-1.8,1.3-2.9,0.4c-0.2,0-0.3,0-0.5,0c-0.4,0.2-0.8,0.3-1,0.2c-0.1,0-0.2-0.1-0.3-0.1
		c-0.3-0.2-0.4-0.6-0.4-1.2c-1.3,0.2-2.6,0.5-4,0.7c-1.1,1-2.3,1-3.6,0.6c-0.8-0.3-1.6-0.6-1.4,0.8c0.1,0.2,0.2,0.5,0.3,0.7
		c0,0,0,0,0,0c0,0,0,0,0,0c-0.5,0.9-1,1.8-2.3,1.9c-0.1-0.1-0.2-0.2-0.3-0.4l0,0l0,0c1.1-2.8,1.5-5.8,2.5-8.6
		c-0.4-0.4-0.7-0.8-1.1-1.2c0-0.1,0-0.2,0-0.3c0,0,0,0,0,0c-1.3-1.6-3.1-2.4-4.9-3.2c0,0,0,0,0,0c-0.4,0.3-1,0.4-1.4,0.7
		c-0.3,0.2-0.5,0.4-0.8,0.5l0,0c-0.9,0.4-0.6-0.7-1-0.8v0l0,0c-0.2,0-0.5-0.2-0.7-0.1c-0.9,0.2-1.9,0.8-2.1-1c0-0.7-1-0.7-1.7-0.7
		c-0.7-0.1-1,0.4-1.1,1c-0.3,1.4-0.5,2.8,0.6,4c0,0.4,0,0.7,0,1.1l0,0l0,0c-0.3,0-0.5,0-0.8,0c-0.1,0.2-0.1,0.4-0.2,0.6
		c0,0.1-0.1,0.2-0.1,0.4l0,0c-0.1,0.1-0.3,0.2-0.4,0.4v0c-0.6,0.4-1,1.8-1.9,0.2c-0.2-0.3-1.3,0.4-1.9,1.1c-0.3,0-0.4,0.3-0.5,0.8v0
		c-0.3,0.7-1.1,0.9-1.6,1.4c-1.6,1.4-3.3,2.7-3.4,5.1c0.3,0.1,0.7,0.2,1,0.3h0c0.3,0.1,0.5,0.3,0.8,0.4h0c0.2,0.3,0.5,0.6,0.3,1.1
		c-0.2,0-0.5,0-0.7,0.1c-0.9,0.8-2.1,1.1-3.2,1.4c-1.1,0.3-1.2,0.8-0.8,1.9c0.6,1.6,2.1,2.1,3.2,3c0.1,0.9-0.5,0.8-1.1,0.8
		c-0.1,0-0.1-0.1-0.2-0.1c-1-0.7-2.1-1.4-3.4-1c0-0.4-0.3-0.6-0.7-0.6c-0.3,0.4-0.5,0.9,0,1.3c-0.2,0.1-0.5,0.3-0.7,0.4
		c0,0.1,0,0.2,0,0.3l0.1,0.1c0,0,0,0,0,0c0,0-0.1-0.1-0.1-0.1c-0.3-0.1-0.7-0.2-1-0.4c-0.2-0.2-0.3-0.5-0.5-0.7
		c-0.1,0.6,0,1.2-0.3,1.8l0,0c-0.1,0-0.2,0-0.3,0c-0.4,1.2-0.5,2.3,0.4,3.2c0.1,0.1,0.1,0.1,0.2,0.2c0,0-0.1-0.1-0.2-0.1
		c-1.6-0.9-1.8-2.4-2.1-4c-0.1-0.3-0.2-0.7-0.5-0.9c-0.7-0.7-1.5-0.8-2.4-0.7c-0.5,0.1-1,0.3-1,0.9c0,0.1,0,0.2,0,0.4
		c-0.2,0.2-0.2,0.5-0.2,0.8c0.1,0.3,0.1,0.6,0.1,0.8c-0.1,0.8-0.3,1.6-0.4,2.4c0,0,0,0,0,0.1c-0.1,0.2-0.1,0.3-0.1,0.5
		c-0.1,0.4-0.1,0.7-0.1,1.1c0.3,0.6,0.7,1.2,0.7,2c0.1,1.2,0.7,2.1,1.9,2.6c0,0,0.1,0.1,0.1,0.1c-1.5-0.6-3.1-0.6-4.6-1.3
		c-0.9,0-1.9-0.4-2.8,0c-0.9-0.2-1.8-0.7-2.5-1.5c-0.9,0.4-0.8,1-0.1,1.4c0.6,0.4,1.2,0.7,1.8,1c0,0.1,0,0.2,0.1,0.3
		c0.7,1.3,0.3,1.7-1.1,1.3c-0.2,0-0.3,0-0.5,0.1c-0.1,0.1-0.2,0.1-0.3,0.2c-0.2,0-0.4,0-0.6,0c-0.8,0.2-1.8,0.8-2.3,0.5
		c-1.4-0.8-2.3,0.1-3.4,0.6c-0.2,0.2-0.3,0.4-0.5,0.5c-0.2,0.1-0.4,0.1-0.6,0.2c-0.2,0.1-0.3,0.2-0.4,0.3c0,0.2-0.1,0.3-0.1,0.4
		c-0.2,0.1-0.4,0.2-0.6,0.3c-0.2,0.1-0.5,0.3-0.7,0.4c-0.7,0.2-0.9,0.9-1.1,1.4c-0.3,0.3-0.5,1-1.1,0.7c-0.6-0.3-0.2-0.9-0.1-1.4
		c0,0,0,0,0,0v0l0,0c-0.1-1.6-0.7-2.2-2-2.1c-1.6,0.1-1.1,1.1-0.9,2.1c0.1,0.5,0,1,0.1,1.4c0.1,0.2,0.1,0.3,0.2,0.5c0,0,0,0,0,0
		c0,0,0,0,0,0c-0.1,0.1,0,0.2,0.1,0.3c0.3,0.6,0.2,1.1-0.6,1c-0.6,0-1.5,0.6-1.5-0.7c0.4-0.6,0-0.9-0.5-1.2c0,0,0,0,0,0
		c0,0-0.1,0-0.1-0.1c0.1-0.2,0.1-0.4-0.1-0.6c-0.8-1.3-2.5-1.3-3.5-2.3c-1.3-1.2-2.9-1.9-4.7-1.7c-1.5-0.5-3.3-0.7-3.9-2.5v0
		c-1.4-0.4-2.7-1.3-4.3-0.7c-1.1-0.3-2.2-0.7-3.2,0.4c0,0,0,0,0,0s0,0,0,0l0,0c-0.1,0.1-0.3,0.2-0.5,0.3c-0.2,0.1-0.3,0.2-0.5,0.3
		c-0.4,0.2-0.8,0.4-1.2,0.5c-0.7,1.1-1.9,0.9-2.9,1.4c-0.2,0.2-0.5,0.4-0.7,0.6c-0.4,0.3-0.8,0.7-1.1,1c-0.3,0.2-0.7,0.4-1.1,0.5
		c-1,0.6-1.3,1.4-0.9,2.4c0.1,0.2,0.1,0.4,0.1,0.6c-0.1,0.3-0.1,0.6-0.1,0.9c-0.1,0.4-0.4,0.8-0.9,1.1c-0.3,0.3-0.3,0.6-0.1,1
		c0,0,0.1,0.1,0.1,0.1l0,0c-0.1,0-0.1,0.1-0.2,0.1c-1.2,1.2-0.8,3.2-2.3,4.2c-0.3,0.3-0.7,0.5-0.9,0.9c-0.7,1.7-2.2,2.6-3.5,3.7
		c-2.1,1.4-2.6,2.3-1.9,4.2c0.4,1.2,0.5,2.3,0.5,3.5c-0.1,1.9,1.4,3,3.3,2.5c1.1-0.3,2.1-0.8,2.9-1.6c-0.1,0.9,0.5,1.6,0.7,2.5
		c0.3,0.5,0.7,0.8,1.2,1.1c0,0,0,0,0,0.1c0,0.2,0.1,0.3,0.1,0.5c0.1,0.2,0.3,0.4,0.4,0.6c0,0.2,0,0.4,0,0.5c-0.5,0-0.9,0.2-1.2,0.5
		c-0.1,0-0.3,0-0.4,0c-0.1,0-0.1,0-0.2,0c0-0.1,0-0.1,0-0.2c0.8-1,0.2-1.9-0.1-2.8c-0.2-0.5-0.6-0.8-1.3-0.7
		c-1.8,0.4-2.6,2.4-1.8,4.2c0,0,0,0,0,0c0,0-0.1,0-0.1,0c-0.3,0.5-0.2,0.9,0.1,1.4l0,0c0.1,0.2,0.2,0.4,0.2,0.5
		c-0.2,0.3-0.4,0.6-0.7,0.8c-0.1,0-0.1,0.1-0.2,0.1c-1.4,0.6-3.3,0.5-3.9,2.3c-0.5,1.4-1.5,2.1-2.8,2.4c-0.3-0.5-0.1-1,0.1-1.5
		c0.3-0.7,0.2-1.3-0.5-1.7c-0.3-0.4-0.8-0.2-1.1-0.4c0-0.1,0-0.3,0-0.4c0.6-0.6,0.2-1.1-0.3-1.4v0c-0.9-1.3-2.3-2.5-2.3-4.1
		c0-1.3-0.2-2.2-1.1-3.1c-0.6-0.6-0.7-1.6-1.8-1.1c-1.1,0.5-2.8,1.1-2.4,2.5c0.6,2.1,0.3,3.3-1.9,3.8c-0.1,0-0.1,0.2-0.2,0.3
		c-0.4,0.4-0.7,0.7-1.1,1.1c-0.8,0.2-1.1,0.6-1.1,1.5c0,0.7,0.5,1.4,0,2.1l0,0c-0.7,1.4-0.3,2.2,1,2.4c0.5,0.1,0.9-0.1,1.4-0.1
		c0.6-0.5,1.3-0.4,1.9-0.7c1-0.4,1.8-1,1.1-2.2c0.7,0,0.9-0.6,0.9-1.1c0.1-0.7,0.4-1.2,0.9-1.6c0-0.1,0-0.1,0.1-0.2
		c0.2,0.1,0.3,0.2,0.5,0.2l0,0c0.2,0.2,0.5,0.4,0.7,0.7l0,0.1c-0.2,0-0.4,0-0.7,0c0.1,0.1,0.1,0.2,0.2,0.4c-0.4,0.1-0.6,0.4-0.9,0.6
		c-0.1,0.2-0.3,0.3-0.4,0.5c-0.5,0.3-0.3,0.7,0,1l0,0v0c0,0,0.1,0,0.1,0.1c0,0,0,0,0,0c-0.1,0.2-0.2,0.3-0.2,0.5c0,0.1,0,0.2,0,0.3
		c-0.3,0.1-0.7,0.3-0.5,0.9c0.2,0,0.4,0,0.6,0c0.3,0.6-0.3,1.2-0.3,1.8c-0.3,0.2-0.7,0.5-1,0.7c-0.3,0.8,0.3,0.7,0.7,0.7
		c0.1,0.1,0.2,0.2,0.4,0.4c0.4,0.2,0.8,0.2,1.1,0.2c0.3-0.2,0.6-0.2,0.9-0.3c0.4-0.2,0.8-0.5,1.2-0.6c-0.3,0.3-0.7,0.5-1.2,0.6
		c-0.3,0.2-0.6,0.3-0.9,0.3c-0.3,0.2-0.6,0.4-0.8,0.9c0,0.1,0,0.2,0,0.3c0,0,0,0,0,0c-0.5,0.7-0.3,1.5,0,2.2
		c0.3,0.2,0.5,0.3,0.8,0.2c0.2,0.1,0.4,0.2,0.7,0.2c2.1,1.7,2.6,2.9,1.8,4.6l0,0c-0.3,1.3-1.4,1.2-2.3,1c-2-0.3-4-0.3-6-0.3
		c-0.9,0.8-1.3,1.8-0.9,3c0.3,1.1,0.1,2.1-0.2,3.1c-0.1,0.5-0.4,1-0.1,1.4c-0.2,0-0.4,0-0.6,0c0,0.1,0,0.2,0,0.3
		c0.2,0.5,0.5,1,0.7,1.4c-0.7,0.8-0.4,1.3,0.4,1.8c0.5,0.1,1,0.2,1.4,0.3c1,0,1.6,0.5,1.8,1.5l0,0h0c0,0.4,0,0.7,0,1.1
		c0,0.1,0,0.2,0,0.2c-0.1,0.1-0.1,0.2-0.2,0.3c-0.2,0.6-0.6,1-1.2,1.2c-1.9,0.7-2.9,2.3-3.1,4c-0.2,2.4-1.6,3.6-3.6,4.3
		c-0.7,0.3-1.1,0.8-0.7,1.4c-1,0.9-2,1.8-2.3,3.2h0c0,0.2-0.1,0.4-0.1,0.6c-1.6,0.6-1.5,2.4-2.6,3.3c-0.2,0.4-0.5,0.9-0.3,1.4
		c0.1,0.1,0.2,0.2,0.3,0.4c0.1,0.1,0.2,0.2,0.3,0.2c0,0.1,0,0.1,0,0.2c-0.3,1.6-0.1,3.3-0.5,4.9c0,0.2,0,0.3,0,0.4
		c-0.4,1.2-1.3,2.3-0.6,3.6c0.3,0.3,0,0.5,0,0.8c0,0.1,0,0.2,0,0.3c-0.3,0.5,0.1,0.7,0.3,1l0.1,0c0,0.3,0,0.5,0,0.8
		c0.7,0,1.4,0,2.1,0c0.8,1.1,1.8,2.1,2.9,2.8c0,0.3,0,0.7,0,1c0.1,0.1,0.2,0.2,0.4,0.3c0,0.1,0,0.3,0,0.4h0c0.3,1.3,1.3,1.7,2.4,2
		c0.1,0.1,0.3,0.1,0.4,0.2c0.1,0.6,0.6,0.8,1.1,1.1l0,0v0c0.4,0.7,1.2,1,1.8,1.4l0,0l0,0c0.6,0.6,1.3,0.4,2,0.1
		c1.8-0.9,3.6-0.9,5.5-0.6c0,0,0,0,0,0c1.6,0.6,2.8-0.2,4-0.9c1.8-0.5,3.5-1,5.4-0.4c0,0,0,0,0,0c0.1,0.2,0.3,0.5,0.4,0.7
		c0.2,0.3,0.3,0.6,0.5,1h0c1.1,1.4,2.3,0.7,3.5,0.4v0c0.1,0.4,0.3,0.7,0.7,0.8c1.1,0.4,1.5,1.3,1.3,2.4c0,0,0,0,0,0
		c-0.2,0-0.2,0.2-0.3,0.4c0,0.2-0.1,0.5-0.1,0.7c0.1,0,0.3,0,0.4,0c-1.2,3.1-0.3,5.4,2.5,7.2c0.1,0.1,0.2,0.3,0.3,0.4c0,0,0,0,0,0
		c0,0.1,0.1,0.2,0.2,0.3c0,0,0,0,0,0c0,0,0,0,0,0c0,0.2,0.1,0.4,0.1,0.7c0.2,0.1,0.4,0.2,0.6,0.4c0,0,0,0,0,0c0,0,0,0,0,0
		c-0.2,0.8,0,1.5,0.6,2.1l0,0c0.3,1.7,0.2,3.4,0.9,5.1c0.4,0.9,0.2,1.7-0.5,2.5c-1.7,1.6-2,3.7-2.1,5.9c-0.3,0.9,0.1,1.5,0.5,2.3
		c1.1,1.8,2.3,3.7,2.6,5.8c0.5,3.3,0.9,6.6,3.3,9.2c0-0.1,0-0.1,0-0.2l0,0c0,0,0.1,0,0.1,0c0,0.1-0.1,0.1-0.1,0.2
		c0.2,1.9,1.2,3.6,1.2,5.6c0,1.6,1.3,2.1,2.9,1.8c1.3-0.3,2.6-0.8,4-0.7c2.2,0.2,4.1-0.6,5.8-1.8c2.4-1.7,3.8-4.4,5.8-6.5
		c0.6-0.6,0.8-1.5,0.6-2.4c0.3-0.7,0.6-1.5,1-2.2c1.3-0.2,2.1-1,2.7-2c0.6-1.3,0.4-2.5-0.3-3.6v0c0-0.1-0.1-0.2-0.1-0.4
		c0.1-0.5,0.2-1.1,0.3-1.6c0,0,0,0,0,0l0,0c0.8-0.6,1.6-1.2,2.4-1.9c0.6-0.1,0.9-0.4,1.2-0.9h0c0.2-0.2,0.3-0.3,0.5-0.5v0h0
		c2.6-0.7,3.6-1.9,3.6-4.5c0-1.1,0-2.2,0.1-3.4c0-0.8-0.1-1.4-0.8-1.8c-0.3-1.4-0.2-2.9-0.6-4.2c-0.5-1.5,0.1-2.4,0.6-3.6
		c0.7-1.5,2-2.3,2.8-3.6v0c0.1-0.1,0.1-0.2,0.2-0.3c1.8-1.4,3.1-3.5,5.3-4.4c0.2-0.2,0.5-0.4,0.7-0.6c0.1-0.2,0.1-0.3,0-0.5
		c0-0.1,0.1-0.1,0.1-0.2c0.1,0,0.2,0,0.3-0.1c0.2-0.1,0.3-0.2,0.4-0.3c0.3-0.2,0.5-0.4,0.7-0.6c0.1,0,0.2-0.1,0.3-0.1
		c0.3-0.5,0.7-1,1-1.5c0.1,0,0.3,0,0.4,0c0.5-1.1,1-2.1,1.5-3.2c0.1-0.1,0.1-0.2,0.1-0.3c0,0,0.1-0.1,0.1-0.1c0.3-0.8,1-1.3,1.3-2.1
		c0.3-1,0.9-2.1,0.2-3.1c-0.8-1.1-1.9-0.2-2.8-0.1c-2.5,0.2-4.8,1.5-7.4,0.8c0,0,0-0.1,0-0.1c0-0.1,0-0.2-0.1-0.3
		c-0.1-0.8,0.3-1.1,0.8-1.3c0.4,0,0.8-0.1,1.4-0.3c1.3-0.5,2.6-0.7,3.8-1.3c0.6-0.3,1.3-0.4,1.3-1.2c0-0.1,0-0.1-0.1-0.2
		c0,0,0-0.1-0.1-0.1c0,0,0,0,0,0c0,0,0,0,0,0c0,0,0,0,0,0c0,0,0,0,0,0c0,0,0,0.1,0.1,0.1c0.1,0.1,0.1,0.1,0.2,0.2
		c1.3,0.2,2.4-0.4,3.5-0.9c0.6-0.8,1.2-1.6,1.9-2.3v0c1.6-0.2,2.6-1.3,3.7-2.3c0.8,0.2,1.3-0.6,1.9-0.8c0.3-0.8,0.5-1.6,1.1-2.3
		c1.8-2,1.7-2.1-0.2-4.1c0,0,0,0,0,0c-0.8-0.1-1.6-0.3-2.4-0.4c-0.4-0.6-0.8-1.2-1.1-1.8h0l0,0c0-0.1,0-0.3,0.1-0.4
		c-0.1-0.4,0.3-1.1-0.4-1.3c-0.3-0.1-0.3,0.5-0.4,0.9c0,0,0,0,0,0c-0.5,0.4-0.9,0.8-1.4,1.2c-0.1,0.3-0.3,0.7-0.4,1
		c-0.3,0.1-0.7,0.3-1,0.4c-0.9-0.4-2-0.2-2.8-0.8c0,0,0,0,0,0c-0.1-0.5-0.2-1-0.4-1.4l0,0c0.1-0.1,0.2-0.2,0.3-0.3
		c-0.1-0.4-0.3-0.6-0.8-0.7c-0.1,0.3-0.1,0.5-0.2,0.8c-0.3-0.2-0.6-0.3-0.9-0.5c-0.1-1.1-0.7-2-1.7-2.5v0c-0.3-0.5-0.5-0.9-0.8-1.4
		c0-0.4-0.1-0.8-0.5-1.1h0c0,0,0,0,0,0c0.1-0.3,0.2-0.6,0.3-1c0.3-0.1,0.5-0.1,0.8-0.1c0.7,0.2,1.3,0.6,1.8,1.2
		c0.8,1.2,1.9,2.1,3,2.9c0.2,0.2,0.4,0.3,0.7,0.4c0.3,0.1,0.7,0.2,1,0.2c0.4,0.2,0.9,0.3,1.3,0.1c0.4,0,0.7,0.1,1.1,0.2
		c0.8-0.1,1.3,0.4,1.9,0.8c1.9,1.3,3.9,1.4,6.1,1c0,0.2,0.1,0.4,0.3,0.5c0.5,0.2,0.9,0.2,1.4,0.2c2.1-0.2,4.2-1,5.7,1.3
		c0.3,0.5,0.8,0.6,1.3,0.2c0.1,1,1.1,1.4,1.5,2.2c0.9,2.3,1.7,2.6,3.9,1.7c0.9,0,0.6,0.7,0.7,1.2c0,0.8,0,1.5,0.2,2.3
		c1.5,4.6,3.9,8.9,5.9,13.3c0.6,1.3,1.6,1.4,2.6,0.5c0.8-0.6,1.5-1.3,1.9-2.3c0,0,0,0,0,0c0.3-0.1,0.4-0.6,0.5-1
		c0.3-3.1,0.7-6.2,2.7-8.7c0.4-0.4,0.9-0.8,1.3-1.2c2.1-2,3.6-4.6,6.4-5.6c0.4,0.2,0.9,0.1,1.3,0.2c0.7-0.3,1.4-0.1,2.1-0.1
		c-0.2,0.8,0.3,1.4,0.8,2c1.6,1.7,3,3.4,2.9,5.9c0,0.3,0.3,0.5,0.5,0.7c0.8,0.3,1.5,0.1,2.2-0.1
		C329.7,145.8,330.5,146.2,330.7,147.3z M279,57.5c0.2-0.2,0.3-0.4,0.4-0.7c0.3-0.7,0.3-1.5,0.5-2.2c0-0.1,0-0.3,0-0.4
		c0.1-0.6,0-1.1-0.2-1.6c0.1,0.2,0.3,0.4,0.6,0.6c0,0.1,0,0.1,0,0.2c0,0,0,0,0,0c-0.2,0.3-0.3,0.7-0.4,1c0,0.1,0,0.1-0.1,0.2
		c-0.1,0.8-0.2,1.6-0.5,2.2C279.3,57.1,279.2,57.3,279,57.5C278.9,57.5,279,57.4,279,57.5z M242.3,107.9c-1,0.4-2,1-3,1.5
		c-0.8,0-1.5-0.2-2-1.1c-0.3-0.6-0.3-1.2,0-1.8c0.1-0.2,0.2-0.5,0.3-0.7c0.3-0.5,0.5-1-0.1-1.5c0.1-0.1,0.2-0.2,0.2-0.2
		c0.1-0.1,0.2-0.3,0.3-0.4c0.2-0.2,0.3-0.4,0.3-0.7c0.6,0.3,0.7-0.5,1-0.8c0.7-1.1,1.4-1.3,2.5-0.5c0.1,0,0.1,0,0.2,0.1
		c0,0.1,0,0.1,0,0.2c0.2,0.1,0.3,0.2,0.5,0.4h0l0,0c0,0.1,0,0.2-0.1,0.3c1,2.1,1.1,2.1,2.5,1.1c0,0,0,0,0,0.1
		c0.3,0.1,0.5,0.1,0.7-0.1c0.8-0.4,1.5-0.3,2.3,0c0.2,0.2,0.5,0.5,0.8,0.7c1.7,1,3.4,2.2,4.7,3.8c0,0.2-0.1,0.4-0.1,0.6
		c-0.4,0-0.8,0-1.1,0.2c-1.6,0.2-3,0-4.5-0.7C246,107.4,244.1,107.2,242.3,107.9z M268.9,115.8c-1.6,0.4-3.6-0.9-4.4-2.4
		c0.2-0.4,0.3-0.8,0.2-1.3c0.6-1.5-0.3-2.7-1-3.9c-0.2-0.2-0.4-0.3-0.7-0.3c0-1.3-1-2.2-1.5-3.3c-0.6-1.3-0.6-2.2,0.6-3c0,0,0,0,0,0
		c0.9,0.2,1.7-1,2.7-0.6c-1.7,2.8-1.7,3.4,0.5,5.8c0.4,0.4,0.7,0.8,0.9,1.3c0.2,0.4,0.5,0.8,0.9,0.9c0.5,2,1.8,3.6,2.7,5.4
		C270.1,115,269.7,115.6,268.9,115.8z M245.2,102.3c-0.1-0.3-0.2-0.7-0.2-1c0.4-0.1,0.7-0.2,1.1-0.2c0.3-0.1,0.5-0.3,0.6-0.6
		c0.9,0.4,1.4-0.4,2.1-0.7c-0.6,0.4-0.9,1.1-1.1,1.8C246.7,101.5,246,101.9,245.2,102.3z M230.3,109.2
		C230.3,109.2,230.3,109.2,230.3,109.2C230.3,109.1,230.3,109.1,230.3,109.2C230.4,109.1,230.4,109.1,230.3,109.2
		c0-0.2,0.1-0.2,0.1-0.2c0,0,0,0.1,0,0.1c0,0,0,0,0,0C230.4,109.1,230.4,109.1,230.3,109.2C230.4,109.1,230.4,109.2,230.3,109.2z
		 M237.7,69.2L237.7,69.2C237.7,69.2,237.7,69.2,237.7,69.2C237.7,69.2,237.7,69.2,237.7,69.2C237.7,69.2,237.7,69.2,237.7,69.2z
		 M250.9,125.5L250.9,125.5C251,125.6,251,125.6,250.9,125.5C251,125.6,251,125.6,250.9,125.5C251,125.6,251,125.6,250.9,125.5
		C250.9,125.6,251,125.6,250.9,125.5L250.9,125.5z M251.3,125.5C251.3,125.5,251.3,125.5,251.3,125.5L251.3,125.5
		C251.4,125.5,251.4,125.5,251.3,125.5C251.3,125.5,251.3,125.5,251.3,125.5z M249.8,80.8C249.8,80.8,249.8,80.8,249.8,80.8
		C249.7,80.8,249.7,80.8,249.8,80.8C249.7,80.8,249.7,80.8,249.8,80.8z M248.7,99.8c0,0,0.1,0,0.1-0.1
		C248.8,99.7,248.8,99.7,248.7,99.8z M244.5,64.4c-0.2,0-0.4,0-0.5-0.2c-0.1-0.1-0.1-0.2-0.2-0.2c-0.3-0.1-0.6-0.3-0.8-0.4
		c-0.5-0.1-1,0-1.4,0c0.5-0.3,1-0.2,1.4,0c0.3,0.1,0.6,0.2,0.8,0.4c0.2,0.1,0.4,0.2,0.7,0.2C244.5,64.2,244.5,64.3,244.5,64.4z
		 M229.1,202.6C229.1,202.6,229.1,202.6,229.1,202.6L229.1,202.6L229.1,202.6C229.1,202.6,229.1,202.6,229.1,202.6
		C229.1,202.6,229.1,202.6,229.1,202.6z M202.5,152.4L202.5,152.4C202.5,152.4,202.5,152.4,202.5,152.4
		C202.5,152.4,202.5,152.4,202.5,152.4C202.5,152.4,202.5,152.4,202.5,152.4z M355.9,121.5C355.9,121.5,355.9,121.5,355.9,121.5
		C355.9,121.5,355.9,121.5,355.9,121.5C355.9,121.5,355.9,121.5,355.9,121.5z M218.7,85.1c0.1,0,0.2-0.1,0.3-0.1
		c0.9-0.2,1.5-0.7,1.9-1.3c0.4-0.5,0.6-1.1,0.5-1.9c-0.1-0.6,0-1.3,0.2-1.9c0.1-0.3,0.3-0.5,0.5-0.7c1.7-1.7,1.7-2.1,0-3.9
		c-0.4-0.4-0.5-0.8-0.5-1.3c-0.2-1.5,0.2-2.8,1.1-4c0.6-0.7,1.2-1.4,1.8-2.2c0,0,0,0,0,0l0,0c0.1,0,0.1,0.1,0.2,0.1
		c0.2,0,0.5-0.1,0.5-0.4c0-1.6,0.9-2.7,2-3.6c0.1,0.4,0.5,0.5,0.5,0.9c0,0.1,0,0.3,0.1,0.4c0.2,0.9-0.3,1.7-0.9,2.2
		c-1.8,1.8-2.2,3.9-1.6,6.4c0.3,1.2,2.2,3.4,3.4,3c1.7-0.5,3.6-0.4,5.1-1.6c0.3,0.5,0.2,1.1,0.1,1.7c-1.8-0.4-3.6-0.9-5.1,0.7
		c0,0.1-0.1,0.2-0.1,0.2c-0.9,0.7-2.3,1.1-1.4,2.8c-1.4,1.8-1.8,3.3-1,4.6c0,0.1,0.1,0.2,0.1,0.3c0,0,0,0,0.1,0
		c-0.5,0.5-1.1,0.6-1.7,0.3c-2.6-1-4.6,0.4-6.5,1.8c-0.6-0.5-1.3-0.6-2-0.6c0.1-0.2,0.2-0.5,0.4-0.7
		C216.8,85.3,218.3,86.1,218.7,85.1z M197.6,117.6c0.7,0,1.5,0.1,2.1-0.3c0,0,0,0,0,0c2-1,3.9-1.9,3.4-4.7c-0.1-0.7,0.4-1.3,1-1.6
		c1.5-0.7,2.5-1.8,2.9-3.4c0.1-0.5,0.5-0.8,0.9-0.6c2.1,1.1,3.3-0.4,4.6-1.5c0.4-0.4,0.9,0,1.3-0.3c0,0,0,0.1,0,0.1
		c0.5,0.4,0.4,1.1,1.1,1.4c0.2,0,0.2,0.2,0.2,0.3c0.4,1.7,1.6,2.5,3.2,2.8c0.2,0.1,0.5,0.3,0.7,0.4c0.1,0,0.3,0,0.4-0.1
		c0,0,0,0.1,0,0.1c0.1,0.5,0.3,0.8,0.8,0.7c-0.1,0.1-0.2,0.3-0.2,0.5c0.4,1.2,0.8,2.2-1.1,2.4c-0.7,0.1-1.4,0.6-1.4,1.6
		c0.1,0.8,0.6,1,1.3,1.1c0.2-0.1,0.3-0.2,0.5-0.3c0.8,0.3,1.6,0.8,2.1-0.2c0,0,0.1,0,0.1,0.1c0.6-0.2,0.9-0.7,1.4-1
		c0-0.2,0-0.5,0.1-0.7l-0.1-0.1c0.6-1,0.3-2.1,0.4-3.1h0c0.3-0.1,0.8,0.1,0.9-0.3c0.1-0.3-0.2-0.5-0.5-0.7c-0.5-0.3-1.1-0.6-1.6-0.8
		c-0.9-1-2.6-1.3-2.9-2.9c-0.9-0.8-2-1.5-1.8-2.9c0,0,0,0,0,0c0.9,1.3,2.3,2.2,3.5,3.3c0.7,0,1.5,0.6,2.2,0.3c0,0,0,0,0.1,0.1
		c0.4,0.3,0.8,0.6,1.3,0.8c-0.1,0.6,0.3,1,0.6,1.5c0.2,0.2,0.5,0.4,0.8,0.4c0,0.1,0,0.2,0,0.2c0.1,0.4,0.4,0.7,0.8,0.8
		c0,0,0.1,0,0.1,0c0,0.1,0,0.2,0,0.2h0c-0.2,0.9,0.7,1.4,1,2.2h0c-0.3,0-0.7,0-1,0c0,0.5,0.1,0.9,0.1,1.4c0.3,0,0.6,0,0.9,0
		c0.1,0.6,0.4,1.1,1.1,0.8c1.4,1.8,1.4,1.8,2.8-0.1c0.2-0.2,0.4-0.4,0.5-0.6c0.2,0,0.3-0.1,0.5-0.1c0.1,0,0.1,0,0.2,0
		c0.4-0.4,0.4-0.9,0-1.3c-0.4,0-0.9,0-1.3,0c-0.1,0-0.1-0.1-0.2-0.1c-0.1-0.3-0.2-0.7-0.3-1c0-0.1,0.1-0.3,0.1-0.4c0,0,0,0,0,0
		c0,0,0,0,0,0c1.2-0.2,2-1.6,3.3-1.5c-0.9,1.4-0.8,3.2,0.4,4.8c0.1,0,0.2,0.1,0.4,0.1c-0.1,0.4,0.1,0.6,0.8,0.5c0,0,0,0.1,0,0.1
		c1.9,2.8,5,1.3,7.5,2.1c0.6,0.2,1.2,0.2,1.7-0.2c0.2-0.1-0.1,0,0.1-0.1c0.9-0.6,1.6-0.5,2.3,0.2c-0.7,0.4-0.2,1.1-0.2,1.6
		c0.1,0.2,0.2,0.3,0.3,0.5c-0.1,0.1-0.2,0.2-0.3,0.4c-0.1,0.1-0.2,0.3-0.2,0.4c0,0.2,0,0.4,0,0.6c-0.1,0.1-0.2,0.1-0.4,0.2
		c-0.2,0.2-0.3,0.4-0.3,0.7c0,0.1,0,0.1,0.1,0.2c-0.7,0.5-0.8,1.4-1,2.2c0,0,0,0,0,0c-0.2,0-0.4,0-0.6,0.1c-1.2,0.1-2.5-0.9-3.6-0.4
		c-1.9,0.9-3.6,0.1-5.3-0.2c-0.6-0.1-1.2-0.4-1.9-0.2c0,0,0,0.1-0.1,0.1c-1.1-0.5-2.3-1-3.4-1.5c-0.8-0.6-1.7-0.2-2.5,0
		c-1.1,0.8-0.4,2.2-1.1,3.2c-0.3,0.3-0.6,0.3-1,0.3c0,0,0,0,0,0c-0.2-0.8-1-0.9-1.6-1.3c-0.7-0.3-1.5-0.2-2.1-0.8
		c-0.7-1.2-1.9-1.6-3.1-1.8c-0.6-0.1-1.3,0-1.9-0.4c-0.3-0.2-0.7-0.3-1.1-0.1c0,0.1,0,0.1,0,0.2c-0.3-0.1-0.6-0.2-0.9-0.3
		c-0.1-0.2-0.1-0.3-0.2-0.5c0,0,0.1-0.1,0.1-0.1c0-0.5,0.2-0.8,0.6-1c0.4-0.4,0.6-0.9,0.6-1.5c-0.1-0.6,0-1.2-0.1-1.8
		c-0.3-0.7-0.9-1.1-1.7-1.1c-0.6,0-1.2,0-1.6,0.3c-1.8-0.1-3.6,0.3-5.4,0.3c-1.4,0-3,0.3-4.3,1c-2.1,1.1-4.1,1.9-6.4,1.5l0,0
		C196,117.9,197.1,117.9,197.6,117.6z M257,148.5c-0.6-0.4-1.1-0.7-1.7-1.1c0-0.4-0.2-0.6-0.5-0.9c-0.2-0.1-0.4-0.2-0.6-0.3
		c0-0.1-0.1-0.1-0.1-0.2c0.2-0.1,0.2-0.3,0.1-0.5c-0.6-0.6-0.5-1.8-1.5-2.1c-0.9-0.9-1.5-1.9-1.6-3.2c-0.1-1-0.4-2.1-1.2-2.9
		c0,0,0,0,0,0c-0.7-0.4-1.3-0.9-1-1.9c0.4-0.9,0.1-1.5-0.8-1.8c-1-0.9-1.4-2.1-1.9-3.3c0,0,0,0,0,0c0.2-0.5,0.5-0.7,1-0.8
		c0.1,0.1,0.1,0.2,0.2,0.3c1.9,3,4.7,5.5,5.6,9.2c0.1,0.3,0.2,0.6,0.5,0.8c1.7,1.2,2.5,3.3,3.9,4.8c0.3,0.3,0.5,0.7,0.9,0.9
		c-0.9,1.2,0.1,2.2,0.5,3.3c0,0.1,0.1,0.2,0.1,0.2C258.1,149.4,257.7,148.5,257,148.5z M277.9,50.2c0.5,0.9,1.1,1.2,2.1,0.6
		c0.2-0.1,0.3-0.2,0.5-0.2c0.1-0.1,0.2-0.1,0.3-0.2c0,0,0.1,0,0.1,0.1c-0.1,0-0.3,0.1-0.4,0.1c-0.8,0.5-1.1,1-1,1.5
		c-0.4-0.6-1-0.9-1.8-0.9c0-0.1-0.1-0.1-0.1-0.2c0.1-0.5,0.1-0.9,0-1.4C277.7,49.8,277.8,50,277.9,50.2z M281.6,126.2
		c0,0.1,0,0.2,0,0.3c-0.1,0-0.2,0.1-0.3,0.1c0-0.1,0.1-0.2,0.2-0.3C281.6,126.3,281.6,126.2,281.6,126.2z M284.5,32.9
		c-0.1,0-0.1,0-0.2,0.1C284.4,32.9,284.5,32.9,284.5,32.9z M276.4,47.6c0.3-0.5,0.4-1,0.1-1.4c0.3,0.4,0.4,0.8,0.5,1.3
		c0,0.4,0.1,0.8,0.3,1.2c-0.3-0.4-0.6-0.7-1.1-1C276.2,47.7,276.3,47.6,276.4,47.6z"/>
	<path class="st0" d="M245.9,119c-0.8-0.5-1.5-0.4-2.1,0.4C244.6,120,245.3,119.8,245.9,119z"/>
	<path class="st0" d="M238.1,117.6c-0.2-0.3-0.5-0.2-0.7,0c0,0.2,0,0.5,0,0.7C237.6,118.1,237.8,117.9,238.1,117.6z"/>
	<path class="st0" d="M187.1,24.8c-0.4,0.2-0.6,0.6-0.7,1C187,25.7,187.1,25.3,187.1,24.8z"/>
	<path class="st0" d="M176.7,55.9c0.3-0.1,0.7-0.3,0.9-0.5c1.3-0.7,2.2-1.7,2.7-2.9c0.8-0.7,1-1.7,0.6-2.7c-0.1-0.3-0.2-0.7-0.3-1.1
		c0-0.2-0.1-0.5-0.1-0.7c-0.1-0.2-0.1-0.5-0.1-0.7v0v0c0-0.2,0-0.5,0-0.7c0.9-0.6,0.7-1.8,1.4-2.6c0.2-0.1,0.5-0.2,0.7-0.3v0
		c0,0,0,0,0,0c0.2-0.2,0.5-0.5,0.7-0.7c0.6-1.2,1.2-2.4,1.8-3.6c1-0.3,0.4-0.9,0.3-1.4l0,0c-0.3-0.5-0.8-0.9-1.3-1.2l0,0
		c-0.2-0.3-0.3-0.6-0.5-0.9c0-0.8-0.7-1.4-0.4-2.2l0,0c0,0,0,0,0,0l0,0c0.5,0,1,0,1.5,0c1.5,0.2,1.3-1.1,0.8-1.5
		c-1-0.6-0.8-1.4-0.9-2.2c0-0.3,0-0.6,0-0.9c0.6-0.6,0.8-1.3,0.8-2.1c0,0,0-0.1,0-0.1c0.2-0.6,0.4-1.1,0.4-1.7
		c0.3-0.8,0.7-1.6,1.3-2.3c0.4-0.3,0.8-0.6,0.3-1.1c0-0.1,0-0.3,0-0.4c0.8-0.1,1.4-0.5,1.4-1.4c0.2-0.1,0.4-0.3,0.7-0.4c0,0,0,0,0,0
		l0,0c0.3-0.2,0.6-0.4,0.9-0.6c0-0.7,0.7-0.7,1.1-1.1c1.3-1,1.2-2.2-0.3-2.9c-0.8-0.4-1.8-0.7-2.4-0.2c-1,0.9-2.3,0.8-3.2,1.6
		c-0.7-0.4-0.2-1-0.3-1.5l0,0l0,0c0.1-0.5,0.4-1.1-0.2-1.5c-0.3-0.2-0.8-0.2-0.9,0.1c-0.6,1.5-2,0.9-3,1.1c0-0.2,0-0.3,0-0.5
		c0.9,0,1.3-0.5,1.3-1.4h0c0-0.1,0-0.3,0-0.4c1.4-0.4,3-0.3,4.3-1.2c0.1-0.6,0.1-1.1-0.7-1.3v0c-0.3-0.1-0.7-0.3-1-0.4
		c-0.5-0.4-0.9-0.7-1.4-1.1l0,0c0.5-1.2-0.4-1-1.1-1c0-0.2-0.1-0.5-0.1-0.7h0c0.5-0.7,0-1-0.5-1.2c-1.8-0.6-3.5-1.4-5.4-1.4
		c-0.8,0-1.7-0.1-2.2,0.7c-0.5-0.1-0.9,1.1-1.5,0.1c-0.3,0.2-0.4,1-0.8,0.7c-1.6-0.9-2.8,0.2-4.1,0.7c0.3,0.4,0.7,0.9,1,1.3
		c0,0,0,0,0,0c0,0,0,0,0,0c-1.3,0.5-2.7,1-2,2.9c0,0,0,0,0,0c0,0,0,0,0,0c-0.1,0.5-0.1,1.1-0.4,1.5l0,0l0,0c-0.4-0.5-0.5-1.1-1-1.5
		c0,0,0,0,0,0c-0.3-0.9-0.3-2.2-1.8-2.1c-0.1,0.6-0.1,1.2-0.2,1.7c-0.1,1.1-0.6,1.6-1.7,1.4c0,0,0,0,0,0l0,0c0.4-1,0-2.1,0.1-3.1
		c-0.1,0-0.2,0-0.4,0l0,0v0c-0.8-0.7-1.6-0.9-2.5-0.3v0l0,0c-1.6,0.1-2.8,0.1-3.2-2c-0.2-1-0.4-2.6-2.2-2.7c-1.7-1.9-4-2.6-6.5-2.9
		l0,0v0c-0.1-0.2-0.3-0.4-0.4-0.7c-0.2,0-0.5,0-0.7,0c-1,0.2-1.9,0.5-3,0.4c-1-0.1-2.8-0.3-3.4,1.4l0,0c-0.5,0.4-1.1,0.8-1.8,0.4
		c-0.4-0.2-0.7-0.4-1.1-0.1v0l0,0c-1,0.7-1.9,1.1-3.2,0.8c-1-0.2-2-0.1-2.8,0.7v0l0,0c-0.2,0.1-0.5,0.3-0.7,0.4c0,0.2,0,0.4,0,0.7
		c0.2,0,0.4,0,0.7,0c0,0.2,0,0.4,0.1,0.7c-0.2,0.1-0.3,0.2-0.4,0.4c0,0.1,0,0.2,0,0.3c-0.1,0.7-0.6,1.4,0,2.2c0,0.1,0.1,0.2,0.1,0.3
		c-0.1,0.4-0.4,0.7-0.8,0.8c-0.3-0.3-0.7-0.5-1-0.8c0,0,0,0,0,0c0.1-1,0.4-2,0.3-3c-0.1-0.5-0.4-0.9-0.8-1c-0.4-0.1-0.7-0.1-0.9,0.4
		c-0.3,1.2-1.6,1.4-2.2,2.3c-1.6,1-1.8,2.9-2.9,4.3c-0.1,0.8,0.2,1.5,0.8,2.1c0,0.1,0,0.3,0,0.4c-0.4,0.1-0.7,0.3-1.1,0.4
		c0,0.6-0.4,1.1-0.1,1.7c-0.1,0.1-0.1,0.2-0.1,0.4c-0.2,1.4,0.5,2.1,2.2,2.1c1.3,0,1.7,0.3,1.1,1.5c0,0,0,0,0,0l0,0
		c-0.2,0-0.5,0-0.7,0c0.2,1.7-0.4,2.7-2.2,2.8c-1.5,0.9-2.8,0.6-4.1-0.3c-0.2-0.1-0.4-0.3-0.6-0.4c-0.4-0.5-0.8-0.9-1.2-1.4
		c-0.6,0-1.2,0-1.3,0.8c-0.1,0.8,0.1,1.7,0.8,2.1c1.5,0.8,1.4,1.9,0.9,3.1c-0.2,0.2-0.5,0.5-0.7,0.7c-0.8,0.5-0.6,1.4-0.7,2.2l0,0
		c0.2,0.5,0.6,0.8,1.1,1.1c0.6,0.3,1.3,0.6,1.9,0.9c0.3,0.1,0.5,0.1,0.7,0c0.1,0,0.2,0.1,0.3,0.1c1.7,0.6,3.6,0.6,5.3,1.3
		c0.6,0.2,1.4,0.1,1.4-0.8c0.1,0,0.1,0.1,0.2,0.1c1.1-0.2,1.6-1,1.7-2c0.1-1-0.5-1.8-1.3-2.3c-0.9-0.5-1.8-0.8-2.9-0.6
		c-1.1,0.2-2.2,0.1-3.3-0.5c-0.1,0-0.1-0.1-0.2-0.1c0.1-0.8,0.6-1.1,1.4-0.9c0.4,0.1,0.8,0.2,1.2-0.2c0,0,0,0,0,0
		c0,0.1,0.1,0.1,0.1,0.2c1.2,0.6,2.7,0.2,3.8,1.2c0.7,0.4,1.1,1.3,2,1.2c0,0.1,0,0.2,0.1,0.3c0.4,0.3,0.7-0.3,1.1-0.4
		c0.1-0.2,0.2-0.4,0.4-0.6c0.1,0,0.2-0.1,0.2-0.1c0,0,0.1,0,0.1,0c0,0,0.1,0,0.1-0.1c0.2-0.1,0.3-0.2,0.5-0.3
		c0.2-0.2,0.4-0.3,0.5-0.6c0.2-0.5,0.1-1,0.2-1.5c-0.1-0.5,0.5-0.9,0.3-1.4c0.6,0.3,1,0,1.4-0.4c0.3-0.4,0.6-0.6,1-0.6
		c0.9,0.1,1.5-0.5,2.1-1c1.5-1.2,1.9-3,3.1-4.4c1.5-0.2,2.9-0.7,4.2-1.6c0.8-0.4,1.5-1,2.2-1.6c0.5-0.5,1.4-0.7,1.7-1.5
		c0,0,0,0,0,0.1c0.2,0.1,0.3,0.2,0.5,0.2c-0.6,0.2-1.1,0.5-1.4,1.2c0,0.1-0.1,0.1-0.1,0.2c-0.8,0.1-1.2,0.6-1.1,1.3
		c0,0.7,0.5,1.2,1.3,1.2c0.1,0,0.1,0,0.2-0.1c-0.2,0.5-0.5,1.1-0.2,1.6c0,0,0,0,0,0c-2.4,0.4-4.7,0.8-7,1.5c-1.3,0.4-2.2,1.2-2,2.5
		c0.2,1.1,0.6,2.2,1.6,2.8c-0.1,0-0.2,0-0.4,0.1c-0.8,0.1-1.3,0.5-1.5,1.3c0.2,1.1,0.3,2.2,0.6,3.3c0.7,1,1.7,1.4,2.9,1.2
		c1.5-0.3,3,0.6,4.5,0.4c0.1,0.1,0.1,0.2,0.2,0.2c0,0,0.1,0.1,0.1,0.1c0.3,1.2,1,2.2,1.2,3.6c0.4,3.2,1.3,6.2-0.2,9.3
		c-0.1,0.3-0.1,0.7,0,1.1c0,0,0,0.1,0,0.1c-0.1,0.1-0.2,0.1-0.3,0.2c0.2,0.4,0.5,0.9,0.8,0.8c0.2-0.1,0.3-0.1,0.4-0.2
		c0.1,0,0.2,0,0.3,0c0.8,0.1,1.3,0.5,1.2,1.3c-0.1,0.4-0.1,0.8-0.2,1.1c-0.6-0.5-1.3-0.6-2.1-0.6c-0.1,0.1-0.1,0.1-0.2,0.2
		c0,0.1-0.1,0.2-0.1,0.3c-0.2,0.2-0.3,0.5-0.4,0.8c0,0-0.1,0-0.1-0.1c-0.2,0-0.4,0-0.5,0.1c-0.6,0.4-0.9,1-0.7,1.7
		c0,0.8,0.3,1.4,0.9,1.9c0.6,0.3,0.5,0.6,0.3,1.1c-0.4,0.9-1.4,1.4-1.8,2.3c-0.6,1.3-0.8,2.7-0.6,4c0.3,1.7,0.1,3.6,1.5,5
		c0,0,0.1,0,0.1,0c-0.2,2.2,0.7,4.2,1.4,6.2c0.2,0.7,0.7,1.2,1.6,1.2c0,0,0.1,0,0.1,0c0.3,1.3,1.5,0.8,2.4,1.1c0,0,0,0,0,0
		c-0.4,0.9,0.2,1.4,1.1,1.7c0.5,0,1,0.1,1.4-0.4c0.1,0,0.2,0,0.4,0c0.6-0.2,0.9-0.8,1-1.3c0.1-0.3,0.2-0.5,0.4-0.7
		c0.2-0.7,0.2-1.5,0.8-2c0.1-0.1,0.1-0.3,0.2-0.5c0.2-1.6,1.6-2.4,2.4-3.6c0,0,0-0.1,0-0.1c0,0,0,0,0,0c0.9-1.6,2.6-2.4,4-3.5
		c0.1-0.1,0.1-0.2,0.1-0.3c0-0.2,0-0.3-0.1-0.4c0,0,0.1-0.1,0.1-0.1c0.5,0,1.1,0.2,1.6,0.2c1.2-0.2,2.1-0.8,2.7-1.8
		c1.1-1.8,2.7-2.5,4.7-2.9c1.4-0.2,3-0.5,4.2-1.5c0.1-0.2,0.2-0.4,0.2-0.6C176.3,56,176.5,56,176.7,55.9z M151,11.8
		c0.1-0.1,0.3-0.3,0.4-0.4c0.5-0.5,1-1.1,1.8-1.1c0,0,0,0,0,0.1c0,0-0.1,0.1-0.1,0.1c-0.4,0.7-0.7,1.4-1.6,1.6
		C151.4,11.8,151.2,11.8,151,11.8z M181.7,33.8C181.7,33.8,181.8,33.7,181.7,33.8C181.8,33.8,181.8,33.8,181.7,33.8
		C181.8,33.8,181.7,33.8,181.7,33.8z M139.5,1.8C139.5,1.9,139.5,1.9,139.5,1.8C139.5,1.9,139.4,1.8,139.5,1.8
		C139.5,1.8,139.5,1.8,139.5,1.8z"/>
	<path class="st0" d="M343.1,172.1C343.1,172.1,343.1,172.1,343.1,172.1C343.1,172.1,343.1,172.1,343.1,172.1c1.3-0.4-0.3-1,0.1-1.4
		c0-0.1-0.1-0.2-0.1-0.3c-0.3,0.1-0.7,0.2-1,0.4c-0.2-0.1-0.3-0.3-0.5-0.4c-1.3-1.1-1.4-3-2.7-4.1c-0.8-0.2-1.3-1.1-2.1-1.2
		c-0.3,0-0.5-0.1-0.7-0.2c-0.1-0.1-0.3-0.2-0.5-0.2c-0.2-0.1-0.3-0.2-0.5-0.4c0-1.7-1.5-1.9-2.7-2.4c-0.1,0-0.1,0-0.1,0.1
		c-0.1-0.4-0.4-0.6-0.6-0.8c-0.2-0.2-0.5-0.3-0.8-0.3c-0.3-0.1-0.6-0.1-0.9-0.2c-0.4-0.1-0.8-0.5-1.1,0c-0.3,0.5,0,0.9,0.4,1.2
		c0.1,0.1,0.1,0.1,0.2,0.2c0,0.2,0.1,0.3,0.2,0.5c0.7,1.2,1.4,2.4,2.8,2.8c0.1,0,0.2,0,0.2,0c0,0.1,0,0.1,0.1,0.2
		c0.1,0.5,0.1,1,0.3,1.5c0.2,0.4,0.6,0.8,0.9,1.2c0.3,0.5,0.7,1,1,1.5c0.1,0.1,0.2,0.2,0.3,0.4c0.4,0.6,0.6,1.3,0.8,1.9
		c0.1,0.1,0.2,0.3,0.3,0.4c0.3,0.3,0.6,0.5,0.9,0.8c0.1,0.1,0.2,0.2,0.3,0.3c0.4,0.4,0.8,0.7,1.2,1.2c0.2,0.3,0.5,0.4,0.9,0.3
		c1,0.6,2,1,3.1,0.7C342.7,174.5,342.8,173.3,343.1,172.1z"/>
	<path class="st0" d="M364.7,148.4c-0.2-0.2-0.5-0.4-0.7-0.5c-0.8,0.9,0,0.9,0.6,1.1c0,0,0,0,0,0c0,0.1,0,0.2,0,0.3
		c0.8,0.5,0.7,1.5,1.4,2.1c0.3,0.2,0.5,0.3,0.8,0.5c0.2,0.1,0.4,0.2,0.6,0.3c0.5,0.4,0.7,0.2,0.8-0.4c0-0.2-0.1-0.5-0.1-0.7
		c-0.5-0.3-0.9-0.6-1.4,0c-0.1-0.1-0.2-0.2-0.3-0.3l0,0C366.1,149.8,365.9,148.7,364.7,148.4z"/>
	<path class="st0" d="M348.1,140.3c-0.9-0.7-1.7-0.6-2.5,0.2c-0.4,0.4-0.5,1-0.1,1.4c0.6,0.7,1.3,0.3,1.9,0.1
		C347.6,141.4,347.9,140.8,348.1,140.3z"/>
	<path class="st0" d="M363.6,153.5c0.3,0,0.6,0.1,0.8,0.3c0,0,0,0,0,0.1c-0.2,0.4-0.4,0.7-0.1,1.1c0.1,0.1,0.3,0.3,0.4,0.4
		c0.2,0,0.5-0.1,0.7-0.1v0c0,0,0,0,0,0c0,0,0.1-0.1,0.1-0.1c0.3-0.5,0.7-1.1,1-1.6c-0.1-0.2-0.2-0.4-0.3-0.7
		c-0.5,0.2-0.8-0.1-1.1-0.4c-0.2-0.4-0.6-0.6-1-0.5c-0.6,0.1-0.3,0.7-0.4,1.1C363.6,153.2,363.6,153.3,363.6,153.5z"/>
	<path class="st0" d="M361.4,149.5c0.3,0.5,0.7,0.9,1,1.4C362.9,149.7,362.6,149.3,361.4,149.5z"/>
	<path class="st0" d="M232.4,119.4C232.4,119.4,232.4,119.4,232.4,119.4L232.4,119.4C232.4,119.4,232.4,119.4,232.4,119.4z"/>
	<path class="st0" d="M235.2,119.1c-1.1-0.3-2.1-0.9-2.9,0.3C233.3,119.3,234.2,120,235.2,119.1z"/>
	<path class="st0" d="M223.4,82.4c0.3-0.2,0.4-0.4,0.4-0.7c0-0.3-0.2-0.5-0.5-0.3c-0.2,0.1-0.3,0.4-0.3,0.6
		C223,82.2,223.1,82.4,223.4,82.4z"/>
	<path class="st0" d="M156.4,174.2c-1-0.3-1.8-0.9-2.6-1.5c-1.3-1.1-2.8-1.8-4.5-1.8c-1.9-0.1-3.8-0.1-5.3-1.5
		c-0.8-0.7-1.9-1.1-3-0.9c-0.3,0-0.7,0-0.9-0.3c-0.1-0.2-0.3-0.3-0.6-0.4c-0.1,0-0.2,0-0.3,0c-0.5-1.5-1.3-2.9-1.9-4.3
		c-0.3-0.4-0.5-0.7-1.1-0.6c0,0,0,0,0,0c0,0,0,0,0,0c0-0.1,0-0.2,0-0.3c-0.3-0.7-1.1-1-1.7-1.6c-0.5-0.5-1-0.7-1.5-0.4
		c0-0.1,0-0.1,0-0.2c-1.4-1.4-2.6-1.7-4.1-0.7c-0.8-1.1-2-1.8-2.9-2.9c-0.2-0.2-0.5-0.2-0.8,0c0.2-1.1-0.9-1.2-1.4-1.8
		c-0.8-0.7-1.7-1.1-2.5-1.8c-1.1-0.3-2.3-0.1-3.4-0.1c-1.5,0-3.1,0.1-4.4-1.1c-1.2-0.5-2.3,0.3-3.5,0.2c0.2-0.1,0.3-0.3,0.4-0.6
		c-0.3-1.5-1.2-1.2-2.1-0.7c-0.6,0.6-1.3,0.8-2,1.2c0,0,0,0.1-0.1,0.1c-1.9-0.2-2.4,1.5-3.3,2.5c-0.8,0.7-1.3-0.1-1.9-0.3
		c-1.7-0.7-2.9-0.4-3.5,1c-0.3-0.3-0.7-0.2-1.1,0c0,0-0.1,0.1-0.1,0.1c-0.3-0.1-0.6-0.2-0.9-0.3c-0.2-0.2-0.3-0.4-0.5-0.6
		c-0.2-0.2-0.4-0.4-0.6-0.5c0,0,0,0,0,0c-0.7-1.5,0.1-3,0-4.6c0.7-2.2,0.2-2.9-2.1-3.2c-1.4-0.2-2.7,0-4.1,0.1h0
		c-0.2-0.1-0.3-0.2-0.5-0.3c0.3-0.5,0.4-1.1,0.3-1.7c0.2-0.5,0.4-0.9,0.6-1.4v0c0,0,0,0,0,0c0.6-0.2,0.7-0.8,0.7-1.3
		c0-0.9,0.4-1.6,1.1-2.1c0.3-0.6,0.2-1-0.4-1.4c-3.4,0.3-4,0.4-4.6,2.1c-0.2,0.3-0.4,0.6-0.5,1c0,0,0,0.1-0.1,0.1
		c-0.3,0-0.6,0.1-0.9,0.2c-1.1,0.4-2.5,1-3.5,0.7c-1.9-0.6-3.1-2.2-3.5-4.2c-0.3-1.5,0.4-3-0.2-4.5c0-0.2,0.1-0.4,0.1-0.6
		c0.3-0.3,0.6-0.8,0.7-1.3c0-0.4,0.1-0.9-0.1-1.2c0,0,0-0.1,0.1-0.1c0.1-0.2,0.1-0.3,0.1-0.5c0.5-1.8,2.3-1.9,3.5-2.7
		c0.2-0.1,0.5-0.1,0.7-0.2c1-0.4,2.1-0.4,3.1,0c0.2,0,0.3,0.1,0.5,0.1c0.3,0.1,0.5,0.2,0.7,0.2c0.2,0,0.5,0,0.7-0.1
		c0.5-0.2,0.9-0.4,1-0.8c0,0,0.1-0.1,0.1-0.1c0.1-0.1,0.3-0.2,0.4-0.3c1.6-0.8,3.2-0.5,4.7,0c0.3,0.2,0.6,0.4,1,0.3
		c0.4,0.1,0.7,0.3,1.1,0.4c0.7,0.2,1,1,1,1.8c0,1.2,0.5,2.3,1.1,3.3c0.1,0.2,0.2,0.4,0.3,0.7c0,0,0,0.1,0.1,0.1l0,0.1
		c0.5,0.8,1,0.8,1.4,0v0c0.5-0.9,0.8-1.8,0.2-2.8c-0.1-1-0.4-2-0.6-3c0,0,0-0.1,0-0.1c-0.2-0.9-0.2-1.6-0.1-2.3
		c0.1-0.4,0.3-0.7,0.5-1c0.2-0.3,0.5-0.6,0.8-0.9c0.4-0.3,0.8-0.5,1.3-0.7h0h0c0.2,0,0.5,0,0.7-0.1c0-0.1,0.1-0.2,0.1-0.3
		c0.2-0.1,0.4-0.2,0.6-0.3c0.4-0.3,0.8-0.5,1.1-0.8c0.4-0.5,1-0.8,1.5-1.2c0.2,0,0.4,0,0.6-0.2l0,0c1.5-1.2,1.7-2,1.1-3.4
		c0.3,0,0.5-0.2,0.8-0.3c1-0.6,1.5-1.5,2.2-2.4c1.3-1.6,2.5-3.2,4.7-3.7c1.3-0.7,1.5-2,1.9-3.3c0.6-1.1,1.9-1.1,2.9-1.6
		c0.5-0.2,0.9-0.5,1.4-0.6c0.1,0,0.1,0,0.2-0.1c0,0,0,0,0,0c0,0.2,0,0.4,0.1,0.6c0.6,0.9,1.3,0.7,2,0.2c0.3-0.3,0.5-0.7,0.9-0.9
		c0.1-0.1,0.3-0.2,0.4-0.3c0.4-0.5,1-0.5,1.6-0.5c0.3-0.1,0.6-0.2,0.8-0.5c0-0.1,0-0.1,0.1-0.2c0.2,0,0.4,0,0.7,0
		c0.3-0.4,0.7-0.6,1.1-0.8c0.7-0.4,0.7-0.9,0.3-1.5c-0.4-0.6-0.8-0.2-1.2,0.1c-0.3,0.3-0.6,0.6-1.1,0.5c-1.4-0.3-2.2-1.1-2.6-2.3
		c0.2-0.4,0.2-0.9,0.6-1.2c0.6-1.9-0.1-2.7-2.1-2.5c0.2-0.2,0.4-0.4,0.4-0.6c0.7,0.2,1.5,0.2,2.2,0.1c0,0,0,0,0.1,0
		c0.1,0.3,0.4,0.6,0.4,1c0.5-0.3,2.5,1.7,1.5-0.9c0.4,0,0.8,0,1.2,0.1c1.6-0.3,3.6,0.1,4.3-2c0,0,0,0,0,0c0.3,0.6-0.1,1.3,0.3,1.9
		c0,0,0,0,0,0c-0.5,0.4-0.7,0.9-0.9,1.5c-0.3-0.1-0.5-0.1-0.8-0.1c-0.2,0.1-0.3,0.2-0.5,0.3c-1,2.1-0.7,2.6,1.5,2.8
		c0.5,0.1,1.1,0.1,1.5,0.3c-0.1,0.1-0.1,0.2,0,0.4c0.8,0.8,1.9,0.4,2.9,0.7c0.1,0,0.3,0,0.4,0l0,0l0,0c0.7,0,1.6-0.3,1.3-1.1
		c-0.5-1.3,0.3-3.2-1.3-3.8c-1.9-0.7-1.8-1.6-1.3-3.2c0.6-1.9,1.7-4-0.9-5.5c-0.1-0.2-0.3-0.5-0.4-0.7l0,0v0
		c-0.2-0.6-0.8-0.9-1.3-1.2c-1.4-1-3.1-1.9-2.1-4.2c0.1-0.2,0-0.5-0.1-0.7c-0.8-1.3-0.8-2.9-1.2-4.3h0c0-1.1,0-2.1-1-2.8
		c-0.1,0.3-0.3,0.7-0.4,1l0,0c-0.5,0.5-0.9,1.1-1.1,1.8c-1,0.5-1.8,2-3.1,1.1c-1.3-0.9-1.1-2.5-0.8-3.9c0.1-0.3,0.2-0.6,0.2-0.9
		c0-0.3-0.1-0.7-0.2-0.8c-1.7-0.5-1.9-2.5-3.2-3.4l0,0l0,0c-0.9-0.6-2-0.3-2.9-0.7c-1.7-0.7-2.1-0.2-2.5,1.5c-0.5,2,0,4.4-2.1,5.9
		c-0.5,0.4-0.5,1.1-0.2,1.7c1.3,2.6,0.9,4.7-1.4,6.3c-0.2-0.1-0.4-0.1-0.7-0.1c-0.5,0.2-1.2,0.3-1.4,0.9c-0.1,0.1-0.1,0.3-0.2,0.4
		c0,0-0.1,0.1-0.1,0.1c-0.5,1.3-0.4,2.6-0.3,3.9c0,0.1-0.1,0.2-0.1,0.3c-0.1,0.2-0.1,0.3-0.2,0.5c-0.1,0.4-0.1,0.8-0.4,1
		c-0.5,0.3-0.9,0.3-1.4,0.1c0-0.1,0-0.2,0.1-0.4c0.2-0.9-0.8-1.3-0.8-2.1c0.3,0.1,0.6,0.1,0.7-0.2c0.1-0.5-0.3-0.6-0.7-0.7
		c0-0.2,0-0.4,0.1-0.6c0.1-0.5,0.2-1,0.3-1.6c0.4-2,0.2-2.3-1.8-2.6c-0.9-0.2-1.7-0.4-2.3-1.2c-1.2-0.7-1.9-2-3-2.7
		c-1.6-1-3.8-1.6-3.5-4.2c0,0,0-0.1,0-0.1c0,0,0,0-0.1-0.1c-1-1.1-0.5-2.2-0.1-3.3c0.5-1,1.4-1.6,2.1-2.4c0.6-1.5,2-2.2,3.3-2.9
		c0.7-0.4,1.4-0.7,0.7-1.6c0,0,0.1,0,0.1,0c0,0,0.1-0.1,0.1-0.2c0-0.1,0-0.1,0-0.2c2-0.1,3.9-0.3,5.4-1.9c0.3-0.3,0.6-0.7,0.5-1.2
		c0.2,0.2,0.4,0.3,0.7,0.4c0,0.1-0.1,0.1-0.1,0.2v0l0,0c-0.3,0.6-0.6,1.2-0.9,1.7c-0.4,0.8,0.1,1.3,0.5,1.7c0.5,0.6,0.9,0.1,1.4-0.2
		v0c1.1-0.8,2.1-1.1,3.1,0.2c0.2,0.2,0.5,0.3,0.8,0.4l0,0c0.1,0,0.3,0,0.4,0.1c1.4,0.1,1.4-0.9,1.1-1.7c-0.5-1.2-0.9-2.4-2-3.2
		c1.1-1.2,2.4-2.1,3.6-3.1c0.8-0.6,1.6-1.4,0.4-2.4c0-0.1,0-0.2,0.1-0.3c1-0.9,2-1.9,2.1-3.4c0-0.7,0.6-0.8,1.1-0.9
		c0.4-0.2,1-0.2,1.2-0.7c0.5-0.1,0.7-0.4,1-0.8c-0.1,0.3-0.2,0.5-0.2,0.9c0.2,0.7,0.4,1.3,0.7,1.9c0,0.4,0,0.8,0,1.2
		c-0.1,1.1-1.6,0.8-1.8,1.8c-0.1,0.1-0.2,0.3-0.1,0.4c0,0,0.1,0.1,0.1,0.1c0.3,1.5,0.6,1.6,1.9,0.6c0,0,0,0.1,0.1,0.1
		c0.2,0.1,0.5,0,0.7,0c0.1-0.1,0.3-0.1,0.4-0.2c0.3,0,0.7,0,1,0c0,0,0.1,0,0.1,0c0.1,0.2,0.2,0.5,0.4,0.7c-0.2,0.5-0.5,0.9-0.7,1.4
		l0,0c0,0,0,0,0,0c0,0,0,0,0,0c-0.2,0.1-0.4,0.3-0.6,0.5c-0.1,0.1-0.3,0.2-0.4,0.3c-0.4,0.4-1,0.8-1.1,1.4c-0.2,1.4-1,1.7-2.1,1.8
		c-0.3,0-0.6-0.1-1-0.1c-0.8-0.1-1.4-0.2-1.9,0.5c-0.3,0.4-0.4,0.9-0.1,1.3c0.5,0.7,1.2,0.7,1.9,0.6c0.6-0.1,1.1-0.1,1.6,0
		c0.7,0.3,1.3,0.8,1.8,1.5c0,0.1,0.1,0.2,0.1,0.4c0.2,0.8,0.5,1.4,0.9,1.9c0.3,0.5,0.9,1,1.5,1.3c0.6,0.4,1.3,0.8,1.9,1.2
		c1.2,0.8,1.5,0.2,1.4-0.9c0.1-0.3,0-0.7,0.4-0.7c0.4,0.4,0.7,0.8,1.2,0.9c1.9-1.1,2.2-2.2,1.6-4.1c-0.3-1.1-1.2-2-1-3.3
		c0.8,0.4,0.7,1.4,1.5,1.4c0.4,0.1,0.9,0.4,1.2,0.1c0.9-1.1,2.1-1.9,3.1-2.9c0.3-0.3,0.3-0.9-0.1-1.1c-1.7-0.7-2.1-2.7-3.7-3.6
		c-1.2-0.8-1.8-1.8-0.3-3c0.4-0.3,0.4-0.8,0.5-1.3l0,0c0.5-0.6,0.3-1.1,0-1.7l0,0c0-0.3-0.1-0.6-0.2-0.8c-0.1-0.3-0.2-0.6-0.4-0.8
		c0,0-0.1-0.1-0.1-0.1c0,0,0,0,0,0c-0.5-0.7-1-1.3-1.6-1.8c0-0.1-0.1-0.3-0.1-0.4c-0.1-0.3-0.4-0.4-0.7-0.5c-0.1,0-0.2,0-0.2-0.1
		c-0.5-0.5-0.9-1-1.3-1.6c0-0.1-0.1-0.3-0.1-0.4c-0.1-0.5-0.3-1-0.6-1.5c-0.1-1.2,0.4-2.4-0.3-3.5c-0.3-0.1-0.6-0.2-0.8-0.3
		c0-0.1-0.1-0.1-0.1-0.2c-0.1-0.1-0.3-0.2-0.5-0.2c-0.2,0-0.4,0-0.6,0c-0.6-0.2-1.2-0.4-1.9-0.6c-0.3,0-0.7,0-1,0
		c-0.2,0-0.4,0-0.7,0c-0.2,0-0.3,0-0.5,0.1c-0.1,0-0.2,0.1-0.3,0.1c-0.3-0.2-0.7-0.4-0.8-0.9c-0.1,0-0.2,0-0.3,0l0,0
		c-0.2-0.1-0.5-0.3-0.7-0.4c0-0.1,0-0.2,0-0.3c-0.2,0-0.5,0-0.7,0c-0.3,0-0.6,0-0.9,0c-0.3,0.1-0.6,0.1-0.8,0.4
		c-0.1,0.1-0.3,0.2-0.4,0.3c-0.8,0.6-1.6,1.1-2,2c-0.2-0.1-0.4-0.1-0.5,0.1c-0.6,0.9-1.2,1.9-1.8,2.8v0l0,0c-0.1,0-0.2,0-0.3,0l0,0
		c-0.3,1.2-0.2,2.4-0.5,3.6c-0.1,0.5-0.1,1.1,0.5,1.4c0.6,0.5,1.2,1,1.8,1.4c0.4,0.1,0.6,0.5,0.8,0.7c-0.9,0.4-0.4,1.5-0.9,2.1
		c0,0,0,0.1,0,0.2l0,0c-0.3,0-0.6,0.1-0.9,0.3c-0.5,1.1-1.3,1.9-2.5,2.4c-0.1-0.3-0.1-0.6-0.1-0.9c0-0.2,0.1-0.3,0.1-0.5
		c0.8-0.6,0.6-1.5,0.6-2.4c-0.1,0-0.3,0-0.4,0v0l0,0l0,0c0,0,0,0,0,0c-0.6-0.3-1.2-0.6-1.6-1c0-0.2,0-0.5,0-0.7
		c-0.1-0.5-0.3-1,0.1-1.5c0.4-0.5,0.4-1.1-0.1-1.6c0,0,0,0,0,0c0.4-1.3,0.8-2.5,0.2-3.8c-0.2-0.4,0.1-0.8,0.3-1.1c0-0.1,0-0.3,0-0.4
		c0.3-0.2,0.5-0.4,0.8-0.6c0.1-0.7,0.4-1,1.2-1c2,0.1,2.5-1.7,3.7-2.7c0.1-0.1,0.1-0.5,0-0.7c-0.7-1.2-3.2-1.6-4.3-0.7
		c-0.7,0.6-1.2,1.3-1.6,2.1v0c-1.7,0.9-0.9-0.6-1.1-1.1h0c0.3-0.5,0.5-0.9,0.8-1.4c0.1-0.1,0.2-0.2,0.3-0.3
		c-0.2-0.4-0.5-0.7-0.7-1.1c-0.4,0.1-0.7,0.2-1.1,0.3v0c-0.8,0-1.6,0-2.4,0.1c0,0.2,0,0.5,0,0.7c0,0.1,0,0.2-0.1,0.3
		c-0.2,0-0.4,0-0.6,0.1c0,0.4,0,0.7,0.3,1c-0.2,0.5,0.1,1.6-1,1c-0.5-0.2-0.9-0.9-1.5-0.2c-0.4,0.6-0.5,1.3,0,1.8
		c0.8,1.1,1,2.4,1.4,3.6c0,0,0,0,0,0c-0.1,0.2-0.1,0.4,0,0.5l0,0c1.3,0.4,1,1.2,0.7,2.1c-1,0.3-0.3,2-1.5,1.9
		c-1.1,0-1.6,0.6-2.1,1.3c-0.2,0-0.5,0-0.7,0.1c-0.1,0.2-0.3,0.4-0.4,0.7c-0.2,0-0.5,0-0.7,0c-0.3,0.1-0.6,0.3-0.4,0.7
		c1.4,0.5,0.6,1.4,0.3,2.1c-0.2,0.1-0.5,0.3-0.7,0.4c-0.1,0-0.2,0-0.3,0c-0.5,0-1,0-1.6,0c-0.3-0.1-0.6-0.3-1-0.4
		c-0.1-1.3-0.7-1.9-2.2-2.1c0,0,0,0,0-0.1c0,0,0,0,0,0c0,0,0,0,0,0c0.3-0.2,0.7-0.3,0.9-0.6c0,0,0-0.1,0-0.1
		c0.1,0.1,0.1,0.1,0.2,0.2c1.2-0.1,2.9,0.7,2.9-1.5c-0.1-0.2-0.3-0.4-0.5-0.6c0.2,0,0.4,0,0.6,0c2-0.1,2.3-0.6,1.6-2.4
		c-0.5-1.1-0.9-2.3-1.7-3.2c0.2,0,0.3,0,0.5,0c0.2-0.1,0.3-0.2,0.4-0.3c0.5-2.5,1.3-4.8,3.7-6.1c0.2-0.5,0.2-0.9-0.2-1.3l0,0
		c-0.3-0.1-0.7-0.3-1-0.4l0,0l0,0c-0.4-0.3-0.9-0.5-1.1-0.2c-0.7,0.9-1.6,1.2-2.6,1.4c-0.1,0-0.2,0.4-0.3,0.6
		c-0.2,0.6-0.5,1.2-0.7,1.8c-0.7-0.2-0.6-0.9-1-1.4v0c-0.8-0.3-1.1,0.8-1.9,0.6c-0.1-0.2-0.2-0.5-0.4-0.7h0c0.1-1-0.3-1.6-1.4-1.7
		c-0.2-0.1-0.3-0.3-0.5-0.4c0,0,0,0,0,0h0c0-0.4,0-0.8-0.3-1.1c0-1.2,0.4-2.4-0.3-3.5v0c-0.8-0.6-2.1-0.3-2.5-1.5l0,0
		c-1.4-1-3.9-1.1-4.3,0c-0.8,2.2-2.9,3.4-4.3,5l0,0c-0.2,0.2-0.4,0.5-0.5,0.7c-0.3,1-0.4,2.2,0.2,2.9c0.6,0.7,1.8,0.3,2.7,0.1
		c0.8-0.3,0.9-1.4,1.8-1.6c0.5,0.1,1,0.1,0.8,0.8h0l0,0c-0.7,0.4-0.7,1-0.7,1.7c0.1,0,0.2,0.1,0.3,0.1c-0.1,0.3-0.2,0.7-0.3,1
		c0,0,0,0,0,0c-0.1,0.1-0.2,0.2-0.3,0.3c0,0-0.1-0.1-0.1-0.1c-1.3,0.5-1.3,0.8-0.3,2c0.1,0.1,0.3,0.2,0.4,0.4c0.3,0.1,0.8,0,0.9,0.6
		c-0.5,0.3-1.2,0-1.6,0.5h0l0,0c-1.1,0.4-0.6,1.4-0.7,2.1c0.1,0,0.3,0,0.4,0v0l0,0c0.4,0.4,0.7,0.9,1.3,1.1c0.8,0.2,0.9,0.8,0.8,1.5
		c-0.5,0.6-0.3,1.2,0,1.8c0.3,0.2,0.6,0.2,0.9,0.2c0.9,0.4,1.9,0.5,2.8,0.3c0.1,0,0.2-0.1,0.3-0.1c0.5,0.1,0.9,0.5,1,1.3
		c-0.1,0-0.1,0.1-0.2,0.1c-0.4,0.2-0.7,0.5-0.9,0.9c0,0-0.1,0.1-0.1,0.1c-0.2-0.1-0.4-0.2-0.5-0.4c-0.1-0.4-0.3-0.7-0.6-0.9
		c-0.7-0.4-1.3-0.3-2.1-0.2c-0.9,0-1.9,0.1-2-1.2c0.8-1.2,0.3-1.9-0.8-2.3c-0.6-0.2-1.1-0.4-1.7-0.6c-0.8-0.9-2-1.4-2.5-2.5
		c-0.2-0.9-0.9-1.6-1.6-1.1c-1.5,0.9-1.4-0.4-1.5-1.1c-0.8,0.2-1.1,0.6-1.4,1.1c-0.3-0.2-0.6-0.4-0.9-0.6c0.1-0.6,0.3-1.3,0.3-1.9
		c0.1-1.1-0.5-0.5-0.9-0.3c-0.6,0.1-1.2,0.4-1.8,0c0-0.1,0-0.2-0.1-0.3l0,0c-1.4-1-2.7,0.2-4.1,0.3c-0.5,0-1.1,0.8-1.3-0.3h0l0,0
		l0.1-0.1c-1-1-1.9,0-2.9,0c-0.3,0.3-0.7,0.3-1.1,0.3c-0.5-0.5-0.7-1.1-0.8-1.8c0,0,0,0,0,0v0c-0.1-0.2-0.2-0.5-0.3-0.7
		c-0.8-0.3-1.6-0.5-2.2-1.1c-0.1,0-0.3,0.1-0.4,0.1c-1.2-1.9-3.5-2.1-5.2-3.3l0,0c-0.8-0.5-0.9-1.7-2.1-1.7c0,0,0,0,0,0v0
		c-0.4-0.1-1-0.1-1.1-0.5c-0.1-2-2.1-2.6-2.8-4.2c0,0,0,0,0,0c-0.4-0.5-0.8-0.3-1.3-0.1C42,22.5,40,22.2,38,23c-1.4,0.6-2.8,1-4,2
		l0,0c-1.3,0.9-2.6,1.8-4.4,1.2c-1-0.3-2.3,1.1-1.9,2.2c0.5,1.6,0.3,3.2,0.4,4.8c0.3,0.9,0.1,1.9,0.9,2.5c-1.6,1.1-3.2,1.1-3.2-0.1
		c0.2-2.3-1.2-1.3-2.1-1.1c-1.2,0.3-2.3,0.8-3.5,1.2c-0.2,0-0.4,0.1-0.6,0.1c0,0.3,0.1,0.5,0.3,0.7c0,0.1,0,0.1,0,0.2
		c0.2,0.6-0.1,1.1-0.4,1.7c-0.5,1-0.5,1.8,0.7,2.3c0.7,0.2,1.4,0,2.1,0.3c0.2,0.1,0.3,0.1,0.5,0.2c0.1,0,0.2,0,0.4,0
		c0.1,0.1,0.2,0.1,0.3,0.2c0.1-0.1,0.2-0.2,0.3-0.3c0.2,0,0.4-0.1,0.6-0.1c0.2-0.1,0.4-0.3,0.4-0.5c0.3,0,0.7-0.1,0.8,0.2
		c0.3,0.7-1.6,3.7-2.4,3.7c-0.9-0.1-1.7,0.4-2.6,0.3c-0.6,0.1-1.2-0.6-1.8-0.1c-0.2,0.1-0.4,0.1-0.6,0.2c-0.1,0.4-0.2,0.8-0.3,1.3
		c-1.7,1.1-3.9,1.8-3.1,4.6c0.1,0.2-0.2,0.6-0.3,0.8c-1,2.3,0.8,2.7,2.3,3.3c-0.1,0.4-0.3,0.7-0.4,1.1c-0.6,0.4-0.2,1.3-0.8,1.8
		c0.2,0.6,0.9,0.4,1.3,0.6c1,0.6,3,0.1,2.7,2.2c-0.7,1.1-1.5,2-2.7,2.6c-0.2,0.2-0.3,0.4-0.5,0.6l0,0c-0.6,0.1-1,0.4-1.4,0.7
		c-0.8,0.2-1.4,0.7-1.5,1.5l0,0c-0.7-0.2-1.4-0.6-2-0.1c-1.2,1.1-2.7,1.5-4.2,1.9c-0.2,0.3-0.5,0.6,0,0.9c0.6,0.3,1,0,1.4-0.5h0
		c0.8-0.7,2-0.3,2.8-1.1c0.4-0.1,0.8-0.2,1.1-0.3c0,0,0,0,0,0c0.5,0,0.9-0.1,1.3-0.4c0.7-0.1,1.5-0.3,2.2-0.4c0.6-1.2,2.1-1.2,2.9-2
		c0,0,0,0,0,0c0.8,0,1.1-0.9,1.7-1.2c0.4,0.1,0.7,0.2,1.1,0.3l0,0c-0.4,0.5-0.5,1,0,1.4c0.4,0.4,0.9,0.1,1.3-0.1
		c0.8-0.4,1.5-0.9,2.3-1.3c-0.3-1-1.1-0.8-1.8-0.7c-0.2,0-0.3-0.1-0.4-0.2c0,0,0,0,0.1,0c0.6-0.4,1.5-0.7,1.3-1.7
		c0,0,0.1-0.1,0.1-0.1c1.3,0,1.5-0.4,1.3-2.2c0,0,0.1,0,0.1-0.1c0.7,0.4,1.4,0.2,2-0.1c0.1-0.1,0.2-0.2,0.3-0.4c0,0,0,0,0,0
		c0,0.1-0.1,0.3-0.1,0.4c0,0.3,0.1,0.6,0.3,0.9c-0.4,0.1-0.8,0.3-1,0.7c0.7,0.4,1.3,0.2,1.9-0.1c0.3,0.1,0.6,0.2,1,0.2
		c0.5,0,1-0.2,1.4-0.4c0.6-0.5,1.6-0.6,2.1-1.3c0.4,0.3,1.1,0.1,1.4,0.7c1.2,1.1,2.4,2.3,4.1,2.5c0.4,0,0.6,0.4,0.8,0.6
		c0.1,0.1,0.2,0.3,0.3,0.4c0.7,0.6,1.5,1.2,1.5,2.3c0.7,1.1,0.6,2.7,2.1,3.3c0.1,0,0.1,0,0.1,0c0.1,0.2,0.2,0.4,0.3,0.5
		c0,0.4,0,0.8,0,1.2c-0.1,0.6-0.3,1.1,0,1.7c0,0,0,0,0,0c0,0,0,0,0,0c0.5,0.8,0.8,1.6,0.7,2.6c0.1,0.1,0.1,0.1,0.2,0.1
		c0,0.1,0.1,0.2,0.2,0.3c0.4,0.1,0.2,1.1,0.9,0.8c0,0,0.1,0.1,0.1,0.1c0.1,0,0.2,0.1,0.3,0.1c-0.1,0.7,0.4,1,1.1,1.1
		c-0.1,0-0.2,0.1-0.2,0.1c-0.6,0.7-0.9,1.4-0.1,2.1c-0.2,1.7,0.7,3.4,0.6,5.1c0,0.2,0.1,0.4,0.3,0.5c0,0,0,0-0.1,0
		c-0.3,0.1-0.4,0.4-0.5,0.7c-0.1,0-0.2,0-0.3,0c-1,0.7-0.7,1.5-0.3,2.3c0.4,0.7,0.8,1.3,1.1,2c0.1,0.2,0.2,0.3,0.3,0.5
		c1.5,1.4,0.6,3.1,0.7,4.7c0,0.5-0.3,1-0.1,1.4c-0.1,0.1-0.1,0.3-0.2,0.4c-0.9,2.8-2.1,5.5-2.6,8.5c-1,1.9-0.4,3.8,0.1,5.6
		c0.3,0.3,0.6,0.6,0.7,0.9c0.1,0.5,0.2,0.9,0.3,1.4c0,0.5,0,1.1,0.1,1.6c0,0.1,0.1,0.2,0.1,0.4c0,0.1,0,0.1,0,0.2
		c0.4,1.6,0.8,3.1,2.6,3.8c0.9,0.3,1.8,0.9,1.8,2.1c0.2,0.3,0.4,0.7,0.6,1.1c0.5,1.4,0.7,3,1.6,4.3c0.7,0.9,1.8,1.8,0.5,3
		c-0.2,0.2-0.1,0.5,0.1,0.6c1.9,0.8,2.5,2.4,3,4.3c0,0.2,0.4,0.3,0.5,0.5c0.3,0.4,0.6,0.7,0.9,1.1c0.3,0.3,0.4,1.1,1,0.7
		c0.5-0.4,0.1-1-0.3-1.2c-0.8-0.5-0.9-1.4-1.2-2.1c-0.3-2.3-1.6-4.2-2.7-6.2c-0.5-0.9-0.8-1.9-0.9-2.9c0.1-0.1,0.2-0.2,0.4-0.3
		c0.4-0.3,0.8-0.3,1.1-0.1c0.2,0.2,0.4,0.5,0.5,0.8c0,0.3,0.1,0.6,0.1,0.9c0,0.2,0,0.4,0,0.6c0,0.1,0.1,0.1,0.1,0.2
		c0,0.1,0,0.3,0,0.4c0,1.2,0.7,1.9,1.4,2.8c0.8,1,2.4,1.5,1.9,3.3c-0.1,0.3,0.3,0.5,0.5,0.6c1.1,0.7,1.8,1.8,2.6,2.8
		c1,1.2,1.6,2.6,1.1,4.3c-0.3,0.9,0.2,1.8,1,2.3c1.7,1.1,3.4,2.3,5.4,3c0.7,0,1.3,0.3,1.7,0.8c1.4,0.2,2.6,1,4,1
		c1.3,0,2.5-0.4,3.6,0.9c1.2,1.5,2.9,2.2,4.7,2.7c1.5,0.4,3,0.8,3.9,2.3c0.2,0.1,0.3,0.1,0.4,0c0.2,0.2,0.5,0.4,0.7,0.6
		c0.1,0.6-0.2,1.3,0.7,1.4c0,0,0,0,0,0s0,0,0,0c0.3,0.2,0.7,0.3,1,0.5c0.9,0.6,1.2,2.3,2.8,1.7c0.2,0.1,0.4,0.1,0.7,0.2h0l0,0
		c0.2,0.3,0.3,0.6,0.5,1c0.5-0.3,1.6,1,1.6-0.6l0,0c0.1-0.1,0.3-0.3,0.4-0.4c0.7-0.2,1.3-0.1,1.8,0.3v0l0,0c1.1,1.5,1.8,3.1,1.3,5.1
		c0.7,1-0.1,1.6-0.8,2.2c-0.6,0.5-1.2,0.9-1.2,1.8c-1.9,1-2.9,3.5-2.2,5.5c0,0.4,0,0.9,0,1.3c-1.1,1.1-1.3,3.1-0.2,3.8
		c1.2,0.8,1.8,2,2.7,3c0.3,0.7,0.5,1.5,0.9,2.1c1.9,2.7,2.5,6.4,6,7.9c1.6,0.7,2.9,1.8,4.3,2.9h0h0c0.7,0.8,0.8,1.8,0.8,2.8
		c0.1,3,0.2,6,0.3,9c0,0.2,0,0.4,0,0.7l0,0c-0.7,2.4-0.7,4.8-0.4,7.3c0.2,1.7,0.7,3.4-0.3,5c0,1.3-0.5,2.6-0.8,3.9
		c-0.4,0.3-0.3,0.7-0.3,1.1c0.1,0,0.2,0,0.3,0c1,1.9,0.2,3.8,0.4,5.7c0.1,0,0.2,0.1,0.4,0.1c-0.2,0.5-0.4,1.1-0.7,1.6
		c0.5,0.4,0,1.4,1,1.4c0.2-0.9-0.2-1.8,0.3-2.6c0,0,0,0,0,0c0.2,0,0.3,0,0.4-0.1c-0.5,1.1,0,2.3-0.2,3.5c0,0.5-0.1,1-0.1,1.5
		c-0.4,0.4,0.9,0.1,0.3,0.7c-0.3,0.3-0.5,0.7-0.9,0.9c-0.3,0.1-0.6,0.3-0.8,0.5c-0.1,0.3-0.3,0.7-0.3,1c0,0.2,0,0.4,0.1,0.5
		c0.3,0.7,1.4,0.4,1.5,1.3c0.1,0.2,0.3,0.5,0.4,0.7h0c0,0.1-0.1,0.3-0.1,0.4c0,0.1,0.1,0.2,0.1,0.4h0c0,0.4,0,0.7,0,1.1h0h0
		c0,0.4,0,0.7,0,1.1c0.4,0.1,0.7,0.2,1.1,0.3l0,0c-0.1,0.6,0,1.2,0.3,1.7c0.1,0.1,0.2,0.3,0.3,0.4c0.1,0.5,0.3,1,0.4,1.4
		c0.3,1,0.8,0.6,1.4,0.2c0,0,0,0,0,0l0,0c0.2,0.2,0.3,0.3,0.5,0.5c-0.1,0.1-0.1,0.2-0.2,0.3c-1.3,1-1,1.6,1.1,2.6c0,0,0,0,0,0
		c0,0,0,0,0,0c0.1,0.2,0.3,0.5,0.4,0.7c0.3,0,0.7,0,1,0c0.1-0.2,0.2-0.5,0.3-0.7l0,0c0,0,0,0,0,0c0.3,0.5,0.5,1,1.2,1.1h0
		c-0.1,0.2-0.1,0.4,0,0.5c-0.6-0.4-1.1-0.1-1.5,0.5c0.7,1.3,2.3,0.9,3.2,1.7c0.2,0.2,0.9,0.1,0.6-0.6c0.8,0.2,1.3-0.5,2-0.5
		c0.5,0,0.9-0.2,0.9-0.7c0-0.4-0.5-0.5-0.8-0.6c-0.9-0.4-1.7-0.8-2.4-1.5h0h0c-0.2-0.5-0.3-1-0.7-1.4v0c-0.2-0.3-0.5-0.5-0.7-0.8h0
		c0-0.1,0-0.2,0-0.2c0.1-0.1,0.2-0.1,0.3-0.1c0-0.1,0-0.2,0-0.3c-0.1-0.4-0.4-0.6-0.8-0.7c0,0-0.1,0-0.1,0c-1-2.3,0.7-4.1,1.7-5.9
		c0.7-1.3,1.2-2.1-0.6-2.9c-1.7-0.8-1.7-1.9-0.2-3c0.6-0.5,1.1-1,1-1.8c-0.1-1.1,0.4-2,0.7-3c0.2,0.2,0.4,0.5,0.7,0.3
		c0.2-0.1,0.3-0.4,0.1-0.6c-0.3-0.4-0.7-0.2-1.1-0.1c0,0,0,0,0,0c-0.2-0.1-0.5-0.2-0.7-0.3l0,0c0.4-0.6-1.1-2.3,0.9-1.9
		c1.8,0.4,2.3-0.2,2.2-1.8c-0.1-1.3,0.2-1.9,1.8-1.8c2.1,0.2,3.8-0.9,4.3-2.5c0.5-1.5-0.7-2.5-1.1-3.8h0c1.3-0.5,2.7,0.6,3.9-0.4h0
		c0.2-0.2,0.3-0.4,0.5-0.7v0l0,0c0.4-0.5,0.9-1.1,1.3-1.6c0.1,0,0.1-0.1,0.2-0.2c0.3-0.3,0.3-0.7,0.2-1.1l0,0l0.1-0.1
		c0.2-0.3,0.5-0.6,0.7-0.9c0.1,0,0.2,0,0.4,0c0.3-0.3,0.7-0.6,0.7-1.2c0.7-0.4,1-1,1.1-1.8c0.6-1,1.2-2,1.7-2.9
		c0.6-1.2,0-2.9,1.2-3.9c0.3-0.3,0.7-0.6,1-1c0,0,0,0,0,0c0.1,0,0.2-0.1,0.4-0.1c0.5,0,0.9-0.1,1.4-0.1c0.5-0.1,0.9-0.3,1.3-0.6
		c0.4-0.3,0.7-0.7,1.2-0.8c0.2,0,0.3-0.1,0.5-0.1c0.9-0.1,1.7-0.2,1.8-1.2c0.1-0.1,0.2-0.1,0.2-0.2c0,0,0,0,0,0
		c0.5,0.1,1-0.2,1.1-0.6c0.3-1.3,1.3-2.2,1.7-3.5c0.6-1.9,1-3.7,0.8-5.7c-0.4-1.4-0.3-2.6,1-3.4c0.4-0.2,0.5-0.7,0.7-1
		c0.3-0.5,0.5-1,0.9-1.4c0.4-0.4,0.9-0.8,1-1.5c0-0.3-0.1-0.5-0.3-0.7c1.6-0.7,1.1-2.1,1.1-3.3C158.2,175.8,157.7,174.6,156.4,174.2
		z M71,47.4c0.1,0,0.2,0,0.3-0.1c0.1,0,0.2,0,0.2,0c0,0,0,0,0,0c0.3,0.3,1-0.1,1.1,0.7c0.1,0.5,0.3,1,0.8,1.2c0.3,0.1,0.7,0.1,1,0.1
		c0,0,0,0,0,0.1c-0.3,0.1-0.7,0.2-1,0.1c-0.5-0.1-0.9,0-1.3,0.3c-0.1,0.1-0.2,0.3-0.3,0.4c-0.5,0-1,0-1.5,0.1
		c-0.4,0-0.7,0.5-1.1,0.4c0,0,0.1-0.1,0.1-0.1c0.3-0.3,0.6-0.6,0.7-1c0-0.1,0-0.2,0.1-0.3c0.3-0.1,0.5-0.4,0.5-0.7
		c0-0.3-0.2-0.4-0.4-0.5c0,0,0,0,0,0c-0.1-0.1-0.2-0.3-0.3-0.4c0,0,0,0-0.1-0.1c0-0.1,0-0.1,0-0.2C70.3,47.5,70.7,47.6,71,47.4z
		 M98.4,95.4C97.8,96.6,97,97,95.7,96c-0.5-0.4-1.1-0.3-1.6-0.3c0.9-0.8,2.3-0.8,3.3-1.6C97.3,95,97.5,95.4,98.4,95.4z M78.5,77.1
		L78.5,77.1L78.5,77.1L78.5,77.1c0,0-0.1,0-0.1,0c0,0,0-0.1,0-0.1C78.4,77,78.5,77.1,78.5,77.1z M76.3,61.8
		C76.3,61.8,76.3,61.8,76.3,61.8c-0.2,0.1-0.3,0.2-0.4,0.3c-0.1,0.1-0.2,0.2-0.3,0.3c-0.2,0-0.5,0.1-0.7,0.2
		c-0.2-0.1-0.4-0.1-0.7-0.2c-0.7,0.2-1.4,0.3-2,0.6c0.8-0.7,1.7-1.3,2.9-1.4c0.3,0,0.7,0,1-0.1C76.2,61.6,76.3,61.7,76.3,61.8z
		 M95.7,101.1c0,0.1-0.1,0.3-0.1,0.4c-0.2,0.1-0.2,0.4-0.3,0.7c0,0-0.1,0-0.1,0c0.2-0.5,0.3-1.1,0.7-1.5
		C95.8,100.9,95.8,101,95.7,101.1z M90,80.3C90,80.3,90,80.3,90,80.3C90,80.3,90,80.3,90,80.3C90,80.3,90,80.3,90,80.3
		C90,80.3,90,80.3,90,80.3z M101.3,101.8c-0.4-1.1-0.1-1.4,1.4-1.4c0,0,0,0,0,0c0,0.1,0.1,0.1,0.1,0.2
		C101.7,100.7,101.3,101,101.3,101.8z M69.6,134.7c0.1,0.1,0.1,0.2,0,0.2C69.6,134.8,69.6,134.8,69.6,134.7z M122.4,46.7
		C122.4,46.7,122.4,46.7,122.4,46.7c0,0.1-0.1,0.1-0.1,0.2C122.3,46.8,122.3,46.7,122.4,46.7z M132.9,48.2c0-0.1,0-0.1,0.1-0.1
		C133,48.1,132.9,48.2,132.9,48.2z M102.9,48.1c-0.1,0.1-0.1,0.1-0.2,0.2c-0.1,0.1-0.3,0.3-0.4,0.4c-0.1-0.1-0.2-0.3-0.2-0.7h0
		c0.1,0,0.1-0.1,0.2-0.1C102.5,48,102.7,48.1,102.9,48.1z M86.7,30.2C86.7,30.2,86.7,30.2,86.7,30.2c0.1-0.1,0.1-0.1,0.1-0.1
		C86.7,30.2,86.7,30.2,86.7,30.2z M44.5,69.3c0.1,0.1,0.1,0.2,0.1,0.3C44.6,69.5,44.5,69.4,44.5,69.3z M119.4,247.9L119.4,247.9
		L119.4,247.9C119.4,247.9,119.4,247.9,119.4,247.9C119.4,247.9,119.4,247.9,119.4,247.9C119.4,247.9,119.4,247.9,119.4,247.9z
		 M130.8,199.4C130.8,199.4,130.8,199.4,130.8,199.4C130.8,199.4,130.8,199.4,130.8,199.4C130.8,199.4,130.8,199.4,130.8,199.4z
		 M130.9,199.4C130.9,199.4,130.9,199.4,130.9,199.4C130.8,199.4,130.8,199.4,130.9,199.4C130.8,199.4,130.8,199.4,130.9,199.4z
		 M109,153.1C109,153.1,109,153.1,109,153.1C109,153.1,109,153.1,109,153.1C109,153.1,109,153.1,109,153.1L109,153.1L109,153.1z
		 M112.9,184c0,0,0.1,0.1,0.1,0.1c0,0,0,0-0.1,0C112.9,184.1,112.9,184,112.9,184z"/>
	<path class="st0" d="M333.4,170c0.1,0.4,0.4,0.5,0.7,0.6c0-0.1,0-0.2,0-0.2c-0.2-0.2-0.4-0.4-0.6-0.6
		C333.5,169.8,333.4,169.9,333.4,170z"/>
	<path class="st0" d="M361,131.8c-0.5-0.2-0.7,0.2-1,0.5c-1.1,1.5-0.9,2.8,0.6,4.6l0,0c0.2-1.4,0.5-2.8,0.7-4.2
		C361.5,132.4,361.4,132,361,131.8z"/>
	<path class="st0" d="M183.2,68.5C183.2,68.5,183.2,68.5,183.2,68.5c1.4-0.1,2.4-1,3.4-1.8c0.8-0.5,1.1-1.3,0.6-2.2
		c-0.5-0.9-1-2-2.4-1.8c-1,0.2-2.1,0.5-3.1,0.8c-1,0.1-2,0.8-2.8-0.5c-0.3-0.5-1-0.2-1.5,0.1c0,0,0,0,0,0c0,0,0,0,0,0l0,0
		c-0.1,0.2-0.4,0.5-0.4,0.5c0.7,0.7,0.6,1.6,0.7,2.5c0.1,1.1,0.3,2.7,2.2,2.4l0,0l0,0C181.1,69.3,182.1,69.3,183.2,68.5z"/>
	<path class="st0" d="M44.5,77c-0.7,0.8-0.4,1.7,0,2.8c0.7-1,1.2-1.7,0.8-2.7C45.1,76.8,44.7,76.7,44.5,77z"/>
	<path class="st0" d="M109,80.3c0.1,0.1,0.2,0.2,0.4,0.4c0.5-0.2,1.1-0.2,1.2-0.8c0.1-0.3-0.1-0.5-0.4-0.5
		C109.4,79.2,109.1,79.7,109,80.3z"/>
	<path class="st0" d="M108.6,143.1c0.1,0,0.1,0.1,0.2,0.1c0.6,0.3,1.2,0.4,2,0.1c1-0.4,2.1-0.7,3.3-0.5c0.1-0.1,0.2-0.3,0.3-0.4
		c-0.6-0.4-1.2-0.7-1.7-1.1c-1-0.8-2.2-0.6-3.3-0.6c-0.3-0.1-0.7-0.3-1,0.1c-0.2,0.2,0.1,0.4,0.2,0.6c0,0,0,0,0,0
		c0,0.1,0,0.2,0.1,0.3c0,0.4-0.1,0.7-0.1,1.1h0c-0.8-0.2-1.6-0.3-2.4-0.2c0,0.1,0,0.1,0,0.2C106.9,143.3,107.8,143,108.6,143.1z"/>
	<path class="st0" d="M112.8,67.1c0,0.1,0.2,0.3,0.3,0.3c0.7-0.1,0.8-0.7,0.9-1.3c0-0.1,0-0.1,0-0.2l0,0
		C113.3,66,112.7,66.3,112.8,67.1z"/>
	<polygon class="st0" points="116.9,64.9 116.9,64.9 116.9,64.9 	"/>
	<path class="st0" d="M116.3,64c-0.1,0-0.2,0.1-0.2,0.2c0,0.6,0.4,0.6,0.8,0.7C116.8,64.5,116.9,64,116.3,64z"/>
	<path class="st0" d="M129.1,69.6c0.1,0.2,0.2,0.5,0.4,0.7c0.7-0.4,0.9-0.7,0-1.1C129.3,69.4,129.2,69.5,129.1,69.6z"/>
	<path class="st0" d="M117.5,63.9c0,0.1,0.2,0.3,0.3,0.3c0.4,0,0.5-0.4,0.5-0.7c0,0,0,0,0,0C118,63.5,117.6,63.5,117.5,63.9z"/>
	<path class="st0" d="M121.2,49.1c-0.6-0.2-1,0.3-1.5,0.4c0.1,0.4,0.3,0.6,0.7,0.7C120.8,49.9,121.4,49.8,121.2,49.1z"/>
	<path class="st0" d="M308.8,155.4c-1,0.3-0.7,1.2-0.9,2c0.3,0.9-0.1,2.3,1.3,2.5c0.9,0.1,1.3-0.6,1.4-1.5
		C310.8,157.5,309.4,155.2,308.8,155.4z"/>
	<path class="st0" d="M105,140.7c0.4-0.1,1.1,0,1.2-0.6c0.1-0.6-0.6-0.7-0.9-1c-0.2-0.1-0.4-0.3-0.7-0.4c-0.6-0.1-1.2-0.2-1.8-0.3
		c-0.5-0.3-1-0.8-1.5,0h0c-0.1,0.2-0.2,0.5-0.3,0.7C102.4,139.7,103.3,141.2,105,140.7z"/>
	<path class="st0" d="M111.4,64.6c-1.1-0.1-2.2-0.1-2.4,1.4C110.1,66.1,111.2,66,111.4,64.6z"/>
	<path class="st0" d="M95.7,136.2c-0.7,0-1.3,0.1-1.7,0.6c-0.4,0.4-0.3,0.7,0.3,0.8c0.5-0.3,1-0.6,1.5-1l0,0c1.7,0.5,3.3,1.6,5.5,1
		c-0.5-0.4-0.9-0.7-1.2-1C98.6,136.4,97.2,135.6,95.7,136.2z"/>
	<path class="st0" d="M101.7,143.2c0,0.3,0.3,0.5,0.6,0.5c0.3,0,0.6-0.1,0.7-0.4c0-0.4-0.2-0.5-0.6-0.5
		C102.1,142.8,101.8,142.8,101.7,143.2z"/>
	<path class="st0" d="M261.7,189.2c-1.2,0.2-1.8,1.2-1.7,2.5l0,0h0c-0.3,0.5-0.1,0.7,0.4,0.8h0c0.1,1.2-0.1,2.4-0.9,3.4
		c-1.1,1.4-0.8,3-0.5,4.4c0.2,1.2,1.2,1.7,2.5,1.5c0.7-0.2,1.3-0.5,2-0.7c1-2.8,2.1-5.7,3.1-8.5c0.3,0,0.6,0,0.9,0
		c0-0.1,0.1-0.3,0.1-0.4c-0.1-0.2-0.3-0.5-0.4-0.7c0.2-0.9,0.3-1.8,0.7-2.6c0.7-1.7,0.6-3.2-0.7-4.6
		C265.7,186.4,264.5,188.7,261.7,189.2z"/>
	<path class="st0" d="M212.6,111.9c0.1,0.5,0,1.2,0.7,1.2c0.6,0,0.6-0.6,0.7-1.1c0.1-0.8,0-1.5-0.4-2.2c0.1-0.2,0.2-0.3,0.2-0.5
		c0.2-0.6,0.4-1.3-0.2-1.8c-0.2-0.2-0.6-0.1-0.8,0.1c-0.5,0.7-0.4,1.3,0.2,1.9c0.1,0.1,0.2,0.1,0.3,0.2h0l0,0
		C212.8,110.4,212.5,111,212.6,111.9z"/>
	<path class="st0" d="M122.5,153.8c0.3,0.1,0.6,0.3,0.8,0.4c0-0.4,0-0.7,0-1.1c-0.1,0-0.2,0-0.4,0
		C122.4,153.1,122.4,153.4,122.5,153.8z"/>
	<path class="st0" d="M115.8,143.1c-0.1,0.4,0.3,0.6,0.7,0.6c0.5,0.1,0.9,0,1.2-0.5c0-0.5-0.4-0.6-0.7-0.6
		C116.5,142.7,115.9,142.5,115.8,143.1z"/>
</g>
</svg>
